*
*
G04 PADS Layout (Build Number 2007.21.1) generated Gerber (RS-274-X) file*
G04 PC Version=2.1*
*
%IN "J5050.pcb"*%
*
%MOMM*%
*
%FSLAX44Y44*%
*
*
*
*
G04 PC Standard Apertures*
*
*
G04 Thermal Relief Aperture macro.*
%AMTER*
1,1,$1,0,0*
1,0,$1-$2,0,0*
21,0,$3,$4,0,0,45*
21,0,$3,$4,0,0,135*
%
*
*
G04 Annular Aperture macro.*
%AMANN*
1,1,$1,0,0*
1,0,$2,0,0*
%
*
*
G04 Odd Aperture macro.*
%AMODD*
1,1,$1,0,0*
1,0,$1-0.005,0,0*
%
*
*
G04 PC Custom Aperture Macros*
*
*
*
*
*
*
G04 PC Aperture Table*
*
%ADD010C,0.254*%
%ADD011C,0.2032*%
%ADD012C,0.0508*%
%ADD013C,0.127*%
%ADD023C,0.0254*%
%ADD080C,0.2*%
%ADD081C,0.15*%
%ADD088R,0.76X0.76*%
%ADD089R,0.625X0.625*%
%ADD090R,1.875X1.875*%
%ADD091R,0.725X0.725*%
%ADD092R,0.825X0.825*%
%ADD093C,1.875*%
%ADD094C,1.225*%
*
*
*
*
G04 PC Circuitry*
G04 Layer Name J5050.pcb - circuitry*
%LPD*%
*
*
G04 PC Custom Flashes*
G04 Layer Name J5050.pcb - flashes*
%LPD*%
*
*
G04 PC Circuitry*
G04 Layer Name J5050.pcb - circuitry*
%LPD*%
*
G54D10*
G01X315000Y655000D02*
G75*
G03X324525Y645475I9525J0D01*
G01X940475*
G03X950000Y655000I0J9525*
G01Y762950*
G03X940475Y772475I-9525J0*
G01X543600*
X534075Y782000D02*
G03X543600Y772475I9525J0D01*
G01X534075Y782000D02*
Y801050D01*
G03X524550Y810575I-9525J0*
G01X324525*
G03X315000Y801050I0J-9525*
G01Y655000*
G54D11*
X880150Y699450D02*
G03X886500Y693100I6350J0D01*
G01X937300*
G03X943650Y699450I0J6350*
G01Y759775*
G03X937300Y766125I-6350J0*
G01X886500*
G03X880150Y759775I0J-6350*
G01Y699450*
X486450Y658175D02*
G03X492800Y651825I6350J0D01*
G01X937300*
G03X943650Y658175I0J6350*
G01Y677225*
G03X937300Y683575I-6350J0*
G01X492800*
G03X486450Y677225I0J-6350*
G01Y658175*
X492800Y766125D02*
G03X486450Y759775I0J-6350D01*
G01X492800Y766125D02*
X867450D01*
X873800Y759775D02*
G03X867450Y766125I-6350J0D01*
G01X873800Y759775D02*
Y699450D01*
X867450Y693100D02*
G03X873800Y699450I0J6350D01*
G01X867450Y693100D02*
X492800D01*
X486450Y699450D02*
G03X492800Y693100I6350J0D01*
G01X486450Y699450D02*
Y759775D01*
X327700Y683575D02*
G03X321350Y677225I0J-6350D01*
G01X327700Y683575D02*
X473750D01*
X480100Y677225D02*
G03X473750Y683575I-6350J0D01*
G01X480100Y677225D02*
Y658175D01*
X473750Y651825D02*
G03X480100Y658175I0J6350D01*
G01X473750Y651825D02*
X327700D01*
X321350Y658175D02*
G03X327700Y651825I6350J0D01*
G01X321350Y658175D02*
Y677225D01*
X327700Y724850D02*
G03X321350Y718500I0J-6350D01*
G01X327700Y724850D02*
X473750D01*
X480100Y718500D02*
G03X473750Y724850I-6350J0D01*
G01X480100Y718500D02*
Y699450D01*
X473750Y693100D02*
G03X480100Y699450I0J6350D01*
G01X473750Y693100D02*
X327700D01*
X321350Y699450D02*
G03X327700Y693100I6350J0D01*
G01X321350Y699450D02*
Y718500D01*
X480100Y759775D02*
G03X473750Y766125I-6350J0D01*
G01X327700*
G03X321350Y759775I0J-6350*
G01Y740725*
G03X327700Y734375I6350J0*
G01X473750*
G03X480100Y740725I0J6350*
G01Y759775*
X398553Y758266D02*
Y745566D01*
X398553D02*
X397976Y743185D01*
X397976D02*
X397398Y742391D01*
X397398D02*
X396244Y741598D01*
X395089*
X395089D02*
X393935Y742391D01*
X393935D02*
X393357Y743185D01*
X393357D02*
X392780Y745566D01*
X392780D02*
Y747154D01*
X411253Y758266D02*
X405480D01*
X405480D02*
X404903Y751123D01*
X405480Y751916*
X405480D02*
X407212Y752710D01*
X407212D02*
X408944D01*
X408944D02*
X410676Y751916D01*
X410676D02*
X411830Y750329D01*
X411830D02*
X412407Y747948D01*
X412407D02*
X411830Y746360D01*
X411830D02*
X411253Y743979D01*
X410098Y742391*
X410098D02*
X408366Y741598D01*
X408366D02*
X406635D01*
X404903Y742391*
X404903D02*
X404326Y743185D01*
X404326D02*
X403748Y744773D01*
X421066Y758266D02*
X419335Y757473D01*
X418180Y755091*
X418180D02*
X417603Y751123D01*
Y748741*
X417603D02*
X418180Y744773D01*
X418180D02*
X419335Y742391D01*
X419335D02*
X421066Y741598D01*
X421066D02*
X422221D01*
X423953Y742391*
X423953D02*
X425107Y744773D01*
X425107D02*
X425685Y748741D01*
X425685D02*
Y751123D01*
X425107Y755091*
X425107D02*
X423953Y757473D01*
X422221Y758266*
X422221D02*
X421066D01*
X438385D02*
X432612D01*
X432612D02*
X432035Y751123D01*
X432612Y751916*
X432612D02*
X434344Y752710D01*
X434344D02*
X436076D01*
X436076D02*
X437807Y751916D01*
X437807D02*
X438962Y750329D01*
X439539Y747948*
X439539D02*
X438962Y746360D01*
X438962D02*
X438385Y743979D01*
X437230Y742391*
X437230D02*
X435498Y741598D01*
X435498D02*
X433766D01*
X433766D02*
X432035Y742391D01*
X432035D02*
X431457Y743185D01*
X431457D02*
X430880Y744773D01*
X448198Y758266D02*
X446466Y757473D01*
X446466D02*
X445312Y755091D01*
X445312D02*
X444735Y751123D01*
Y748741*
X444735D02*
X445312Y744773D01*
X446466Y742391*
X446466D02*
X448198Y741598D01*
X448198D02*
X449353D01*
X451085Y742391*
X451085D02*
X452239Y744773D01*
X452239D02*
X452816Y748741D01*
X452816D02*
Y751123D01*
X452816D02*
X452239Y755091D01*
X452239D02*
X451085Y757473D01*
X449353Y758266*
X449353D02*
X448198D01*
X422801Y713658D02*
X422223Y715245D01*
X422223D02*
X421069Y716833D01*
X419914Y717626*
X419914D02*
X417605D01*
X417605D02*
X416451Y716833D01*
X415296Y715245*
X415296D02*
X414719Y713658D01*
X414142Y711276*
X414142D02*
Y707308D01*
X414719Y704926*
X414719D02*
X415296Y703339D01*
X415296D02*
X416451Y701751D01*
X416451D02*
X417605Y700958D01*
X417605D02*
X419914D01*
X419914D02*
X421069Y701751D01*
X421069D02*
X422223Y703339D01*
X422223D02*
X422801Y704926D01*
X422801D02*
Y707308D01*
X419914D02*
X422801D01*
X427996Y717626D02*
Y700958D01*
Y717626D02*
X433192D01*
X433192D02*
X434923Y716833D01*
X434923D02*
X435501Y716039D01*
X436078Y714451*
X436078D02*
Y712864D01*
X435501Y711276*
X435501D02*
X434923Y710483D01*
X434923D02*
X433192Y709689D01*
X427996D02*
X433192D01*
X434923Y708895*
X434923D02*
X435501Y708101D01*
X435501D02*
X436078Y706514D01*
Y704133*
X435501Y702545*
X435501D02*
X434923Y701751D01*
X434923D02*
X433192Y700958D01*
X427996*
X384989Y675716D02*
X383257Y674923D01*
X383257D02*
X382103Y672541D01*
X382103D02*
X381525Y668573D01*
X381525D02*
Y666191D01*
X381525D02*
X382103Y662223D01*
X383257Y659841*
X383257D02*
X384989Y659048D01*
X386144*
X387875Y659841*
X387875D02*
X389030Y662223D01*
X389607Y666191*
X389607D02*
Y668573D01*
X389607D02*
X389030Y672541D01*
X389030D02*
X387875Y674923D01*
X387875D02*
X386144Y675716D01*
X386144D02*
X384989D01*
X394803Y672541D02*
X395957Y673335D01*
X395957D02*
X397689Y675716D01*
X397689D02*
Y659048D01*
X402884Y666191D02*
X413275D01*
X419048Y671748D02*
Y672541D01*
X419048D02*
X419625Y674129D01*
X419625D02*
X420203Y674923D01*
X421357Y675716*
X421357D02*
X423666D01*
X423666D02*
X424821Y674923D01*
X425398Y674129*
X425398D02*
X425975Y672541D01*
X425975D02*
Y670954D01*
X425975D02*
X425398Y669366D01*
X425398D02*
X424244Y666985D01*
X424244D02*
X418471Y659048D01*
X426553*
X435212Y675716D02*
X433480Y674923D01*
X432325Y672541*
X432325D02*
X431748Y668573D01*
X431748D02*
Y666191D01*
X431748D02*
X432325Y662223D01*
X432325D02*
X433480Y659841D01*
X433480D02*
X435212Y659048D01*
X436366*
X436366D02*
X438098Y659841D01*
X438098D02*
X439253Y662223D01*
X439830Y666191*
X439830D02*
Y668573D01*
X439253Y672541*
X439253D02*
X438098Y674923D01*
X438098D02*
X436366Y675716D01*
X436366D02*
X435212D01*
X445025Y672541D02*
X446180Y673335D01*
X446180D02*
X447912Y675716D01*
X447912D02*
Y659048D01*
X460034Y673335D02*
X459457Y674923D01*
X459457D02*
X457725Y675716D01*
X457725D02*
X456571D01*
X456571D02*
X454839Y674923D01*
X453684Y672541*
X453684D02*
X453107Y668573D01*
X453107D02*
Y664604D01*
X453107D02*
X453684Y661429D01*
X453684D02*
X454839Y659841D01*
X454839D02*
X456571Y659048D01*
X457148*
X457148D02*
X458880Y659841D01*
X458880D02*
X460034Y661429D01*
X460034D02*
X460612Y663810D01*
X460612D02*
Y664604D01*
X460034Y666985*
X460034D02*
X458880Y668573D01*
X457148Y669366*
X457148D02*
X456571D01*
X456571D02*
X454839Y668573D01*
X453684Y666985*
X453684D02*
X453107Y664604D01*
X638988Y737946D02*
Y721278D01*
Y737946D02*
X644184D01*
X644184D02*
X645915Y737153D01*
X645915D02*
X646493Y736359D01*
X647070Y734771*
X647070D02*
Y732390D01*
X647070D02*
X646493Y730803D01*
X645915Y730009*
X645915D02*
X644184Y729215D01*
X644184D02*
X638988D01*
X660924Y733978D02*
X660347Y735565D01*
X660347D02*
X659193Y737153D01*
X658038Y737946*
X658038D02*
X655729D01*
X655729D02*
X654574Y737153D01*
X654574D02*
X653420Y735565D01*
X653420D02*
X652843Y733978D01*
X652265Y731596*
X652265D02*
Y727628D01*
X652265D02*
X652843Y725246D01*
X652843D02*
X653420Y723659D01*
X654574Y722071*
X654574D02*
X655729Y721278D01*
X658038*
X658038D02*
X659193Y722071D01*
X659193D02*
X660347Y723659D01*
X660347D02*
X660924Y725246D01*
X666120Y737946D02*
Y721278D01*
Y737946D02*
X671315D01*
X671315D02*
X673047Y737153D01*
X673047D02*
X673624Y736359D01*
X673624D02*
X674202Y734771D01*
X674202D02*
Y733184D01*
X673624Y731596*
X673624D02*
X673047Y730803D01*
X673047D02*
X671315Y730009D01*
X666120D02*
X671315D01*
X671315D02*
X673047Y729215D01*
X673047D02*
X673624Y728421D01*
X673624D02*
X674202Y726834D01*
Y724453*
X673624Y722865*
X673624D02*
X673047Y722071D01*
X673047D02*
X671315Y721278D01*
X671315D02*
X666120D01*
X679397Y734771D02*
X680552Y735565D01*
X680552D02*
X682284Y737946D01*
X682284D02*
Y721278D01*
X694984Y737946D02*
X689211D01*
X689211D02*
X688634Y730803D01*
X689211Y731596*
X689211D02*
X690943Y732390D01*
X690943D02*
X692674D01*
X692674D02*
X694406Y731596D01*
X694406D02*
X695561Y730009D01*
X696138Y727628*
X696138D02*
X695561Y726040D01*
X695561D02*
X694984Y723659D01*
X693829Y722071*
X693829D02*
X692097Y721278D01*
X692097D02*
X690365D01*
X690365D02*
X688634Y722071D01*
X688634D02*
X688056Y722865D01*
X688056D02*
X687479Y724453D01*
X707106Y737946D02*
X701334Y726834D01*
X709993*
X707106Y737946D02*
Y721278D01*
X718652Y737946D02*
X716920Y737153D01*
X715765Y734771*
X715765D02*
X715188Y730803D01*
X715188D02*
Y728421D01*
X715188D02*
X715765Y724453D01*
X715765D02*
X716920Y722071D01*
X716920D02*
X718652Y721278D01*
X719806*
X719806D02*
X721538Y722071D01*
X721538D02*
X722693Y724453D01*
X723270Y728421*
X723270D02*
Y730803D01*
X722693Y734771*
X722693D02*
X721538Y737153D01*
X721538D02*
X719806Y737946D01*
X719806D02*
X718652D01*
X909556Y735406D02*
Y718738D01*
Y735406D02*
X914751D01*
X914751D02*
X916483Y734613D01*
X916483D02*
X917060Y733819D01*
X917060D02*
X917638Y732231D01*
X917638D02*
Y730644D01*
X917060Y729056*
X917060D02*
X916483Y728263D01*
X916483D02*
X914751Y727469D01*
X909556D02*
X914751D01*
X914751D02*
X916483Y726675D01*
X916483D02*
X917060Y725881D01*
X917060D02*
X917638Y724294D01*
Y721913*
X917060Y720325*
X917060D02*
X916483Y719531D01*
X916483D02*
X914751Y718738D01*
X914751D02*
X909556D01*
X620862Y675716D02*
Y659048D01*
X616821Y675716D02*
X624903D01*
X633562D02*
X632407Y674923D01*
X632407D02*
X631253Y673335D01*
X631253D02*
X630675Y671748D01*
X630675D02*
X630098Y669366D01*
X630098D02*
Y665398D01*
X630098D02*
X630675Y663016D01*
X630675D02*
X631253Y661429D01*
X632407Y659841*
X632407D02*
X633562Y659048D01*
X635871*
X637025Y659841*
X637025D02*
X638180Y661429D01*
X638757Y663016*
X638757D02*
X639334Y665398D01*
X639334D02*
Y669366D01*
X639334D02*
X638757Y671748D01*
X638757D02*
X638180Y673335D01*
X638180D02*
X637025Y674923D01*
X637025D02*
X635871Y675716D01*
X635871D02*
X633562D01*
X644530D02*
Y659048D01*
Y675716D02*
X649725D01*
X649725D02*
X651457Y674923D01*
X651457D02*
X652034Y674129D01*
X652034D02*
X652612Y672541D01*
X652612D02*
Y670160D01*
X652612D02*
X652034Y668573D01*
X652034D02*
X651457Y667779D01*
X651457D02*
X649725Y666985D01*
X649725D02*
X644530D01*
X679166Y673335D02*
X678012Y674923D01*
X676280Y675716*
X676280D02*
X673971D01*
X673971D02*
X672239Y674923D01*
X671084Y673335*
X671084D02*
Y671748D01*
X671084D02*
X671662Y670160D01*
X671662D02*
X672239Y669366D01*
X672239D02*
X673394Y668573D01*
X676857Y666985*
X676857D02*
X678012Y666191D01*
X678012D02*
X678589Y665398D01*
X679166Y663810*
X679166D02*
Y661429D01*
X679166D02*
X678012Y659841D01*
X678012D02*
X676280Y659048D01*
X673971*
X672239Y659841*
X672239D02*
X671084Y661429D01*
X687825Y675716D02*
X686671Y674923D01*
X685516Y673335*
X685516D02*
X684939Y671748D01*
X684362Y669366*
X684362D02*
Y665398D01*
X684939Y663016*
X684939D02*
X685516Y661429D01*
X685516D02*
X686671Y659841D01*
X686671D02*
X687825Y659048D01*
X687825D02*
X690134D01*
X690134D02*
X691289Y659841D01*
X691289D02*
X692444Y661429D01*
X693021Y663016*
X693021D02*
X693598Y665398D01*
X693598D02*
Y669366D01*
X693598D02*
X693021Y671748D01*
X692444Y673335*
X692444D02*
X691289Y674923D01*
X690134Y675716*
X690134D02*
X687825D01*
X698794D02*
Y659048D01*
X705721*
X710916Y675716D02*
Y659048D01*
Y675716D02*
X714957D01*
X714957D02*
X716689Y674923D01*
X717844Y673335*
X717844D02*
X718421Y671748D01*
X718998Y669366*
X718998D02*
Y665398D01*
X718998D02*
X718421Y663016D01*
X718421D02*
X717844Y661429D01*
X716689Y659841*
X716689D02*
X714957Y659048D01*
X714957D02*
X710916D01*
X724194Y675716D02*
Y659048D01*
Y675716D02*
X731698D01*
X724194Y667779D02*
X728812D01*
X724194Y659048D02*
X731698D01*
X736894Y675716D02*
Y659048D01*
Y675716D02*
X742089D01*
X742089D02*
X743821Y674923D01*
X744398Y674129*
X744398D02*
X744975Y672541D01*
X744975D02*
Y670954D01*
X744975D02*
X744398Y669366D01*
X744398D02*
X743821Y668573D01*
X742089Y667779*
X736894*
X740934D02*
X744975Y659048D01*
X763448Y675716D02*
Y659048D01*
Y675716D02*
X768644D01*
X768644D02*
X770375Y674923D01*
X770375D02*
X770953Y674129D01*
X771530Y672541*
X771530D02*
Y670954D01*
X770953Y669366*
X770953D02*
X770375Y668573D01*
X770375D02*
X768644Y667779D01*
X763448*
X767489D02*
X771530Y659048D01*
X776725Y675716D02*
Y659048D01*
Y675716D02*
X784230D01*
X776725Y667779D02*
X781344D01*
X776725Y659048D02*
X784230D01*
X797507Y673335D02*
X796353Y674923D01*
X794621Y675716*
X794621D02*
X792312D01*
X792312D02*
X790580Y674923D01*
X789425Y673335*
X789425D02*
Y671748D01*
X789425D02*
X790003Y670160D01*
X790003D02*
X790580Y669366D01*
X790580D02*
X791734Y668573D01*
X791734D02*
X795198Y666985D01*
X795198D02*
X796353Y666191D01*
X796353D02*
X796930Y665398D01*
X797507Y663810*
X797507D02*
Y661429D01*
X797507D02*
X796353Y659841D01*
X796353D02*
X794621Y659048D01*
X792312*
X790580Y659841*
X790580D02*
X789425Y661429D01*
X802703Y675716D02*
Y659048D01*
X815980Y673335D02*
X814825Y674923D01*
X814825D02*
X813094Y675716D01*
X813094D02*
X810784D01*
X810784D02*
X809053Y674923D01*
X807898Y673335*
X807898D02*
Y671748D01*
X807898D02*
X808475Y670160D01*
X808475D02*
X809053Y669366D01*
X809053D02*
X810207Y668573D01*
X810207D02*
X813671Y666985D01*
X813671D02*
X814825Y666191D01*
X814825D02*
X815403Y665398D01*
X815980Y663810*
X815980D02*
Y661429D01*
X814825Y659841*
X814825D02*
X813094Y659048D01*
X810784*
X810784D02*
X809053Y659841D01*
X809053D02*
X807898Y661429D01*
X825216Y675716D02*
Y659048D01*
X821175Y675716D02*
X829257D01*
G54D12*
X330875Y778825D02*
X335073D01*
X484227D02*
X489156D01*
X329414Y779190D02*
X336534D01*
X343289D02*
X347853D01*
X360815D02*
X365014D01*
X367022D02*
X378888D01*
X389295D02*
X407003D01*
X410107D02*
X414306D01*
X423981D02*
X428180D01*
X432379D02*
X450088D01*
X453191D02*
X457390D01*
X469257D02*
X474186D01*
X482767D02*
X490982D01*
X506500D02*
X510699D01*
X328684Y779555D02*
X337629D01*
X343289D02*
X348218D01*
X360815D02*
X365014D01*
X367022D02*
X380349D01*
X389295D02*
X407003D01*
X410107D02*
X414671D01*
X423616D02*
X428545D01*
X432379D02*
X450088D01*
X453191D02*
X457755D01*
X468892D02*
X473821D01*
X481671D02*
X492442D01*
X506500D02*
X511064D01*
X327954Y779920D02*
X338360D01*
X343654D02*
X348218D01*
X360815D02*
X365014D01*
X367387D02*
X381444D01*
X389660D02*
X407368D01*
X410472D02*
X414671D01*
X423616D02*
X428545D01*
X432744D02*
X450453D01*
X453557D02*
X457755D01*
X468892D02*
X473821D01*
X480941D02*
X493538D01*
X506865D02*
X511064D01*
X327588Y780285D02*
X339090D01*
X343654D02*
X348583D01*
X360450D02*
X365014D01*
X367387D02*
X382175D01*
X389660D02*
X407368D01*
X410472D02*
X414671D01*
X423616D02*
X428545D01*
X432744D02*
X450453D01*
X453557D02*
X457755D01*
X468892D02*
X473821D01*
X480576D02*
X494268D01*
X506865D02*
X511064D01*
X326858Y780650D02*
X339820D01*
X344019D02*
X348583D01*
X360450D02*
X364649D01*
X367387D02*
X382905D01*
X389660D02*
X407368D01*
X410472D02*
X414671D01*
X423251D02*
X428545D01*
X432744D02*
X450453D01*
X453557D02*
X457755D01*
X468527D02*
X473456D01*
X480211D02*
X494998D01*
X506865D02*
X511064D01*
X326493Y781015D02*
X340185D01*
X344019D02*
X348948D01*
X360450D02*
X364649D01*
X367387D02*
X383635D01*
X389660D02*
X407733D01*
X410472D02*
X414671D01*
X423251D02*
X428545D01*
X432744D02*
X450818D01*
X453557D02*
X457755D01*
X468527D02*
X473456D01*
X479846D02*
X495728D01*
X506865D02*
X511064D01*
X326128Y781380D02*
X340550D01*
X344384D02*
X348948D01*
X360450D02*
X364649D01*
X367387D02*
X384000D01*
X389660D02*
X407733D01*
X410472D02*
X415036D01*
X422886D02*
X428911D01*
X432744D02*
X450818D01*
X453557D02*
X458121D01*
X468527D02*
X473091D01*
X479480D02*
X496459D01*
X506865D02*
X511429D01*
X326128Y781746D02*
X340915D01*
X344749D02*
X349313D01*
X360450D02*
X364649D01*
X367752D02*
X384365D01*
X390025D02*
X407733D01*
X410837D02*
X415036D01*
X422886D02*
X428911D01*
X433110D02*
X450818D01*
X453922D02*
X458121D01*
X468162D02*
X473091D01*
X479115D02*
X496824D01*
X507230D02*
X511429D01*
X325763Y782111D02*
X341281D01*
X344749D02*
X349678D01*
X360450D02*
X364649D01*
X367752D02*
X384730D01*
X390025D02*
X407733D01*
X410837D02*
X415036D01*
X422886D02*
X428911D01*
X433110D02*
X450818D01*
X453922D02*
X458121D01*
X468162D02*
X473091D01*
X478750D02*
X496824D01*
X507230D02*
X511429D01*
X325398Y782476D02*
X341646D01*
X345114D02*
X349678D01*
X360450D02*
X364649D01*
X367752D02*
X385096D01*
X390025D02*
X408098D01*
X410837D02*
X415036D01*
X422521D02*
X428911D01*
X433110D02*
X451183D01*
X453922D02*
X458121D01*
X467796D02*
X472726D01*
X478385D02*
X496824D01*
X507230D02*
X511429D01*
X325398Y782841D02*
X331787D01*
X334891D02*
X342011D01*
X345114D02*
X350044D01*
X360085D02*
X364649D01*
X367752D02*
X385461D01*
X390025D02*
X408098D01*
X410837D02*
X415036D01*
X422521D02*
X428911D01*
X433110D02*
X451183D01*
X453922D02*
X458121D01*
X467796D02*
X472726D01*
X478385D02*
X484775D01*
X488974D02*
X496824D01*
X507230D02*
X511429D01*
X325033Y783206D02*
X331057D01*
X336351D02*
X342376D01*
X345480D02*
X350044D01*
X360085D02*
X364283D01*
X367752D02*
X372316D01*
X378341D02*
X385826D01*
X390025D02*
X394589D01*
X410837D02*
X415401D01*
X422521D02*
X429276D01*
X433110D02*
X437674D01*
X453922D02*
X458486D01*
X467431D02*
X472360D01*
X478020D02*
X483679D01*
X490434D02*
X496824D01*
X507230D02*
X511794D01*
X325033Y783571D02*
X330327D01*
X337082D02*
X342376D01*
X345480D02*
X350409D01*
X360085D02*
X364283D01*
X368117D02*
X372316D01*
X379801D02*
X386191D01*
X390390D02*
X394589D01*
X411202D02*
X415401D01*
X422156D02*
X429276D01*
X433475D02*
X437674D01*
X454287D02*
X458486D01*
X467431D02*
X472360D01*
X478020D02*
X482949D01*
X491530D02*
X497189D01*
X507595D02*
X511794D01*
X324667Y783936D02*
X329962D01*
X337447D02*
X342741D01*
X345845D02*
X350409D01*
X360085D02*
X364283D01*
X368117D02*
X372316D01*
X380532D02*
X386556D01*
X390390D02*
X394589D01*
X411202D02*
X415401D01*
X422156D02*
X429276D01*
X433475D02*
X437674D01*
X454287D02*
X458486D01*
X467431D02*
X471995D01*
X477655D02*
X482584D01*
X492625D02*
X497189D01*
X507595D02*
X511794D01*
X324667Y784301D02*
X329597D01*
X337812D02*
X343106D01*
X345845D02*
X364283D01*
X368117D02*
X372316D01*
X380897D02*
X386556D01*
X390390D02*
X394589D01*
X411202D02*
X415401D01*
X421791D02*
X429276D01*
X433475D02*
X437674D01*
X454287D02*
X458486D01*
X467066D02*
X471995D01*
X477655D02*
X482219D01*
X492990D02*
X497189D01*
X507595D02*
X511794D01*
X324302Y784667D02*
X329231D01*
X338542D02*
X343106D01*
X346210D02*
X364283D01*
X368117D02*
X372681D01*
X381627D02*
X386921D01*
X390390D02*
X394954D01*
X411202D02*
X415401D01*
X421791D02*
X429641D01*
X433475D02*
X438039D01*
X454287D02*
X458851D01*
X467066D02*
X471630D01*
X477290D02*
X482219D01*
X492990D02*
X497189D01*
X507595D02*
X512159D01*
X324302Y785032D02*
X328866D01*
X338542D02*
X343471D01*
X346210D02*
X364283D01*
X368482D02*
X372681D01*
X381992D02*
X387286D01*
X390755D02*
X394954D01*
X411567D02*
X415766D01*
X421791D02*
X429641D01*
X433840D02*
X438039D01*
X454652D02*
X458851D01*
X466701D02*
X471630D01*
X477290D02*
X481854D01*
X492990D02*
X497554D01*
X507960D02*
X512159D01*
X324302Y785397D02*
X328866D01*
X338907D02*
X343471D01*
X346575D02*
X364283D01*
X368482D02*
X372681D01*
X382357D02*
X387286D01*
X390755D02*
X394954D01*
X411567D02*
X415766D01*
X421426D02*
X429641D01*
X433840D02*
X438039D01*
X454652D02*
X458851D01*
X466701D02*
X471265D01*
X477290D02*
X481489D01*
X492990D02*
X497554D01*
X507960D02*
X512159D01*
X324302Y785762D02*
X328501D01*
X339272D02*
X343836D01*
X346575D02*
X363918D01*
X368482D02*
X372681D01*
X382357D02*
X387651D01*
X390755D02*
X394954D01*
X411567D02*
X415766D01*
X421426D02*
X429641D01*
X433840D02*
X438039D01*
X454652D02*
X458851D01*
X466336D02*
X471265D01*
X477290D02*
X481489D01*
X493355D02*
X497554D01*
X507960D02*
X512159D01*
X324302Y786127D02*
X328501D01*
X339272D02*
X343471D01*
X346940D02*
X363918D01*
X368482D02*
X372681D01*
X382722D02*
X387651D01*
X390755D02*
X394954D01*
X411567D02*
X415766D01*
X421060D02*
X429641D01*
X433840D02*
X438039D01*
X454652D02*
X458851D01*
X466336D02*
X470900D01*
X477290D02*
X481489D01*
X493355D02*
X497554D01*
X507960D02*
X512159D01*
X323937Y786492D02*
X328501D01*
X339638D02*
X340915D01*
X347305D02*
X363918D01*
X368482D02*
X373046D01*
X383087D02*
X388017D01*
X390755D02*
X395319D01*
X411567D02*
X415766D01*
X421060D02*
X430006D01*
X433840D02*
X438404D01*
X454652D02*
X459216D01*
X465971D02*
X470900D01*
X476925D02*
X481489D01*
X493355D02*
X497554D01*
X507960D02*
X512524D01*
X323937Y786857D02*
X328136D01*
X347305D02*
X363918D01*
X368848D02*
X373046D01*
X383087D02*
X388017D01*
X391120D02*
X395319D01*
X411932D02*
X416131D01*
X421060D02*
X430006D01*
X434205D02*
X438404D01*
X455017D02*
X459216D01*
X465971D02*
X470535D01*
X476925D02*
X481123D01*
X493355D02*
X497919D01*
X508325D02*
X512524D01*
X323937Y787222D02*
X328136D01*
X347670D02*
X363918D01*
X368848D02*
X373046D01*
X383453D02*
X388017D01*
X391120D02*
X395319D01*
X411932D02*
X416131D01*
X420695D02*
X430006D01*
X434205D02*
X438404D01*
X455017D02*
X459216D01*
X465606D02*
X470535D01*
X476925D02*
X481123D01*
X493720D02*
X497919D01*
X508325D02*
X512524D01*
X323937Y787588D02*
X328136D01*
X347670D02*
X363918D01*
X368848D02*
X373046D01*
X383818D02*
X388382D01*
X391120D02*
X395319D01*
X411932D02*
X416131D01*
X420695D02*
X425259D01*
X426172D02*
X430006D01*
X434205D02*
X438404D01*
X455017D02*
X459216D01*
X465241D02*
X470170D01*
X476925D02*
X481123D01*
X493720D02*
X497919D01*
X508325D02*
X512524D01*
X323937Y787953D02*
X328136D01*
X348035D02*
X363918D01*
X368848D02*
X373046D01*
X383818D02*
X388382D01*
X391120D02*
X395319D01*
X411932D02*
X416131D01*
X420695D02*
X425259D01*
X426172D02*
X430006D01*
X434205D02*
X438404D01*
X455017D02*
X459216D01*
X464875D02*
X469805D01*
X476925D02*
X481123D01*
X487148D02*
X497919D01*
X508325D02*
X512889D01*
X323937Y788318D02*
X328136D01*
X348035D02*
X352965D01*
X359354D02*
X363553D01*
X368848D02*
X373412D01*
X384183D02*
X388382D01*
X391120D02*
X395684D01*
X411932D02*
X416131D01*
X420330D02*
X424894D01*
X426172D02*
X430371D01*
X434205D02*
X438769D01*
X455017D02*
X459581D01*
X464510D02*
X469439D01*
X476925D02*
X481123D01*
X487148D02*
X497919D01*
X508325D02*
X512889D01*
X323937Y788683D02*
X328136D01*
X348401D02*
X352965D01*
X359354D02*
X363553D01*
X369213D02*
X373412D01*
X384183D02*
X388747D01*
X391485D02*
X395684D01*
X412297D02*
X416496D01*
X420330D02*
X424894D01*
X426172D02*
X430371D01*
X434570D02*
X438769D01*
X455382D02*
X459581D01*
X463780D02*
X469074D01*
X476925D02*
X481123D01*
X487513D02*
X498284D01*
X508325D02*
X513254D01*
X323937Y789048D02*
X328136D01*
X348401D02*
X353330D01*
X359354D02*
X363553D01*
X369213D02*
X373412D01*
X384183D02*
X388747D01*
X391485D02*
X395684D01*
X412297D02*
X416496D01*
X419965D02*
X424894D01*
X426172D02*
X430371D01*
X434570D02*
X438769D01*
X455382D02*
X468709D01*
X476925D02*
X481123D01*
X487513D02*
X498284D01*
X507960D02*
X513620D01*
X323937Y789413D02*
X328136D01*
X348766D02*
X353330D01*
X359354D02*
X363553D01*
X369213D02*
X373412D01*
X384548D02*
X388747D01*
X391485D02*
X395684D01*
X412297D02*
X416496D01*
X419965D02*
X424529D01*
X426537D02*
X430371D01*
X434570D02*
X438769D01*
X455382D02*
X470535D01*
X476925D02*
X481123D01*
X487513D02*
X498284D01*
X507960D02*
X513985D01*
X323937Y789778D02*
X328136D01*
X348766D02*
X353695D01*
X359354D02*
X363553D01*
X369213D02*
X373777D01*
X384548D02*
X388747D01*
X391485D02*
X408098D01*
X412297D02*
X416496D01*
X419965D02*
X424529D01*
X426537D02*
X430736D01*
X434570D02*
X451183D01*
X455382D02*
X471630D01*
X476925D02*
X481123D01*
X487513D02*
X498284D01*
X507595D02*
X513985D01*
X323937Y790143D02*
X328136D01*
X349131D02*
X353695D01*
X359354D02*
X363553D01*
X369578D02*
X373777D01*
X384548D02*
X388747D01*
X391850D02*
X408098D01*
X412663D02*
X416496D01*
X419600D02*
X424164D01*
X426537D02*
X430736D01*
X434935D02*
X451183D01*
X455747D02*
X472360D01*
X476925D02*
X481123D01*
X487878D02*
X498284D01*
X507595D02*
X514350D01*
X323937Y790509D02*
X328136D01*
X349131D02*
X354060D01*
X358989D02*
X363188D01*
X369578D02*
X373777D01*
X384548D02*
X389112D01*
X391850D02*
X408464D01*
X412663D02*
X416861D01*
X419600D02*
X424164D01*
X426537D02*
X430736D01*
X434935D02*
X451548D01*
X455747D02*
X473091D01*
X476925D02*
X481123D01*
X487878D02*
X498649D01*
X507595D02*
X514715D01*
X323937Y790874D02*
X328501D01*
X349496D02*
X354425D01*
X358989D02*
X363188D01*
X369578D02*
X373777D01*
X384913D02*
X389112D01*
X391850D02*
X408464D01*
X412663D02*
X416861D01*
X419235D02*
X424164D01*
X426537D02*
X430736D01*
X434935D02*
X451548D01*
X455747D02*
X473456D01*
X476925D02*
X481489D01*
X487878D02*
X498649D01*
X507230D02*
X515080D01*
X323937Y791239D02*
X328501D01*
X349861D02*
X354425D01*
X358989D02*
X363188D01*
X369578D02*
X373777D01*
X384913D02*
X389112D01*
X391850D02*
X408464D01*
X412663D02*
X416861D01*
X419235D02*
X423799D01*
X426902D02*
X430736D01*
X434935D02*
X451548D01*
X455747D02*
X473821D01*
X477290D02*
X481489D01*
X488243D02*
X498649D01*
X507230D02*
X515080D01*
X324302Y791604D02*
X328501D01*
X349861D02*
X354790D01*
X358989D02*
X363188D01*
X369578D02*
X374142D01*
X384913D02*
X389112D01*
X391850D02*
X408829D01*
X412663D02*
X416861D01*
X419235D02*
X423799D01*
X426902D02*
X431101D01*
X434935D02*
X451913D01*
X455747D02*
X474186D01*
X477290D02*
X481489D01*
X488243D02*
X498649D01*
X506865D02*
X515445D01*
X324302Y791969D02*
X328501D01*
X350226D02*
X354790D01*
X358989D02*
X363188D01*
X369943D02*
X374142D01*
X384913D02*
X389112D01*
X392216D02*
X408829D01*
X413028D02*
X416861D01*
X418870D02*
X423434D01*
X426902D02*
X431101D01*
X435300D02*
X451913D01*
X456112D02*
X474551D01*
X477290D02*
X481489D01*
X506865D02*
X515810D01*
X324302Y792334D02*
X328501D01*
X350226D02*
X355155D01*
X358989D02*
X363188D01*
X369943D02*
X374142D01*
X384913D02*
X389112D01*
X392216D02*
X408829D01*
X413028D02*
X417227D01*
X418870D02*
X423434D01*
X426902D02*
X431101D01*
X435300D02*
X451913D01*
X456112D02*
X474916D01*
X477290D02*
X481489D01*
X506500D02*
X516175D01*
X324302Y792699D02*
X328866D01*
X350591D02*
X355155D01*
X358624D02*
X363188D01*
X369943D02*
X374142D01*
X384913D02*
X389112D01*
X392216D02*
X408829D01*
X413028D02*
X417227D01*
X418870D02*
X423434D01*
X426902D02*
X431101D01*
X435300D02*
X451913D01*
X456112D02*
X460311D01*
X467431D02*
X474916D01*
X477290D02*
X481854D01*
X506500D02*
X516175D01*
X324302Y793064D02*
X328866D01*
X350591D02*
X355520D01*
X358624D02*
X362823D01*
X369943D02*
X374142D01*
X384913D02*
X389112D01*
X392216D02*
X409194D01*
X413028D02*
X417227D01*
X418505D02*
X423069D01*
X427268D02*
X431101D01*
X435300D02*
X452279D01*
X456112D02*
X460311D01*
X469257D02*
X475281D01*
X477655D02*
X481854D01*
X506500D02*
X511064D01*
X511611D02*
X516541D01*
X324667Y793430D02*
X328866D01*
X350956D02*
X355520D01*
X358624D02*
X362823D01*
X369943D02*
X374507D01*
X384913D02*
X389112D01*
X392216D02*
X409194D01*
X413028D02*
X417227D01*
X418505D02*
X423069D01*
X427268D02*
X431466D01*
X435300D02*
X452279D01*
X456112D02*
X460676D01*
X469987D02*
X475281D01*
X477655D02*
X481854D01*
X506135D02*
X510699D01*
X511977D02*
X516906D01*
X324667Y793795D02*
X329231D01*
X350956D02*
X355886D01*
X358624D02*
X362823D01*
X370308D02*
X374507D01*
X384913D02*
X389112D01*
X392581D02*
X396780D01*
X413393D02*
X417227D01*
X418139D02*
X423069D01*
X427268D02*
X431466D01*
X435665D02*
X439864D01*
X456478D02*
X460676D01*
X470352D02*
X475647D01*
X477655D02*
X482219D01*
X506135D02*
X510699D01*
X511977D02*
X517271D01*
X324667Y794160D02*
X329231D01*
X351322D02*
X355886D01*
X358624D02*
X362823D01*
X370308D02*
X374507D01*
X384913D02*
X389112D01*
X392581D02*
X396780D01*
X413393D02*
X417592D01*
X418139D02*
X422703D01*
X427268D02*
X431466D01*
X435665D02*
X439864D01*
X456478D02*
X460676D01*
X470717D02*
X475647D01*
X478020D02*
X482219D01*
X505769D02*
X510333D01*
X512342D02*
X517271D01*
X325033Y794525D02*
X329597D01*
X351322D02*
X356251D01*
X358624D02*
X362823D01*
X370308D02*
X374507D01*
X384913D02*
X389112D01*
X392581D02*
X396780D01*
X413393D02*
X417592D01*
X418139D02*
X422703D01*
X427268D02*
X431466D01*
X435665D02*
X439864D01*
X456478D02*
X460676D01*
X471083D02*
X475647D01*
X478020D02*
X482584D01*
X505769D02*
X510333D01*
X512707D02*
X517636D01*
X325033Y794890D02*
X329597D01*
X351687D02*
X356251D01*
X358624D02*
X362823D01*
X370308D02*
X374872D01*
X384913D02*
X389112D01*
X392581D02*
X397145D01*
X413393D02*
X422338D01*
X427633D02*
X431832D01*
X435665D02*
X440229D01*
X456478D02*
X461042D01*
X471448D02*
X476012D01*
X478385D02*
X482584D01*
X505404D02*
X510333D01*
X512707D02*
X518001D01*
X325033Y795255D02*
X329962D01*
X341098D02*
X342741D01*
X351687D02*
X356616D01*
X358259D02*
X362823D01*
X370308D02*
X374872D01*
X384548D02*
X389112D01*
X392581D02*
X397145D01*
X413393D02*
X422338D01*
X427633D02*
X431832D01*
X435665D02*
X440229D01*
X456478D02*
X461042D01*
X471448D02*
X476012D01*
X478385D02*
X482949D01*
X495546D02*
X496824D01*
X505404D02*
X509968D01*
X513072D02*
X518366D01*
X325398Y795620D02*
X329962D01*
X341098D02*
X345297D01*
X352052D02*
X356981D01*
X358259D02*
X362458D01*
X370673D02*
X374872D01*
X384548D02*
X388747D01*
X392946D02*
X397145D01*
X413758D02*
X422338D01*
X427633D02*
X431832D01*
X436031D02*
X440229D01*
X456843D02*
X461042D01*
X471813D02*
X476012D01*
X478385D02*
X482949D01*
X495181D02*
X499745D01*
X505039D02*
X509968D01*
X513437D02*
X518366D01*
X325398Y795985D02*
X330327D01*
X340733D02*
X345297D01*
X352417D02*
X356981D01*
X358259D02*
X362458D01*
X370673D02*
X374872D01*
X384548D02*
X388747D01*
X392946D02*
X397145D01*
X413758D02*
X421973D01*
X427633D02*
X431832D01*
X436031D02*
X440229D01*
X456843D02*
X461042D01*
X471813D02*
X476012D01*
X478750D02*
X483314D01*
X495181D02*
X499745D01*
X505039D02*
X509603D01*
X513802D02*
X518731D01*
X325763Y796351D02*
X330692D01*
X340733D02*
X345297D01*
X352417D02*
X357346D01*
X358259D02*
X362458D01*
X370673D02*
X374872D01*
X384183D02*
X388747D01*
X392946D02*
X397145D01*
X413758D02*
X421973D01*
X427633D02*
X431832D01*
X436031D02*
X440229D01*
X456843D02*
X461042D01*
X471813D02*
X476012D01*
X478750D02*
X483679D01*
X495181D02*
X499380D01*
X505039D02*
X509603D01*
X513802D02*
X519096D01*
X325763Y796716D02*
X331057D01*
X340733D02*
X344932D01*
X352782D02*
X357346D01*
X358259D02*
X362458D01*
X370673D02*
X375237D01*
X384183D02*
X388747D01*
X392946D02*
X397510D01*
X413758D02*
X421608D01*
X427998D02*
X432197D01*
X436031D02*
X440595D01*
X456843D02*
X461407D01*
X471813D02*
X476012D01*
X479115D02*
X484044D01*
X494816D02*
X499380D01*
X504674D02*
X509238D01*
X514167D02*
X519462D01*
X326128Y797081D02*
X331422D01*
X340368D02*
X344932D01*
X352782D02*
X357711D01*
X358259D02*
X362458D01*
X371038D02*
X375237D01*
X383818D02*
X388382D01*
X393311D02*
X397510D01*
X414123D02*
X421608D01*
X427998D02*
X432197D01*
X436396D02*
X440595D01*
X457208D02*
X461407D01*
X471813D02*
X476012D01*
X479480D02*
X484410D01*
X494451D02*
X499380D01*
X504674D02*
X509238D01*
X514532D02*
X519462D01*
X326128Y797446D02*
X331787D01*
X340003D02*
X344932D01*
X353147D02*
X357711D01*
X358259D02*
X362458D01*
X371038D02*
X375237D01*
X383453D02*
X388382D01*
X393311D02*
X397510D01*
X414123D02*
X421608D01*
X427998D02*
X432197D01*
X436396D02*
X440595D01*
X457208D02*
X461407D01*
X471448D02*
X476012D01*
X479480D02*
X484775D01*
X494085D02*
X499015D01*
X504309D02*
X508873D01*
X514898D02*
X519827D01*
X326493Y797811D02*
X332152D01*
X340003D02*
X344932D01*
X353147D02*
X362458D01*
X371038D02*
X375237D01*
X383087D02*
X388382D01*
X393311D02*
X397510D01*
X414123D02*
X421243D01*
X427998D02*
X432197D01*
X436396D02*
X440595D01*
X457208D02*
X461407D01*
X471448D02*
X476012D01*
X479846D02*
X485505D01*
X493720D02*
X499015D01*
X504309D02*
X508873D01*
X514898D02*
X520192D01*
X326858Y798176D02*
X332883D01*
X339638D02*
X344567D01*
X353512D02*
X362093D01*
X371038D02*
X375237D01*
X382357D02*
X388017D01*
X393311D02*
X397510D01*
X414123D02*
X421243D01*
X427998D02*
X432197D01*
X436396D02*
X440595D01*
X457208D02*
X461407D01*
X471083D02*
X476012D01*
X480211D02*
X485870D01*
X493355D02*
X499015D01*
X503944D02*
X508873D01*
X515263D02*
X520557D01*
X326858Y798541D02*
X333613D01*
X338907D02*
X344567D01*
X353512D02*
X362093D01*
X371038D02*
X375602D01*
X381627D02*
X388017D01*
X393311D02*
X397875D01*
X414123D02*
X421243D01*
X428363D02*
X432562D01*
X436396D02*
X440960D01*
X457208D02*
X461772D01*
X469987D02*
X475647D01*
X480211D02*
X486965D01*
X492625D02*
X498649D01*
X503944D02*
X508508D01*
X515628D02*
X520557D01*
X327223Y798906D02*
X334708D01*
X337812D02*
X344202D01*
X353877D02*
X362093D01*
X371403D02*
X387651D01*
X393676D02*
X410289D01*
X414488D02*
X420878D01*
X428363D02*
X432562D01*
X436761D02*
X453374D01*
X457573D02*
X475647D01*
X480576D02*
X488061D01*
X491895D02*
X498649D01*
X503944D02*
X508508D01*
X515993D02*
X520922D01*
X327588Y799272D02*
X344202D01*
X353877D02*
X362093D01*
X371403D02*
X387286D01*
X393676D02*
X410289D01*
X414488D02*
X420878D01*
X428363D02*
X432562D01*
X436761D02*
X453374D01*
X457573D02*
X475647D01*
X480941D02*
X498284D01*
X503579D02*
X508143D01*
X515993D02*
X521287D01*
X327954Y799637D02*
X343836D01*
X354243D02*
X362093D01*
X371403D02*
X387286D01*
X393676D02*
X410654D01*
X414488D02*
X420513D01*
X428363D02*
X432562D01*
X436761D02*
X453739D01*
X457573D02*
X475281D01*
X481306D02*
X497919D01*
X503579D02*
X508143D01*
X516358D02*
X521652D01*
X328319Y800002D02*
X343471D01*
X354608D02*
X362093D01*
X371403D02*
X386921D01*
X393676D02*
X410654D01*
X414488D02*
X420513D01*
X428363D02*
X432562D01*
X436761D02*
X453739D01*
X457573D02*
X475281D01*
X481671D02*
X497554D01*
X503214D02*
X507778D01*
X516723D02*
X521652D01*
X328684Y800367D02*
X343106D01*
X354608D02*
X362093D01*
X371403D02*
X386556D01*
X393676D02*
X410654D01*
X414488D02*
X420513D01*
X428728D02*
X432927D01*
X436761D02*
X453739D01*
X457573D02*
X474916D01*
X482036D02*
X497554D01*
X503214D02*
X507778D01*
X517088D02*
X522017D01*
X329414Y800732D02*
X342741D01*
X354973D02*
X361728D01*
X371769D02*
X386191D01*
X394041D02*
X411019D01*
X414853D02*
X420148D01*
X428728D02*
X432927D01*
X437126D02*
X454104D01*
X457938D02*
X474551D01*
X482767D02*
X497189D01*
X502848D02*
X507412D01*
X517088D02*
X522383D01*
X329779Y801097D02*
X342376D01*
X354973D02*
X361728D01*
X371769D02*
X385826D01*
X394041D02*
X411019D01*
X414853D02*
X420148D01*
X428728D02*
X432927D01*
X437126D02*
X454104D01*
X457938D02*
X474186D01*
X483132D02*
X496459D01*
X502848D02*
X507412D01*
X517453D02*
X522748D01*
X330509Y801462D02*
X342011D01*
X355338D02*
X361728D01*
X371769D02*
X385096D01*
X394041D02*
X411019D01*
X414853D02*
X419782D01*
X428728D02*
X432927D01*
X437126D02*
X454104D01*
X457938D02*
X473821D01*
X483497D02*
X496094D01*
X502848D02*
X507412D01*
X517819D02*
X522748D01*
X330875Y801827D02*
X341281D01*
X355338D02*
X361728D01*
X371769D02*
X384730D01*
X394041D02*
X411019D01*
X414853D02*
X419782D01*
X428728D02*
X433292D01*
X437126D02*
X454104D01*
X457938D02*
X473456D01*
X484227D02*
X495363D01*
X502483D02*
X507047D01*
X518184D02*
X523113D01*
X331970Y802193D02*
X340915D01*
X355703D02*
X361728D01*
X372134D02*
X383635D01*
X394406D02*
X411385D01*
X415218D02*
X419782D01*
X429093D02*
X433292D01*
X437491D02*
X454469D01*
X458303D02*
X472726D01*
X485322D02*
X494633D01*
X502483D02*
X507047D01*
X518184D02*
X523478D01*
X332700Y802558D02*
X339820D01*
X355703D02*
X361728D01*
X372134D02*
X382175D01*
X394406D02*
X411385D01*
X415218D02*
X419417D01*
X429093D02*
X433292D01*
X437491D02*
X454469D01*
X458303D02*
X471265D01*
X486053D02*
X493903D01*
X502118D02*
X506682D01*
X518549D02*
X523843D01*
X334161Y802923D02*
X338360D01*
X487878D02*
X492442D01*
G54D13*
X330586Y761759D02*
Y755409D01*
X330297Y754218*
X330297D02*
X330009Y753821D01*
X330009D02*
X329431Y753425D01*
X329431D02*
X328854D01*
X328854D02*
X328277Y753821D01*
X328277D02*
X327988Y754218D01*
X327988D02*
X327700Y755409D01*
Y756203*
X334915Y761759D02*
X334338Y761362D01*
X334338D02*
X333761Y760568D01*
X333761D02*
X333472Y759775D01*
X333472D02*
X333184Y758584D01*
Y756600*
X333472Y755409*
X333472D02*
X333761Y754615D01*
X333761D02*
X334338Y753821D01*
X334338D02*
X334915Y753425D01*
X334915D02*
X336070D01*
X336647Y753821*
X336647D02*
X337225Y754615D01*
X337225D02*
X337513Y755409D01*
X337513D02*
X337802Y756600D01*
Y758584*
X337513Y759775*
X337513D02*
X337225Y760568D01*
X337225D02*
X336647Y761362D01*
X336647D02*
X336070Y761759D01*
X334915*
X340400D02*
Y753425D01*
Y761759D02*
X342997D01*
X342997D02*
X343863Y761362D01*
X343863D02*
X344152Y760965D01*
X344152D02*
X344440Y760171D01*
X344440D02*
Y759378D01*
X344440D02*
X344152Y758584D01*
X343863Y758187*
X343863D02*
X342997Y757790D01*
X340400D02*
X342997D01*
X342997D02*
X343863Y757393D01*
X343863D02*
X344152Y756996D01*
X344152D02*
X344440Y756203D01*
X344440D02*
Y755012D01*
X344440D02*
X344152Y754218D01*
X344152D02*
X343863Y753821D01*
X343863D02*
X342997Y753425D01*
X342997D02*
X340400D01*
X353677Y761759D02*
Y753425D01*
Y761759D02*
X357718Y753425D01*
Y761759D02*
Y753425D01*
X361759Y758981D02*
X361181Y758584D01*
X361181D02*
X360604Y757790D01*
X360604D02*
X360315Y756600D01*
X360315D02*
Y755806D01*
X360315D02*
X360604Y754615D01*
X360604D02*
X361181Y753821D01*
X361181D02*
X361759Y753425D01*
X362625*
X363202Y753821*
X363202D02*
X363779Y754615D01*
X363779D02*
X364068Y755806D01*
Y756600*
X363779Y757790*
X363779D02*
X363202Y758584D01*
X362625Y758981*
X361759*
X366954Y754218D02*
X366665Y753821D01*
X366665D02*
X366954Y753425D01*
X366954D02*
X367243Y753821D01*
X367243D02*
X366954Y754218D01*
X327700Y721754D02*
Y713420D01*
Y721754D02*
X329720D01*
X330586Y721357*
X330586D02*
X331163Y720563D01*
X331163D02*
X331452Y719770D01*
X331740Y718579*
X331740D02*
Y716595D01*
X331740D02*
X331452Y715404D01*
X331163Y714610*
X331163D02*
X330586Y713816D01*
X330586D02*
X329720Y713420D01*
X327700*
X334338Y721754D02*
Y713420D01*
Y721754D02*
X338090D01*
X334338Y717785D02*
X336647D01*
X334338Y713420D02*
X338090D01*
X344729Y720563D02*
X344152Y721357D01*
X344152D02*
X343286Y721754D01*
X342131*
X342131D02*
X341265Y721357D01*
X341265D02*
X340688Y720563D01*
X340688D02*
Y719770D01*
X340688D02*
X340977Y718976D01*
X341265Y718579*
X341265D02*
X341843Y718182D01*
X341843D02*
X343575Y717388D01*
X343575D02*
X344152Y716991D01*
X344152D02*
X344440Y716595D01*
X344440D02*
X344729Y715801D01*
X344729D02*
Y714610D01*
X344729D02*
X344152Y713816D01*
X344152D02*
X343286Y713420D01*
X342131*
X342131D02*
X341265Y713816D01*
X341265D02*
X340688Y714610D01*
X347327Y721754D02*
Y713420D01*
X354254Y719770D02*
X353965Y720563D01*
X353965D02*
X353388Y721357D01*
X353388D02*
X352811Y721754D01*
X351656*
X351656D02*
X351079Y721357D01*
X351079D02*
X350502Y720563D01*
X350502D02*
X350213Y719770D01*
X350213D02*
X349925Y718579D01*
Y716595*
X350213Y715404*
X350213D02*
X350502Y714610D01*
X350502D02*
X351079Y713816D01*
X351079D02*
X351656Y713420D01*
X351656D02*
X352811D01*
X353388Y713816*
X353388D02*
X353965Y714610D01*
X353965D02*
X354254Y715404D01*
X354254D02*
Y716595D01*
X352811D02*
X354254D01*
X356852Y721754D02*
Y713420D01*
Y721754D02*
X360893Y713420D01*
Y721754D02*
Y713420D01*
X363490Y721754D02*
Y713420D01*
Y721754D02*
X367243D01*
X363490Y717785D02*
X365800D01*
X363490Y713420D02*
X367243D01*
X369840Y721754D02*
Y713420D01*
Y721754D02*
X371861D01*
X372727Y721357*
X372727D02*
X373304Y720563D01*
X373304D02*
X373593Y719770D01*
X373881Y718579*
X373881D02*
Y716595D01*
X373881D02*
X373593Y715404D01*
X373304Y714610*
X373304D02*
X372727Y713816D01*
X372727D02*
X371861Y713420D01*
X369840*
X327700Y704609D02*
Y696275D01*
Y704609D02*
X330297D01*
X330297D02*
X331163Y704212D01*
X331163D02*
X331452Y703815D01*
X331452D02*
X331740Y703021D01*
X331740D02*
Y702228D01*
X331740D02*
X331452Y701434D01*
X331163Y701037*
X331163D02*
X330297Y700640D01*
X327700D02*
X330297D01*
X330297D02*
X331163Y700243D01*
X331163D02*
X331452Y699846D01*
X331452D02*
X331740Y699053D01*
X331740D02*
Y697862D01*
X331740D02*
X331452Y697068D01*
X331452D02*
X331163Y696671D01*
X331163D02*
X330297Y696275D01*
X330297D02*
X327700D01*
X334338Y704609D02*
X336647Y700640D01*
X336647D02*
Y696275D01*
X338956Y704609D02*
X336647Y700640D01*
X327700Y679209D02*
Y670875D01*
Y679209D02*
X329720D01*
X330586Y678812*
X330586D02*
X331163Y678018D01*
X331163D02*
X331452Y677225D01*
X331740Y676034*
X331740D02*
Y674050D01*
X331740D02*
X331452Y672859D01*
X331163Y672065*
X331163D02*
X330586Y671271D01*
X330586D02*
X329720Y670875D01*
X327700*
X336647Y679209D02*
X334338Y670875D01*
X336647Y679209D02*
X338956Y670875D01*
X335204Y673653D02*
X338090D01*
X343575Y679209D02*
Y670875D01*
X341554Y679209D02*
X345595D01*
X348193D02*
Y670875D01*
Y679209D02*
X351945D01*
X348193Y675240D02*
X350502D01*
X348193Y670875D02*
X351945D01*
X492800Y761759D02*
Y753425D01*
Y761759D02*
X495397D01*
X495397D02*
X496263Y761362D01*
X496263D02*
X496552Y760965D01*
X496552D02*
X496840Y760171D01*
X496840D02*
Y759378D01*
X496840D02*
X496552Y758584D01*
X496263Y758187*
X496263D02*
X495397Y757790D01*
X492800D02*
X495397D01*
X495397D02*
X496263Y757393D01*
X496263D02*
X496552Y756996D01*
X496552D02*
X496840Y756203D01*
X496840D02*
Y755012D01*
X496840D02*
X496552Y754218D01*
X496552D02*
X496263Y753821D01*
X496263D02*
X495397Y753425D01*
X495397D02*
X492800D01*
X501170Y761759D02*
X500593Y761362D01*
X500593D02*
X500015Y760568D01*
X500015D02*
X499727Y759775D01*
X499438Y758584*
X499438D02*
Y756600D01*
X499438D02*
X499727Y755409D01*
X500015Y754615*
X500015D02*
X500593Y753821D01*
X500593D02*
X501170Y753425D01*
X502325*
X502902Y753821*
X502902D02*
X503479Y754615D01*
X503479D02*
X503768Y755409D01*
X504056Y756600*
X504056D02*
Y758584D01*
X504056D02*
X503768Y759775D01*
X503479Y760568*
X503479D02*
X502902Y761362D01*
X502902D02*
X502325Y761759D01*
X501170*
X508963D02*
X506654Y753425D01*
X508963Y761759D02*
X511272Y753425D01*
X507520Y756203D02*
X510406D01*
X513870Y761759D02*
Y753425D01*
Y761759D02*
X516468D01*
X517334Y761362*
X517334D02*
X517622Y760965D01*
X517622D02*
X517911Y760171D01*
X517911D02*
Y759378D01*
X517622Y758584*
X517622D02*
X517334Y758187D01*
X517334D02*
X516468Y757790D01*
X516468D02*
X513870D01*
X515890D02*
X517911Y753425D01*
X520509Y761759D02*
Y753425D01*
Y761759D02*
X522529D01*
X522529D02*
X523395Y761362D01*
X523395D02*
X523972Y760568D01*
X523972D02*
X524261Y759775D01*
X524550Y758584*
Y756600*
X524261Y755409*
X523972Y754615*
X523972D02*
X523395Y753821D01*
X523395D02*
X522529Y753425D01*
X522529D02*
X520509D01*
X533786Y761759D02*
Y753425D01*
Y761759D02*
X537827Y753425D01*
Y761759D02*
Y753425D01*
X542734Y761759D02*
X540425Y753425D01*
X542734Y761759D02*
X545043Y753425D01*
X541290Y756203D02*
X544177D01*
X547640Y761759D02*
Y753425D01*
Y761759D02*
X549950Y753425D01*
X552259Y761759D02*
X549950Y753425D01*
X552259Y761759D02*
Y753425D01*
X554856Y761759D02*
Y753425D01*
Y761759D02*
X558609D01*
X554856Y757790D02*
X557165D01*
X554856Y753425D02*
X558609D01*
X492800Y679209D02*
Y670875D01*
Y679209D02*
X494820D01*
X495686Y678812*
X495686D02*
X496263Y678018D01*
X496263D02*
X496552Y677225D01*
X496840Y676034*
X496840D02*
Y674050D01*
X496840D02*
X496552Y672859D01*
X496263Y672065*
X496263D02*
X495686Y671271D01*
X495686D02*
X494820Y670875D01*
X492800*
X499438Y679209D02*
Y670875D01*
Y679209D02*
X503190D01*
X499438Y675240D02*
X501747D01*
X499438Y670875D02*
X503190D01*
X509829Y678018D02*
X509252Y678812D01*
X509252D02*
X508386Y679209D01*
X507231*
X507231D02*
X506365Y678812D01*
X506365D02*
X505788Y678018D01*
X505788D02*
Y677225D01*
X505788D02*
X506077Y676431D01*
X506365Y676034*
X506365D02*
X506943Y675637D01*
X506943D02*
X508675Y674843D01*
X508675D02*
X509252Y674446D01*
X509252D02*
X509540Y674050D01*
X509540D02*
X509829Y673256D01*
X509829D02*
Y672065D01*
X509829D02*
X509252Y671271D01*
X509252D02*
X508386Y670875D01*
X507231*
X507231D02*
X506365Y671271D01*
X506365D02*
X505788Y672065D01*
X516756Y677225D02*
X516468Y678018D01*
X516468D02*
X515890Y678812D01*
X515890D02*
X515313Y679209D01*
X515313D02*
X514159D01*
X513581Y678812*
X513581D02*
X513004Y678018D01*
X513004D02*
X512715Y677225D01*
X512715D02*
X512427Y676034D01*
Y674050*
X512715Y672859*
X512715D02*
X513004Y672065D01*
X513004D02*
X513581Y671271D01*
X513581D02*
X514159Y670875D01*
X515313*
X515313D02*
X515890Y671271D01*
X515890D02*
X516468Y672065D01*
X516468D02*
X516756Y672859D01*
X891204Y758901D02*
Y750567D01*
Y758901D02*
X893802D01*
X893802D02*
X894668Y758505D01*
X894957Y758108*
X895245Y757314*
X895245D02*
Y756520D01*
X895245D02*
X894957Y755726D01*
X894957D02*
X894668Y755330D01*
X893802Y754933*
X891204*
X893225D02*
X895245Y750567D01*
X897843Y758901D02*
Y750567D01*
Y758901D02*
X901595D01*
X897843Y754933D02*
X900152D01*
X897843Y750567D02*
X901595D01*
X904193Y758901D02*
X906502Y750567D01*
X908811Y758901D02*
X906502Y750567D01*
X916604Y760489D02*
X911409Y747789D01*
X919202Y758901D02*
Y750567D01*
X925841Y757711D02*
X925263Y758505D01*
X925263D02*
X924397Y758901D01*
X924397D02*
X923243D01*
X923243D02*
X922377Y758505D01*
X921800Y757711*
Y756917*
X921800D02*
X922088Y756123D01*
X922088D02*
X922377Y755726D01*
X922377D02*
X922954Y755330D01*
X922954D02*
X924686Y754536D01*
X924686D02*
X925263Y754139D01*
X925263D02*
X925552Y753742D01*
X925552D02*
X925841Y752948D01*
X925841D02*
Y751758D01*
X925263Y750964*
X925263D02*
X924397Y750567D01*
X924397D02*
X923243D01*
X923243D02*
X922377Y750964D01*
X921800Y751758*
X932479Y757711D02*
X931902Y758505D01*
X931036Y758901*
X931036D02*
X929882D01*
X929882D02*
X929016Y758505D01*
X928438Y757711*
X928438D02*
Y756917D01*
X928438D02*
X928727Y756123D01*
X928727D02*
X929016Y755726D01*
X929016D02*
X929593Y755330D01*
X931325Y754536*
X931902Y754139*
X932191Y753742*
X932191D02*
X932479Y752948D01*
X932479D02*
Y751758D01*
X932479D02*
X931902Y750964D01*
X931036Y750567*
X931036D02*
X929882D01*
X929882D02*
X929016Y750964D01*
X928438Y751758*
X327700Y638331D02*
X328854Y632775D01*
X330009Y638331D02*
X328854Y632775D01*
X330009Y638331D02*
X331163Y632775D01*
X332318Y638331D02*
X331163Y632775D01*
X334915Y638331D02*
X336070Y632775D01*
X337225Y638331D02*
X336070Y632775D01*
X337225Y638331D02*
X338379Y632775D01*
X339534Y638331D02*
X338379Y632775D01*
X342131Y638331D02*
X343286Y632775D01*
X344440Y638331D02*
X343286Y632775D01*
X344440Y638331D02*
X345595Y632775D01*
X346750Y638331D02*
X345595Y632775D01*
X349636Y633568D02*
X349347Y633171D01*
X349347D02*
X349636Y632775D01*
X349925Y633171*
X349925D02*
X349636Y633568D01*
X355986Y637140D02*
X355409Y637934D01*
X354831Y638331*
X354831D02*
X353965D01*
X353965D02*
X353388Y637934D01*
X353388D02*
X352811Y637140D01*
X352811D02*
X352522Y635950D01*
X352522D02*
Y635156D01*
X352522D02*
X352811Y633965D01*
X352811D02*
X353388Y633171D01*
X353388D02*
X353965Y632775D01*
X353965D02*
X354831D01*
X354831D02*
X355409Y633171D01*
X355409D02*
X355986Y633965D01*
X362047Y638331D02*
Y632775D01*
Y637140D02*
X361470Y637934D01*
X360893Y638331*
X360027*
X359450Y637934*
X358872Y637140*
X358872D02*
X358584Y635950D01*
Y635156*
X358872Y633965*
X358872D02*
X359450Y633171D01*
X359450D02*
X360027Y632775D01*
X360893*
X361470Y633171*
X361470D02*
X362047Y633965D01*
X368109Y641109D02*
Y632775D01*
Y637140D02*
X367531Y637934D01*
X367531D02*
X366954Y638331D01*
X366954D02*
X366088D01*
X366088D02*
X365511Y637934D01*
X364934Y637140*
X364934D02*
X364645Y635950D01*
Y635156*
X364934Y633965*
X364934D02*
X365511Y633171D01*
X365511D02*
X366088Y632775D01*
X366088D02*
X366954D01*
X366954D02*
X367531Y633171D01*
X367531D02*
X368109Y633965D01*
X370706Y635950D02*
X374170D01*
Y636743*
X374170D02*
X373881Y637537D01*
X373881D02*
X373593Y637934D01*
X373015Y638331*
X373015D02*
X372150D01*
X371572Y637934*
X371572D02*
X370995Y637140D01*
X370995D02*
X370706Y635950D01*
X370706D02*
Y635156D01*
X370706D02*
X370995Y633965D01*
X370995D02*
X371572Y633171D01*
X371572D02*
X372150Y632775D01*
X373015*
X373015D02*
X373593Y633171D01*
X373593D02*
X374170Y633965D01*
X376768Y638331D02*
Y632775D01*
Y636743D02*
X377634Y637934D01*
X378211Y638331*
X379077*
X379654Y637934*
X379654D02*
X379943Y636743D01*
X379943D02*
Y632775D01*
X382540Y635950D02*
X386004D01*
X386004D02*
Y636743D01*
X386004D02*
X385715Y637537D01*
X385715D02*
X385427Y637934D01*
X384850Y638331*
X383984*
X383406Y637934*
X383406D02*
X382829Y637140D01*
X382829D02*
X382540Y635950D01*
X382540D02*
Y635156D01*
X382540D02*
X382829Y633965D01*
X382829D02*
X383406Y633171D01*
X383406D02*
X383984Y632775D01*
X384850*
X385427Y633171*
X385427D02*
X386004Y633965D01*
X388602Y638331D02*
Y632775D01*
Y635950D02*
X388890Y637140D01*
X388890D02*
X389468Y637934D01*
X390045Y638331*
X390911*
X396972D02*
Y631981D01*
X396972D02*
X396684Y630790D01*
X396684D02*
X396395Y630393D01*
X396395D02*
X395818Y629996D01*
X395818D02*
X394952D01*
X394952D02*
X394375Y630393D01*
X396972Y637140D02*
X396395Y637934D01*
X395818Y638331*
X394952*
X394375Y637934*
X393797Y637140*
X393797D02*
X393509Y635950D01*
Y635156*
X393797Y633965*
X393797D02*
X394375Y633171D01*
X394375D02*
X394952Y632775D01*
X395818*
X396395Y633171*
X396395D02*
X396972Y633965D01*
X399859Y638331D02*
X401590Y632775D01*
X403322Y638331D02*
X401590Y632775D01*
X401590D02*
X401013Y631187D01*
X401013D02*
X400436Y630393D01*
X400436D02*
X399859Y629996D01*
X399859D02*
X399570D01*
X406209Y633568D02*
X405920Y633171D01*
X405920D02*
X406209Y632775D01*
X406497Y633171*
X406497D02*
X406209Y633568D01*
X412559Y637140D02*
X411981Y637934D01*
X411981D02*
X411404Y638331D01*
X411404D02*
X410538D01*
X410538D02*
X409961Y637934D01*
X409384Y637140*
X409384D02*
X409095Y635950D01*
Y635156*
X409384Y633965*
X409384D02*
X409961Y633171D01*
X409961D02*
X410538Y632775D01*
X410538D02*
X411404D01*
X411404D02*
X411981Y633171D01*
X411981D02*
X412559Y633965D01*
X416600Y638331D02*
X416022Y637934D01*
X416022D02*
X415445Y637140D01*
X415445D02*
X415156Y635950D01*
X415156D02*
Y635156D01*
X415156D02*
X415445Y633965D01*
X415445D02*
X416022Y633171D01*
X416022D02*
X416600Y632775D01*
X417465*
X417465D02*
X418043Y633171D01*
X418043D02*
X418620Y633965D01*
X418620D02*
X418909Y635156D01*
Y635950*
X418620Y637140*
X418620D02*
X418043Y637934D01*
X417465Y638331*
X417465D02*
X416600D01*
X421506D02*
Y632775D01*
Y636743D02*
X422372Y637934D01*
X422372D02*
X422950Y638331D01*
X423815*
X423815D02*
X424393Y637934D01*
X424681Y636743*
X424681D02*
Y632775D01*
Y636743D02*
X425547Y637934D01*
X425547D02*
X426125Y638331D01*
X426990*
X426990D02*
X427568Y637934D01*
X427856Y636743*
X427856D02*
Y632775D01*
G54D23*
G54D80*
X577625Y451844D02*
X575844Y453625D01*
X575844D02*
X564155D01*
X562375Y451844*
X562375D02*
Y448155D01*
X564155Y446375*
X575844*
X575844D02*
X577625Y448155D01*
Y451844*
X563000Y447530D02*
Y452469D01*
X564000Y446530D02*
Y453469D01*
X565000Y446375D02*
Y453625D01*
X566000Y446375D02*
Y453625D01*
X567000Y446375D02*
Y453625D01*
X568000Y446375D02*
Y453625D01*
X569000Y446375D02*
Y453625D01*
X570000Y446375D02*
Y453625D01*
X571000Y446375D02*
Y453625D01*
X572000Y446375D02*
Y453625D01*
X573000Y446375D02*
Y453625D01*
X574000Y446375D02*
Y453625D01*
X575000Y446375D02*
Y453625D01*
X576000Y446530D02*
Y453469D01*
X577000Y447530D02*
Y452469D01*
X577625Y466844D02*
X575844Y468625D01*
X575844D02*
X564155D01*
X562375Y466844*
X562375D02*
Y463155D01*
X564155Y461375*
X575844*
X575844D02*
X577625Y463155D01*
Y466844*
X563000Y462530D02*
Y467469D01*
X564000Y461530D02*
Y468469D01*
X565000Y461375D02*
Y468625D01*
X566000Y461375D02*
Y468625D01*
X567000Y461375D02*
Y468625D01*
X568000Y461375D02*
Y468625D01*
X569000Y461375D02*
Y468625D01*
X570000Y461375D02*
Y468625D01*
X571000Y461375D02*
Y468625D01*
X572000Y461375D02*
Y468625D01*
X573000Y461375D02*
Y468625D01*
X574000Y461375D02*
Y468625D01*
X575000Y461375D02*
Y468625D01*
X576000Y461530D02*
Y468469D01*
X577000Y462530D02*
Y467469D01*
X577625Y481844D02*
X575844Y483625D01*
X575844D02*
X564155D01*
X562375Y481844*
X562375D02*
Y478155D01*
X564155Y476375*
X575844*
X575844D02*
X577625Y478155D01*
Y481844*
X563000Y477530D02*
Y482469D01*
X564000Y476530D02*
Y483469D01*
X565000Y476375D02*
Y483625D01*
X566000Y476375D02*
Y483625D01*
X567000Y476375D02*
Y483625D01*
X568000Y476375D02*
Y483625D01*
X569000Y476375D02*
Y483625D01*
X570000Y476375D02*
Y483625D01*
X571000Y476375D02*
Y483625D01*
X572000Y476375D02*
Y483625D01*
X573000Y476375D02*
Y483625D01*
X574000Y476375D02*
Y483625D01*
X575000Y476375D02*
Y483625D01*
X576000Y476530D02*
Y483469D01*
X577000Y477530D02*
Y482469D01*
X577625Y496844D02*
X575844Y498625D01*
X575844D02*
X564155D01*
X562375Y496844*
X562375D02*
Y493155D01*
X564155Y491375*
X575844*
X575844D02*
X577625Y493155D01*
Y496844*
X563000Y492530D02*
Y497469D01*
X564000Y491530D02*
Y498469D01*
X565000Y491375D02*
Y498625D01*
X566000Y491375D02*
Y498625D01*
X567000Y491375D02*
Y498625D01*
X568000Y491375D02*
Y498625D01*
X569000Y491375D02*
Y498625D01*
X570000Y491375D02*
Y498625D01*
X571000Y491375D02*
Y498625D01*
X572000Y491375D02*
Y498625D01*
X573000Y491375D02*
Y498625D01*
X574000Y491375D02*
Y498625D01*
X575000Y491375D02*
Y498625D01*
X576000Y491530D02*
Y498469D01*
X577000Y492530D02*
Y497469D01*
X577625Y511844D02*
X575844Y513625D01*
X575844D02*
X564155D01*
X562375Y511844*
X562375D02*
Y508155D01*
X564155Y506375*
X575844*
X575844D02*
X577625Y508155D01*
Y511844*
X563000Y507530D02*
Y512469D01*
X564000Y506530D02*
Y513469D01*
X565000Y506375D02*
Y513625D01*
X566000Y506375D02*
Y513625D01*
X567000Y506375D02*
Y513625D01*
X568000Y506375D02*
Y513625D01*
X569000Y506375D02*
Y513625D01*
X570000Y506375D02*
Y513625D01*
X571000Y506375D02*
Y513625D01*
X572000Y506375D02*
Y513625D01*
X573000Y506375D02*
Y513625D01*
X574000Y506375D02*
Y513625D01*
X575000Y506375D02*
Y513625D01*
X576000Y506530D02*
Y513469D01*
X577000Y507530D02*
Y512469D01*
X577625Y526844D02*
X575844Y528625D01*
X575844D02*
X564155D01*
X562375Y526844*
X562375D02*
Y523155D01*
X564155Y521375*
X575844*
X575844D02*
X577625Y523155D01*
Y526844*
X563000Y522530D02*
Y527469D01*
X564000Y521530D02*
Y528469D01*
X565000Y521375D02*
Y528625D01*
X566000Y521375D02*
Y528625D01*
X567000Y521375D02*
Y528625D01*
X568000Y521375D02*
Y528625D01*
X569000Y521375D02*
Y528625D01*
X570000Y521375D02*
Y528625D01*
X571000Y521375D02*
Y528625D01*
X572000Y521375D02*
Y528625D01*
X573000Y521375D02*
Y528625D01*
X574000Y521375D02*
Y528625D01*
X575000Y521375D02*
Y528625D01*
X576000Y521530D02*
Y528469D01*
X577000Y522530D02*
Y527469D01*
X577625Y541844D02*
X575844Y543625D01*
X575844D02*
X564155D01*
X562375Y541844*
X562375D02*
Y538155D01*
X564155Y536375*
X575844*
X575844D02*
X577625Y538155D01*
Y541844*
X563000Y537530D02*
Y542469D01*
X564000Y536530D02*
Y543469D01*
X565000Y536375D02*
Y543625D01*
X566000Y536375D02*
Y543625D01*
X567000Y536375D02*
Y543625D01*
X568000Y536375D02*
Y543625D01*
X569000Y536375D02*
Y543625D01*
X570000Y536375D02*
Y543625D01*
X571000Y536375D02*
Y543625D01*
X572000Y536375D02*
Y543625D01*
X573000Y536375D02*
Y543625D01*
X574000Y536375D02*
Y543625D01*
X575000Y536375D02*
Y543625D01*
X576000Y536530D02*
Y543469D01*
X577000Y537530D02*
Y542469D01*
X577625Y556844D02*
X575844Y558625D01*
X575844D02*
X564155D01*
X562375Y556844*
X562375D02*
Y553155D01*
X564155Y551375*
X575844*
X575844D02*
X577625Y553155D01*
Y556844*
X563000Y552530D02*
Y557469D01*
X564000Y551530D02*
Y558469D01*
X565000Y551375D02*
Y558625D01*
X566000Y551375D02*
Y558625D01*
X567000Y551375D02*
Y558625D01*
X568000Y551375D02*
Y558625D01*
X569000Y551375D02*
Y558625D01*
X570000Y551375D02*
Y558625D01*
X571000Y551375D02*
Y558625D01*
X572000Y551375D02*
Y558625D01*
X573000Y551375D02*
Y558625D01*
X574000Y551375D02*
Y558625D01*
X575000Y551375D02*
Y558625D01*
X576000Y551530D02*
Y558469D01*
X577000Y552530D02*
Y557469D01*
G54D81*
X315000Y430000D02*
X580000D01*
Y570000*
X315000*
Y430000*
G54D88*
X424880Y476230D02*
Y478770D01*
X440120Y476230D02*
Y478770D01*
X395120D02*
Y476230D01*
X379880Y478770D02*
Y476230D01*
X378730Y555120D02*
X381270D01*
X378730Y539880D02*
X381270D01*
X376270Y444880D02*
X373730D01*
X376270Y460120D02*
X373730D01*
G54D89*
X516000Y484000D03*
Y492000D03*
Y500000D03*
Y508000D03*
Y516000D03*
X524000D03*
X532000D03*
Y508000D03*
Y500000D03*
Y492000D03*
Y484000D03*
X524000D03*
X401250Y500000D02*
X400250D01*
X401250Y510000D02*
X400250D01*
X411500Y500000D02*
X410500D01*
X411500Y510000D02*
X410500D01*
X421750Y500000D02*
X420750D01*
X421750Y510000D02*
X420750D01*
X432000Y500000D02*
X431000D01*
X432000Y510000D02*
X431000D01*
X442250Y500000D02*
X441250D01*
X442250Y510000D02*
X441250D01*
X452500Y500000D02*
X451500D01*
X452500Y510000D02*
X451500D01*
X377000D02*
X378000D01*
X377000Y500000D02*
X378000D01*
G54D90*
X445000Y450000D03*
X330000Y449200D03*
G54D91*
X566000Y450000D02*
X574000D01*
X566000Y465000D02*
X574000D01*
X566000Y480000D02*
X574000D01*
X566000Y495000D02*
X574000D01*
X566000Y510000D02*
X574000D01*
X566000Y525000D02*
X574000D01*
X566000Y540000D02*
X574000D01*
X566000Y555000D02*
X574000D01*
G54D92*
X396500Y462000D02*
X399500D01*
X396500Y452500D02*
X399500D01*
X396500Y443000D02*
X399500D01*
X420500D02*
X423500D01*
X420500Y462000D02*
X423500D01*
G54D93*
X355400Y449200D03*
X330000Y474600D03*
X355400D03*
X330000Y500000D03*
X355400D03*
X330000Y525400D03*
X355400D03*
X330000Y550800D03*
X355400D03*
G54D94*
X474000Y564000D03*
Y548000D03*
Y532000D03*
Y516000D03*
Y500000D03*
Y484000D03*
Y468000D03*
Y452000D03*
Y436000D03*
G74*
X0Y0D02*
M02*
