*
*
G04 PADS Layout (Build Number 2007.21.1) generated Gerber (RS-274-X) file*
G04 PC Version=2.1*
*
%IN "J5050.pcb"*%
*
%MOMM*%
*
%FSLAX44Y44*%
*
*
*
*
G04 PC Standard Apertures*
*
*
G04 Thermal Relief Aperture macro.*
%AMTER*
1,1,$1,0,0*
1,0,$1-$2,0,0*
21,0,$3,$4,0,0,45*
21,0,$3,$4,0,0,135*
%
*
*
G04 Annular Aperture macro.*
%AMANN*
1,1,$1,0,0*
1,0,$2,0,0*
%
*
*
G04 Odd Aperture macro.*
%AMODD*
1,1,$1,0,0*
1,0,$1-0.005,0,0*
%
*
*
G04 PC Custom Aperture Macros*
*
*
*
*
*
*
G04 PC Aperture Table*
*
%ADD010C,0.254*%
%ADD011C,0.2032*%
%ADD012C,0.0508*%
%ADD013C,0.127*%
%ADD023C,0.0254*%
%ADD029C,0.1524*%
%ADD081C,0.15*%
*
*
*
*
G04 PC Circuitry*
G04 Layer Name J5050.pcb - circuitry*
%LPD*%
*
*
G04 PC Custom Flashes*
G04 Layer Name J5050.pcb - flashes*
%LPD*%
*
*
G04 PC Circuitry*
G04 Layer Name J5050.pcb - circuitry*
%LPD*%
*
G54D10*
G01X314760Y433960D02*
Y566040D01*
X370640*
Y433960*
X314760*
Y439040D02*
X304600Y449200D01*
X314760Y459360*
Y440310*
X305870Y449200*
X313490Y456820*
Y442850*
X307140Y449200*
X312220Y454280*
Y445390*
X308410Y449200*
X310950Y451740*
Y447930*
X309680Y449200*
X310950Y450470*
X315000Y655000D02*
G75*
G03X324525Y645475I9525J0D01*
G01X940475*
G03X950000Y655000I0J9525*
G01Y762950*
G03X940475Y772475I-9525J0*
G01X543600*
X534075Y782000D02*
G03X543600Y772475I9525J0D01*
G01X534075Y782000D02*
Y801050D01*
G03X524550Y810575I-9525J0*
G01X324525*
G03X315000Y801050I0J-9525*
G01Y655000*
G54D11*
X880150Y699450D02*
G03X886500Y693100I6350J0D01*
G01X937300*
G03X943650Y699450I0J6350*
G01Y759775*
G03X937300Y766125I-6350J0*
G01X886500*
G03X880150Y759775I0J-6350*
G01Y699450*
X486450Y658175D02*
G03X492800Y651825I6350J0D01*
G01X937300*
G03X943650Y658175I0J6350*
G01Y677225*
G03X937300Y683575I-6350J0*
G01X492800*
G03X486450Y677225I0J-6350*
G01Y658175*
X492800Y766125D02*
G03X486450Y759775I0J-6350D01*
G01X492800Y766125D02*
X867450D01*
X873800Y759775D02*
G03X867450Y766125I-6350J0D01*
G01X873800Y759775D02*
Y699450D01*
X867450Y693100D02*
G03X873800Y699450I0J6350D01*
G01X867450Y693100D02*
X492800D01*
X486450Y699450D02*
G03X492800Y693100I6350J0D01*
G01X486450Y699450D02*
Y759775D01*
X327700Y683575D02*
G03X321350Y677225I0J-6350D01*
G01X327700Y683575D02*
X473750D01*
X480100Y677225D02*
G03X473750Y683575I-6350J0D01*
G01X480100Y677225D02*
Y658175D01*
X473750Y651825D02*
G03X480100Y658175I0J6350D01*
G01X473750Y651825D02*
X327700D01*
X321350Y658175D02*
G03X327700Y651825I6350J0D01*
G01X321350Y658175D02*
Y677225D01*
X327700Y724850D02*
G03X321350Y718500I0J-6350D01*
G01X327700Y724850D02*
X473750D01*
X480100Y718500D02*
G03X473750Y724850I-6350J0D01*
G01X480100Y718500D02*
Y699450D01*
X473750Y693100D02*
G03X480100Y699450I0J6350D01*
G01X473750Y693100D02*
X327700D01*
X321350Y699450D02*
G03X327700Y693100I6350J0D01*
G01X321350Y699450D02*
Y718500D01*
X480100Y759775D02*
G03X473750Y766125I-6350J0D01*
G01X327700*
G03X321350Y759775I0J-6350*
G01Y740725*
G03X327700Y734375I6350J0*
G01X473750*
G03X480100Y740725I0J6350*
G01Y759775*
X398553Y758266D02*
Y745566D01*
X398553D02*
X397976Y743185D01*
X397976D02*
X397398Y742391D01*
X397398D02*
X396244Y741598D01*
X395089*
X395089D02*
X393935Y742391D01*
X393935D02*
X393357Y743185D01*
X393357D02*
X392780Y745566D01*
X392780D02*
Y747154D01*
X411253Y758266D02*
X405480D01*
X405480D02*
X404903Y751123D01*
X405480Y751916*
X405480D02*
X407212Y752710D01*
X407212D02*
X408944D01*
X408944D02*
X410676Y751916D01*
X410676D02*
X411830Y750329D01*
X411830D02*
X412407Y747948D01*
X412407D02*
X411830Y746360D01*
X411830D02*
X411253Y743979D01*
X410098Y742391*
X410098D02*
X408366Y741598D01*
X408366D02*
X406635D01*
X404903Y742391*
X404903D02*
X404326Y743185D01*
X404326D02*
X403748Y744773D01*
X421066Y758266D02*
X419335Y757473D01*
X418180Y755091*
X418180D02*
X417603Y751123D01*
Y748741*
X417603D02*
X418180Y744773D01*
X418180D02*
X419335Y742391D01*
X419335D02*
X421066Y741598D01*
X421066D02*
X422221D01*
X423953Y742391*
X423953D02*
X425107Y744773D01*
X425107D02*
X425685Y748741D01*
X425685D02*
Y751123D01*
X425107Y755091*
X425107D02*
X423953Y757473D01*
X422221Y758266*
X422221D02*
X421066D01*
X438385D02*
X432612D01*
X432612D02*
X432035Y751123D01*
X432612Y751916*
X432612D02*
X434344Y752710D01*
X434344D02*
X436076D01*
X436076D02*
X437807Y751916D01*
X437807D02*
X438962Y750329D01*
X439539Y747948*
X439539D02*
X438962Y746360D01*
X438962D02*
X438385Y743979D01*
X437230Y742391*
X437230D02*
X435498Y741598D01*
X435498D02*
X433766D01*
X433766D02*
X432035Y742391D01*
X432035D02*
X431457Y743185D01*
X431457D02*
X430880Y744773D01*
X448198Y758266D02*
X446466Y757473D01*
X446466D02*
X445312Y755091D01*
X445312D02*
X444735Y751123D01*
Y748741*
X444735D02*
X445312Y744773D01*
X446466Y742391*
X446466D02*
X448198Y741598D01*
X448198D02*
X449353D01*
X451085Y742391*
X451085D02*
X452239Y744773D01*
X452239D02*
X452816Y748741D01*
X452816D02*
Y751123D01*
X452816D02*
X452239Y755091D01*
X452239D02*
X451085Y757473D01*
X449353Y758266*
X449353D02*
X448198D01*
X422801Y713658D02*
X422223Y715245D01*
X422223D02*
X421069Y716833D01*
X419914Y717626*
X419914D02*
X417605D01*
X417605D02*
X416451Y716833D01*
X415296Y715245*
X415296D02*
X414719Y713658D01*
X414142Y711276*
X414142D02*
Y707308D01*
X414719Y704926*
X414719D02*
X415296Y703339D01*
X415296D02*
X416451Y701751D01*
X416451D02*
X417605Y700958D01*
X417605D02*
X419914D01*
X419914D02*
X421069Y701751D01*
X421069D02*
X422223Y703339D01*
X422223D02*
X422801Y704926D01*
X422801D02*
Y707308D01*
X419914D02*
X422801D01*
X427996Y717626D02*
Y700958D01*
Y717626D02*
X433192D01*
X433192D02*
X434923Y716833D01*
X434923D02*
X435501Y716039D01*
X436078Y714451*
X436078D02*
Y712864D01*
X435501Y711276*
X435501D02*
X434923Y710483D01*
X434923D02*
X433192Y709689D01*
X427996D02*
X433192D01*
X434923Y708895*
X434923D02*
X435501Y708101D01*
X435501D02*
X436078Y706514D01*
Y704133*
X435501Y702545*
X435501D02*
X434923Y701751D01*
X434923D02*
X433192Y700958D01*
X427996*
X384989Y675716D02*
X383257Y674923D01*
X383257D02*
X382103Y672541D01*
X382103D02*
X381525Y668573D01*
X381525D02*
Y666191D01*
X381525D02*
X382103Y662223D01*
X383257Y659841*
X383257D02*
X384989Y659048D01*
X386144*
X387875Y659841*
X387875D02*
X389030Y662223D01*
X389607Y666191*
X389607D02*
Y668573D01*
X389607D02*
X389030Y672541D01*
X389030D02*
X387875Y674923D01*
X387875D02*
X386144Y675716D01*
X386144D02*
X384989D01*
X394803Y672541D02*
X395957Y673335D01*
X395957D02*
X397689Y675716D01*
X397689D02*
Y659048D01*
X402884Y666191D02*
X413275D01*
X419048Y671748D02*
Y672541D01*
X419048D02*
X419625Y674129D01*
X419625D02*
X420203Y674923D01*
X421357Y675716*
X421357D02*
X423666D01*
X423666D02*
X424821Y674923D01*
X425398Y674129*
X425398D02*
X425975Y672541D01*
X425975D02*
Y670954D01*
X425975D02*
X425398Y669366D01*
X425398D02*
X424244Y666985D01*
X424244D02*
X418471Y659048D01*
X426553*
X435212Y675716D02*
X433480Y674923D01*
X432325Y672541*
X432325D02*
X431748Y668573D01*
X431748D02*
Y666191D01*
X431748D02*
X432325Y662223D01*
X432325D02*
X433480Y659841D01*
X433480D02*
X435212Y659048D01*
X436366*
X436366D02*
X438098Y659841D01*
X438098D02*
X439253Y662223D01*
X439830Y666191*
X439830D02*
Y668573D01*
X439253Y672541*
X439253D02*
X438098Y674923D01*
X438098D02*
X436366Y675716D01*
X436366D02*
X435212D01*
X445025Y672541D02*
X446180Y673335D01*
X446180D02*
X447912Y675716D01*
X447912D02*
Y659048D01*
X460034Y673335D02*
X459457Y674923D01*
X459457D02*
X457725Y675716D01*
X457725D02*
X456571D01*
X456571D02*
X454839Y674923D01*
X453684Y672541*
X453684D02*
X453107Y668573D01*
X453107D02*
Y664604D01*
X453107D02*
X453684Y661429D01*
X453684D02*
X454839Y659841D01*
X454839D02*
X456571Y659048D01*
X457148*
X457148D02*
X458880Y659841D01*
X458880D02*
X460034Y661429D01*
X460034D02*
X460612Y663810D01*
X460612D02*
Y664604D01*
X460034Y666985*
X460034D02*
X458880Y668573D01*
X457148Y669366*
X457148D02*
X456571D01*
X456571D02*
X454839Y668573D01*
X453684Y666985*
X453684D02*
X453107Y664604D01*
X638988Y737946D02*
Y721278D01*
Y737946D02*
X644184D01*
X644184D02*
X645915Y737153D01*
X645915D02*
X646493Y736359D01*
X647070Y734771*
X647070D02*
Y732390D01*
X647070D02*
X646493Y730803D01*
X645915Y730009*
X645915D02*
X644184Y729215D01*
X644184D02*
X638988D01*
X660924Y733978D02*
X660347Y735565D01*
X660347D02*
X659193Y737153D01*
X658038Y737946*
X658038D02*
X655729D01*
X655729D02*
X654574Y737153D01*
X654574D02*
X653420Y735565D01*
X653420D02*
X652843Y733978D01*
X652265Y731596*
X652265D02*
Y727628D01*
X652265D02*
X652843Y725246D01*
X652843D02*
X653420Y723659D01*
X654574Y722071*
X654574D02*
X655729Y721278D01*
X658038*
X658038D02*
X659193Y722071D01*
X659193D02*
X660347Y723659D01*
X660347D02*
X660924Y725246D01*
X666120Y737946D02*
Y721278D01*
Y737946D02*
X671315D01*
X671315D02*
X673047Y737153D01*
X673047D02*
X673624Y736359D01*
X673624D02*
X674202Y734771D01*
X674202D02*
Y733184D01*
X673624Y731596*
X673624D02*
X673047Y730803D01*
X673047D02*
X671315Y730009D01*
X666120D02*
X671315D01*
X671315D02*
X673047Y729215D01*
X673047D02*
X673624Y728421D01*
X673624D02*
X674202Y726834D01*
Y724453*
X673624Y722865*
X673624D02*
X673047Y722071D01*
X673047D02*
X671315Y721278D01*
X671315D02*
X666120D01*
X679397Y734771D02*
X680552Y735565D01*
X680552D02*
X682284Y737946D01*
X682284D02*
Y721278D01*
X694984Y737946D02*
X689211D01*
X689211D02*
X688634Y730803D01*
X689211Y731596*
X689211D02*
X690943Y732390D01*
X690943D02*
X692674D01*
X692674D02*
X694406Y731596D01*
X694406D02*
X695561Y730009D01*
X696138Y727628*
X696138D02*
X695561Y726040D01*
X695561D02*
X694984Y723659D01*
X693829Y722071*
X693829D02*
X692097Y721278D01*
X692097D02*
X690365D01*
X690365D02*
X688634Y722071D01*
X688634D02*
X688056Y722865D01*
X688056D02*
X687479Y724453D01*
X707106Y737946D02*
X701334Y726834D01*
X709993*
X707106Y737946D02*
Y721278D01*
X718652Y737946D02*
X716920Y737153D01*
X715765Y734771*
X715765D02*
X715188Y730803D01*
X715188D02*
Y728421D01*
X715188D02*
X715765Y724453D01*
X715765D02*
X716920Y722071D01*
X716920D02*
X718652Y721278D01*
X719806*
X719806D02*
X721538Y722071D01*
X721538D02*
X722693Y724453D01*
X723270Y728421*
X723270D02*
Y730803D01*
X722693Y734771*
X722693D02*
X721538Y737153D01*
X721538D02*
X719806Y737946D01*
X719806D02*
X718652D01*
X909556Y735406D02*
Y718738D01*
Y735406D02*
X914751D01*
X914751D02*
X916483Y734613D01*
X916483D02*
X917060Y733819D01*
X917060D02*
X917638Y732231D01*
X917638D02*
Y730644D01*
X917060Y729056*
X917060D02*
X916483Y728263D01*
X916483D02*
X914751Y727469D01*
X909556D02*
X914751D01*
X914751D02*
X916483Y726675D01*
X916483D02*
X917060Y725881D01*
X917060D02*
X917638Y724294D01*
Y721913*
X917060Y720325*
X917060D02*
X916483Y719531D01*
X916483D02*
X914751Y718738D01*
X914751D02*
X909556D01*
X570350Y675716D02*
Y659048D01*
Y675716D02*
X575546D01*
X575546D02*
X577278Y674923D01*
X577855Y674129*
X578432Y672541*
X578432D02*
Y670954D01*
X578432D02*
X577855Y669366D01*
X577855D02*
X577278Y668573D01*
X575546Y667779*
X570350D02*
X575546D01*
X577278Y666985*
X577278D02*
X577855Y666191D01*
X577855D02*
X578432Y664604D01*
X578432D02*
Y662223D01*
X578432D02*
X577855Y660635D01*
X577855D02*
X577278Y659841D01*
X577278D02*
X575546Y659048D01*
X570350*
X587091Y675716D02*
X585937Y674923D01*
X584782Y673335*
X584782D02*
X584205Y671748D01*
X583628Y669366*
X583628D02*
Y665398D01*
X584205Y663016*
X584205D02*
X584782Y661429D01*
X584782D02*
X585937Y659841D01*
X585937D02*
X587091Y659048D01*
X587091D02*
X589400D01*
X589400D02*
X590555Y659841D01*
X590555D02*
X591709Y661429D01*
X591709D02*
X592287Y663016D01*
X592287D02*
X592864Y665398D01*
Y669366*
X592864D02*
X592287Y671748D01*
X591709Y673335*
X591709D02*
X590555Y674923D01*
X589400Y675716*
X589400D02*
X587091D01*
X602100D02*
Y659048D01*
X598059Y675716D02*
X606141D01*
X615378D02*
Y659048D01*
X611337Y675716D02*
X619419D01*
X628078D02*
X626923Y674923D01*
X626923D02*
X625769Y673335D01*
X625769D02*
X625191Y671748D01*
X625191D02*
X624614Y669366D01*
X624614D02*
Y665398D01*
X625191Y663016*
X625191D02*
X625769Y661429D01*
X626923Y659841*
X626923D02*
X628078Y659048D01*
X630387*
X631541Y659841*
X631541D02*
X632696Y661429D01*
X633273Y663016*
X633273D02*
X633850Y665398D01*
X633850D02*
Y669366D01*
X633850D02*
X633273Y671748D01*
X633273D02*
X632696Y673335D01*
X632696D02*
X631541Y674923D01*
X631541D02*
X630387Y675716D01*
X630387D02*
X628078D01*
X639046D02*
Y659048D01*
Y675716D02*
X643664Y659048D01*
X648282Y675716D02*
X643664Y659048D01*
X648282Y675716D02*
Y659048D01*
X674837Y673335D02*
X673682Y674923D01*
X673682D02*
X671950Y675716D01*
X671950D02*
X669641D01*
X669641D02*
X667909Y674923D01*
X667909D02*
X666755Y673335D01*
X666755D02*
Y671748D01*
X667332Y670160*
X667332D02*
X667909Y669366D01*
X667909D02*
X669064Y668573D01*
X672528Y666985*
X672528D02*
X673682Y666191D01*
X673682D02*
X674259Y665398D01*
X674259D02*
X674837Y663810D01*
X674837D02*
Y661429D01*
X673682Y659841*
X673682D02*
X671950Y659048D01*
X671950D02*
X669641D01*
X669641D02*
X667909Y659841D01*
X667909D02*
X666755Y661429D01*
X680032Y675716D02*
Y659048D01*
X685228Y675716D02*
Y659048D01*
X692155*
X697350Y675716D02*
Y659048D01*
X705432Y675716D02*
X697350Y664604D01*
X700237Y668573D02*
X705432Y659048D01*
X718709Y673335D02*
X717555Y674923D01*
X715823Y675716*
X715823D02*
X713514D01*
X713514D02*
X711782Y674923D01*
X711782D02*
X710628Y673335D01*
X710628D02*
Y671748D01*
X711205Y670160*
X711205D02*
X711782Y669366D01*
X711782D02*
X712937Y668573D01*
X716400Y666985*
X716400D02*
X717555Y666191D01*
X717555D02*
X718132Y665398D01*
X718132D02*
X718709Y663810D01*
X718709D02*
Y661429D01*
X718709D02*
X717555Y659841D01*
X717555D02*
X715823Y659048D01*
X715823D02*
X713514D01*
X711782Y659841*
X711782D02*
X710628Y661429D01*
X732564Y671748D02*
X731987Y673335D01*
X731987D02*
X730832Y674923D01*
X730832D02*
X729678Y675716D01*
X729678D02*
X727369D01*
X727369D02*
X726214Y674923D01*
X725059Y673335*
X725059D02*
X724482Y671748D01*
X724482D02*
X723905Y669366D01*
X723905D02*
Y665398D01*
X724482Y663016*
X724482D02*
X725059Y661429D01*
X725059D02*
X726214Y659841D01*
X726214D02*
X727369Y659048D01*
X729678*
X730832Y659841*
X730832D02*
X731987Y661429D01*
X732564Y663016*
X737759Y675716D02*
Y659048D01*
Y675716D02*
X742955D01*
X742955D02*
X744687Y674923D01*
X745264Y674129*
X745841Y672541*
X745841D02*
Y670954D01*
X745841D02*
X745264Y669366D01*
X745264D02*
X744687Y668573D01*
X742955Y667779*
X737759*
X741800D02*
X745841Y659048D01*
X751037Y675716D02*
Y659048D01*
Y675716D02*
X758541D01*
X751037Y667779D02*
X755655D01*
X751037Y659048D02*
X758541D01*
X763737Y675716D02*
Y659048D01*
Y675716D02*
X771241D01*
X763737Y667779D02*
X768355D01*
X763737Y659048D02*
X771241D01*
X776437Y675716D02*
Y659048D01*
Y675716D02*
X784519Y659048D01*
Y675716D02*
Y659048D01*
X802991Y675716D02*
Y659048D01*
X802991D02*
X809919D01*
X815114Y675716D02*
Y659048D01*
Y675716D02*
X822619D01*
X815114Y667779D02*
X819732D01*
X815114Y659048D02*
X822619D01*
X836473Y671748D02*
X835896Y673335D01*
X835896D02*
X834741Y674923D01*
X834741D02*
X833587Y675716D01*
X833587D02*
X831278D01*
X831278D02*
X830123Y674923D01*
X830123D02*
X828969Y673335D01*
X828969D02*
X828391Y671748D01*
X828391D02*
X827814Y669366D01*
X827814D02*
Y665398D01*
X828391Y663016*
X828391D02*
X828969Y661429D01*
X830123Y659841*
X830123D02*
X831278Y659048D01*
X833587*
X834741Y659841*
X834741D02*
X835896Y661429D01*
X836473Y663016*
X836473D02*
Y665398D01*
X833587D02*
X836473D01*
X841669Y675716D02*
Y659048D01*
Y675716D02*
X849173D01*
X841669Y667779D02*
X846287D01*
X841669Y659048D02*
X849173D01*
X854369Y675716D02*
Y659048D01*
Y675716D02*
X862450Y659048D01*
Y675716D02*
Y659048D01*
X867646Y675716D02*
Y659048D01*
Y675716D02*
X871687D01*
X871687D02*
X873419Y674923D01*
X874573Y673335*
X874573D02*
X875150Y671748D01*
X875150D02*
X875728Y669366D01*
X875728D02*
Y665398D01*
X875150Y663016*
X875150D02*
X874573Y661429D01*
X874573D02*
X873419Y659841D01*
X873419D02*
X871687Y659048D01*
X867646*
G54D12*
X330875Y778825D02*
X335073D01*
X484227D02*
X489156D01*
X329414Y779190D02*
X336534D01*
X343289D02*
X347853D01*
X360815D02*
X365014D01*
X367022D02*
X378888D01*
X389295D02*
X407003D01*
X410107D02*
X414306D01*
X423981D02*
X428180D01*
X432379D02*
X450088D01*
X453191D02*
X457390D01*
X469257D02*
X474186D01*
X482767D02*
X490982D01*
X506500D02*
X510699D01*
X328684Y779555D02*
X337629D01*
X343289D02*
X348218D01*
X360815D02*
X365014D01*
X367022D02*
X380349D01*
X389295D02*
X407003D01*
X410107D02*
X414671D01*
X423616D02*
X428545D01*
X432379D02*
X450088D01*
X453191D02*
X457755D01*
X468892D02*
X473821D01*
X481671D02*
X492442D01*
X506500D02*
X511064D01*
X327954Y779920D02*
X338360D01*
X343654D02*
X348218D01*
X360815D02*
X365014D01*
X367387D02*
X381444D01*
X389660D02*
X407368D01*
X410472D02*
X414671D01*
X423616D02*
X428545D01*
X432744D02*
X450453D01*
X453557D02*
X457755D01*
X468892D02*
X473821D01*
X480941D02*
X493538D01*
X506865D02*
X511064D01*
X327588Y780285D02*
X339090D01*
X343654D02*
X348583D01*
X360450D02*
X365014D01*
X367387D02*
X382175D01*
X389660D02*
X407368D01*
X410472D02*
X414671D01*
X423616D02*
X428545D01*
X432744D02*
X450453D01*
X453557D02*
X457755D01*
X468892D02*
X473821D01*
X480576D02*
X494268D01*
X506865D02*
X511064D01*
X326858Y780650D02*
X339820D01*
X344019D02*
X348583D01*
X360450D02*
X364649D01*
X367387D02*
X382905D01*
X389660D02*
X407368D01*
X410472D02*
X414671D01*
X423251D02*
X428545D01*
X432744D02*
X450453D01*
X453557D02*
X457755D01*
X468527D02*
X473456D01*
X480211D02*
X494998D01*
X506865D02*
X511064D01*
X326493Y781015D02*
X340185D01*
X344019D02*
X348948D01*
X360450D02*
X364649D01*
X367387D02*
X383635D01*
X389660D02*
X407733D01*
X410472D02*
X414671D01*
X423251D02*
X428545D01*
X432744D02*
X450818D01*
X453557D02*
X457755D01*
X468527D02*
X473456D01*
X479846D02*
X495728D01*
X506865D02*
X511064D01*
X326128Y781380D02*
X340550D01*
X344384D02*
X348948D01*
X360450D02*
X364649D01*
X367387D02*
X384000D01*
X389660D02*
X407733D01*
X410472D02*
X415036D01*
X422886D02*
X428911D01*
X432744D02*
X450818D01*
X453557D02*
X458121D01*
X468527D02*
X473091D01*
X479480D02*
X496459D01*
X506865D02*
X511429D01*
X326128Y781746D02*
X340915D01*
X344749D02*
X349313D01*
X360450D02*
X364649D01*
X367752D02*
X384365D01*
X390025D02*
X407733D01*
X410837D02*
X415036D01*
X422886D02*
X428911D01*
X433110D02*
X450818D01*
X453922D02*
X458121D01*
X468162D02*
X473091D01*
X479115D02*
X496824D01*
X507230D02*
X511429D01*
X325763Y782111D02*
X341281D01*
X344749D02*
X349678D01*
X360450D02*
X364649D01*
X367752D02*
X384730D01*
X390025D02*
X407733D01*
X410837D02*
X415036D01*
X422886D02*
X428911D01*
X433110D02*
X450818D01*
X453922D02*
X458121D01*
X468162D02*
X473091D01*
X478750D02*
X496824D01*
X507230D02*
X511429D01*
X325398Y782476D02*
X341646D01*
X345114D02*
X349678D01*
X360450D02*
X364649D01*
X367752D02*
X385096D01*
X390025D02*
X408098D01*
X410837D02*
X415036D01*
X422521D02*
X428911D01*
X433110D02*
X451183D01*
X453922D02*
X458121D01*
X467796D02*
X472726D01*
X478385D02*
X496824D01*
X507230D02*
X511429D01*
X325398Y782841D02*
X331787D01*
X334891D02*
X342011D01*
X345114D02*
X350044D01*
X360085D02*
X364649D01*
X367752D02*
X385461D01*
X390025D02*
X408098D01*
X410837D02*
X415036D01*
X422521D02*
X428911D01*
X433110D02*
X451183D01*
X453922D02*
X458121D01*
X467796D02*
X472726D01*
X478385D02*
X484775D01*
X488974D02*
X496824D01*
X507230D02*
X511429D01*
X325033Y783206D02*
X331057D01*
X336351D02*
X342376D01*
X345480D02*
X350044D01*
X360085D02*
X364283D01*
X367752D02*
X372316D01*
X378341D02*
X385826D01*
X390025D02*
X394589D01*
X410837D02*
X415401D01*
X422521D02*
X429276D01*
X433110D02*
X437674D01*
X453922D02*
X458486D01*
X467431D02*
X472360D01*
X478020D02*
X483679D01*
X490434D02*
X496824D01*
X507230D02*
X511794D01*
X325033Y783571D02*
X330327D01*
X337082D02*
X342376D01*
X345480D02*
X350409D01*
X360085D02*
X364283D01*
X368117D02*
X372316D01*
X379801D02*
X386191D01*
X390390D02*
X394589D01*
X411202D02*
X415401D01*
X422156D02*
X429276D01*
X433475D02*
X437674D01*
X454287D02*
X458486D01*
X467431D02*
X472360D01*
X478020D02*
X482949D01*
X491530D02*
X497189D01*
X507595D02*
X511794D01*
X324667Y783936D02*
X329962D01*
X337447D02*
X342741D01*
X345845D02*
X350409D01*
X360085D02*
X364283D01*
X368117D02*
X372316D01*
X380532D02*
X386556D01*
X390390D02*
X394589D01*
X411202D02*
X415401D01*
X422156D02*
X429276D01*
X433475D02*
X437674D01*
X454287D02*
X458486D01*
X467431D02*
X471995D01*
X477655D02*
X482584D01*
X492625D02*
X497189D01*
X507595D02*
X511794D01*
X324667Y784301D02*
X329597D01*
X337812D02*
X343106D01*
X345845D02*
X364283D01*
X368117D02*
X372316D01*
X380897D02*
X386556D01*
X390390D02*
X394589D01*
X411202D02*
X415401D01*
X421791D02*
X429276D01*
X433475D02*
X437674D01*
X454287D02*
X458486D01*
X467066D02*
X471995D01*
X477655D02*
X482219D01*
X492990D02*
X497189D01*
X507595D02*
X511794D01*
X324302Y784667D02*
X329231D01*
X338542D02*
X343106D01*
X346210D02*
X364283D01*
X368117D02*
X372681D01*
X381627D02*
X386921D01*
X390390D02*
X394954D01*
X411202D02*
X415401D01*
X421791D02*
X429641D01*
X433475D02*
X438039D01*
X454287D02*
X458851D01*
X467066D02*
X471630D01*
X477290D02*
X482219D01*
X492990D02*
X497189D01*
X507595D02*
X512159D01*
X324302Y785032D02*
X328866D01*
X338542D02*
X343471D01*
X346210D02*
X364283D01*
X368482D02*
X372681D01*
X381992D02*
X387286D01*
X390755D02*
X394954D01*
X411567D02*
X415766D01*
X421791D02*
X429641D01*
X433840D02*
X438039D01*
X454652D02*
X458851D01*
X466701D02*
X471630D01*
X477290D02*
X481854D01*
X492990D02*
X497554D01*
X507960D02*
X512159D01*
X324302Y785397D02*
X328866D01*
X338907D02*
X343471D01*
X346575D02*
X364283D01*
X368482D02*
X372681D01*
X382357D02*
X387286D01*
X390755D02*
X394954D01*
X411567D02*
X415766D01*
X421426D02*
X429641D01*
X433840D02*
X438039D01*
X454652D02*
X458851D01*
X466701D02*
X471265D01*
X477290D02*
X481489D01*
X492990D02*
X497554D01*
X507960D02*
X512159D01*
X324302Y785762D02*
X328501D01*
X339272D02*
X343836D01*
X346575D02*
X363918D01*
X368482D02*
X372681D01*
X382357D02*
X387651D01*
X390755D02*
X394954D01*
X411567D02*
X415766D01*
X421426D02*
X429641D01*
X433840D02*
X438039D01*
X454652D02*
X458851D01*
X466336D02*
X471265D01*
X477290D02*
X481489D01*
X493355D02*
X497554D01*
X507960D02*
X512159D01*
X324302Y786127D02*
X328501D01*
X339272D02*
X343471D01*
X346940D02*
X363918D01*
X368482D02*
X372681D01*
X382722D02*
X387651D01*
X390755D02*
X394954D01*
X411567D02*
X415766D01*
X421060D02*
X429641D01*
X433840D02*
X438039D01*
X454652D02*
X458851D01*
X466336D02*
X470900D01*
X477290D02*
X481489D01*
X493355D02*
X497554D01*
X507960D02*
X512159D01*
X323937Y786492D02*
X328501D01*
X339638D02*
X340915D01*
X347305D02*
X363918D01*
X368482D02*
X373046D01*
X383087D02*
X388017D01*
X390755D02*
X395319D01*
X411567D02*
X415766D01*
X421060D02*
X430006D01*
X433840D02*
X438404D01*
X454652D02*
X459216D01*
X465971D02*
X470900D01*
X476925D02*
X481489D01*
X493355D02*
X497554D01*
X507960D02*
X512524D01*
X323937Y786857D02*
X328136D01*
X347305D02*
X363918D01*
X368848D02*
X373046D01*
X383087D02*
X388017D01*
X391120D02*
X395319D01*
X411932D02*
X416131D01*
X421060D02*
X430006D01*
X434205D02*
X438404D01*
X455017D02*
X459216D01*
X465971D02*
X470535D01*
X476925D02*
X481123D01*
X493355D02*
X497919D01*
X508325D02*
X512524D01*
X323937Y787222D02*
X328136D01*
X347670D02*
X363918D01*
X368848D02*
X373046D01*
X383453D02*
X388017D01*
X391120D02*
X395319D01*
X411932D02*
X416131D01*
X420695D02*
X430006D01*
X434205D02*
X438404D01*
X455017D02*
X459216D01*
X465606D02*
X470535D01*
X476925D02*
X481123D01*
X493720D02*
X497919D01*
X508325D02*
X512524D01*
X323937Y787588D02*
X328136D01*
X347670D02*
X363918D01*
X368848D02*
X373046D01*
X383818D02*
X388382D01*
X391120D02*
X395319D01*
X411932D02*
X416131D01*
X420695D02*
X425259D01*
X426172D02*
X430006D01*
X434205D02*
X438404D01*
X455017D02*
X459216D01*
X465241D02*
X470170D01*
X476925D02*
X481123D01*
X493720D02*
X497919D01*
X508325D02*
X512524D01*
X323937Y787953D02*
X328136D01*
X348035D02*
X363918D01*
X368848D02*
X373046D01*
X383818D02*
X388382D01*
X391120D02*
X395319D01*
X411932D02*
X416131D01*
X420695D02*
X425259D01*
X426172D02*
X430006D01*
X434205D02*
X438404D01*
X455017D02*
X459216D01*
X464875D02*
X469805D01*
X476925D02*
X481123D01*
X487148D02*
X497919D01*
X508325D02*
X512889D01*
X323937Y788318D02*
X328136D01*
X348035D02*
X352965D01*
X359354D02*
X363553D01*
X368848D02*
X373412D01*
X384183D02*
X388382D01*
X391120D02*
X395684D01*
X411932D02*
X416131D01*
X420330D02*
X424894D01*
X426172D02*
X430371D01*
X434205D02*
X438769D01*
X455017D02*
X459581D01*
X464510D02*
X469439D01*
X476925D02*
X481123D01*
X487148D02*
X497919D01*
X508325D02*
X512889D01*
X323937Y788683D02*
X328136D01*
X348401D02*
X352965D01*
X359354D02*
X363553D01*
X369213D02*
X373412D01*
X384183D02*
X388747D01*
X391485D02*
X395684D01*
X412297D02*
X416496D01*
X420330D02*
X424894D01*
X426172D02*
X430371D01*
X434570D02*
X438769D01*
X455382D02*
X459581D01*
X463780D02*
X469074D01*
X476925D02*
X481123D01*
X487513D02*
X498284D01*
X508325D02*
X513254D01*
X323937Y789048D02*
X328136D01*
X348401D02*
X353330D01*
X359354D02*
X363553D01*
X369213D02*
X373412D01*
X384183D02*
X388747D01*
X391485D02*
X395684D01*
X412297D02*
X416496D01*
X419965D02*
X424894D01*
X426172D02*
X430371D01*
X434570D02*
X438769D01*
X455382D02*
X468709D01*
X476925D02*
X481123D01*
X487513D02*
X498284D01*
X507960D02*
X513620D01*
X323937Y789413D02*
X328136D01*
X348766D02*
X353330D01*
X359354D02*
X363553D01*
X369213D02*
X373412D01*
X384548D02*
X388747D01*
X391485D02*
X395684D01*
X412297D02*
X416496D01*
X419965D02*
X424529D01*
X426537D02*
X430371D01*
X434570D02*
X438769D01*
X455382D02*
X470535D01*
X476925D02*
X481123D01*
X487513D02*
X498284D01*
X507960D02*
X513985D01*
X323937Y789778D02*
X328136D01*
X348766D02*
X353695D01*
X359354D02*
X363553D01*
X369213D02*
X373777D01*
X384548D02*
X388747D01*
X391485D02*
X408098D01*
X412297D02*
X416496D01*
X419965D02*
X424529D01*
X426537D02*
X430736D01*
X434570D02*
X451183D01*
X455382D02*
X471630D01*
X476925D02*
X481123D01*
X487513D02*
X498284D01*
X507595D02*
X513985D01*
X323937Y790143D02*
X328136D01*
X349131D02*
X353695D01*
X359354D02*
X363553D01*
X369578D02*
X373777D01*
X384548D02*
X388747D01*
X391850D02*
X408098D01*
X412663D02*
X416496D01*
X419600D02*
X424164D01*
X426537D02*
X430736D01*
X434935D02*
X451183D01*
X455747D02*
X472360D01*
X476925D02*
X481123D01*
X487878D02*
X498284D01*
X507595D02*
X514350D01*
X323937Y790509D02*
X328136D01*
X349131D02*
X354060D01*
X358989D02*
X363188D01*
X369578D02*
X373777D01*
X384548D02*
X389112D01*
X391850D02*
X408464D01*
X412663D02*
X416861D01*
X419600D02*
X424164D01*
X426537D02*
X430736D01*
X434935D02*
X451548D01*
X455747D02*
X473091D01*
X476925D02*
X481123D01*
X487878D02*
X498649D01*
X507595D02*
X514715D01*
X323937Y790874D02*
X328501D01*
X349496D02*
X354425D01*
X358989D02*
X363188D01*
X369578D02*
X373777D01*
X384913D02*
X389112D01*
X391850D02*
X408464D01*
X412663D02*
X416861D01*
X419235D02*
X424164D01*
X426537D02*
X430736D01*
X434935D02*
X451548D01*
X455747D02*
X473456D01*
X476925D02*
X481489D01*
X487878D02*
X498649D01*
X507230D02*
X515080D01*
X323937Y791239D02*
X328501D01*
X349861D02*
X354425D01*
X358989D02*
X363188D01*
X369578D02*
X373777D01*
X384913D02*
X389112D01*
X391850D02*
X408464D01*
X412663D02*
X416861D01*
X419235D02*
X423799D01*
X426902D02*
X430736D01*
X434935D02*
X451548D01*
X455747D02*
X473821D01*
X477290D02*
X481489D01*
X488243D02*
X498649D01*
X507230D02*
X515080D01*
X324302Y791604D02*
X328501D01*
X349861D02*
X354790D01*
X358989D02*
X363188D01*
X369578D02*
X374142D01*
X384913D02*
X389112D01*
X391850D02*
X408829D01*
X412663D02*
X416861D01*
X419235D02*
X423799D01*
X426902D02*
X431101D01*
X434935D02*
X451913D01*
X455747D02*
X474186D01*
X477290D02*
X481489D01*
X488243D02*
X498649D01*
X506865D02*
X515445D01*
X324302Y791969D02*
X328501D01*
X350226D02*
X354790D01*
X358989D02*
X363188D01*
X369943D02*
X374142D01*
X384913D02*
X389112D01*
X392216D02*
X408829D01*
X413028D02*
X416861D01*
X418870D02*
X423434D01*
X426902D02*
X431101D01*
X435300D02*
X451913D01*
X456112D02*
X474551D01*
X477290D02*
X481489D01*
X506865D02*
X515810D01*
X324302Y792334D02*
X328501D01*
X350226D02*
X355155D01*
X358989D02*
X363188D01*
X369943D02*
X374142D01*
X384913D02*
X389112D01*
X392216D02*
X408829D01*
X413028D02*
X417227D01*
X418870D02*
X423434D01*
X426902D02*
X431101D01*
X435300D02*
X451913D01*
X456112D02*
X474916D01*
X477290D02*
X481489D01*
X506500D02*
X516175D01*
X324302Y792699D02*
X328866D01*
X350591D02*
X355155D01*
X358624D02*
X363188D01*
X369943D02*
X374142D01*
X384913D02*
X389112D01*
X392216D02*
X408829D01*
X413028D02*
X417227D01*
X418870D02*
X423434D01*
X426902D02*
X431101D01*
X435300D02*
X451913D01*
X456112D02*
X460311D01*
X467431D02*
X474916D01*
X477290D02*
X481854D01*
X506500D02*
X516175D01*
X324302Y793064D02*
X328866D01*
X350591D02*
X355520D01*
X358624D02*
X362823D01*
X369943D02*
X374142D01*
X384913D02*
X389112D01*
X392216D02*
X409194D01*
X413028D02*
X417227D01*
X418505D02*
X423069D01*
X427268D02*
X431101D01*
X435300D02*
X452279D01*
X456112D02*
X460311D01*
X469257D02*
X475281D01*
X477655D02*
X481854D01*
X506500D02*
X511064D01*
X511611D02*
X516541D01*
X324667Y793430D02*
X328866D01*
X350956D02*
X355520D01*
X358624D02*
X362823D01*
X369943D02*
X374507D01*
X384913D02*
X389112D01*
X392216D02*
X409194D01*
X413028D02*
X417227D01*
X418505D02*
X423069D01*
X427268D02*
X431466D01*
X435300D02*
X452279D01*
X456112D02*
X460676D01*
X469987D02*
X475281D01*
X477655D02*
X481854D01*
X506135D02*
X510699D01*
X511977D02*
X516906D01*
X324667Y793795D02*
X329231D01*
X350956D02*
X355886D01*
X358624D02*
X362823D01*
X370308D02*
X374507D01*
X384913D02*
X389112D01*
X392581D02*
X396780D01*
X413393D02*
X417227D01*
X418139D02*
X423069D01*
X427268D02*
X431466D01*
X435665D02*
X439864D01*
X456478D02*
X460676D01*
X470352D02*
X475647D01*
X477655D02*
X482219D01*
X506135D02*
X510699D01*
X511977D02*
X517271D01*
X324667Y794160D02*
X329231D01*
X351322D02*
X355886D01*
X358624D02*
X362823D01*
X370308D02*
X374507D01*
X384913D02*
X389112D01*
X392581D02*
X396780D01*
X413393D02*
X417592D01*
X418139D02*
X422703D01*
X427268D02*
X431466D01*
X435665D02*
X439864D01*
X456478D02*
X460676D01*
X470717D02*
X475647D01*
X478020D02*
X482219D01*
X505769D02*
X510333D01*
X512342D02*
X517271D01*
X325033Y794525D02*
X329597D01*
X351322D02*
X356251D01*
X358624D02*
X362823D01*
X370308D02*
X374507D01*
X384913D02*
X389112D01*
X392581D02*
X396780D01*
X413393D02*
X417592D01*
X418139D02*
X422703D01*
X427268D02*
X431466D01*
X435665D02*
X439864D01*
X456478D02*
X460676D01*
X471083D02*
X475647D01*
X478020D02*
X482584D01*
X505769D02*
X510333D01*
X512707D02*
X517636D01*
X325033Y794890D02*
X329597D01*
X351687D02*
X356251D01*
X358624D02*
X362823D01*
X370308D02*
X374872D01*
X384913D02*
X389112D01*
X392581D02*
X397145D01*
X413393D02*
X422338D01*
X427633D02*
X431832D01*
X435665D02*
X440229D01*
X456478D02*
X461042D01*
X471448D02*
X476012D01*
X478385D02*
X482584D01*
X505404D02*
X510333D01*
X512707D02*
X518001D01*
X325033Y795255D02*
X329962D01*
X341098D02*
X342741D01*
X351687D02*
X356616D01*
X358259D02*
X362823D01*
X370308D02*
X374872D01*
X384548D02*
X389112D01*
X392581D02*
X397145D01*
X413393D02*
X422338D01*
X427633D02*
X431832D01*
X435665D02*
X440229D01*
X456478D02*
X461042D01*
X471448D02*
X476012D01*
X478385D02*
X482949D01*
X495546D02*
X496824D01*
X505404D02*
X509968D01*
X513072D02*
X518366D01*
X325398Y795620D02*
X329962D01*
X341098D02*
X345297D01*
X352052D02*
X356981D01*
X358259D02*
X362458D01*
X370673D02*
X374872D01*
X384548D02*
X388747D01*
X392946D02*
X397145D01*
X413758D02*
X422338D01*
X427633D02*
X431832D01*
X436031D02*
X440229D01*
X456843D02*
X461042D01*
X471813D02*
X476012D01*
X478385D02*
X482949D01*
X495181D02*
X499745D01*
X505039D02*
X509968D01*
X513437D02*
X518366D01*
X325398Y795985D02*
X330327D01*
X340733D02*
X345297D01*
X352417D02*
X356981D01*
X358259D02*
X362458D01*
X370673D02*
X374872D01*
X384548D02*
X388747D01*
X392946D02*
X397145D01*
X413758D02*
X421973D01*
X427633D02*
X431832D01*
X436031D02*
X440229D01*
X456843D02*
X461042D01*
X471813D02*
X476012D01*
X478750D02*
X483314D01*
X495181D02*
X499745D01*
X505039D02*
X509603D01*
X513802D02*
X518731D01*
X325763Y796351D02*
X330692D01*
X340733D02*
X345297D01*
X352417D02*
X357346D01*
X358259D02*
X362458D01*
X370673D02*
X374872D01*
X384183D02*
X388747D01*
X392946D02*
X397145D01*
X413758D02*
X421973D01*
X427633D02*
X431832D01*
X436031D02*
X440229D01*
X456843D02*
X461042D01*
X471813D02*
X476012D01*
X478750D02*
X483679D01*
X495181D02*
X499380D01*
X505039D02*
X509603D01*
X513802D02*
X519096D01*
X325763Y796716D02*
X331057D01*
X340733D02*
X344932D01*
X352782D02*
X357346D01*
X358259D02*
X362458D01*
X370673D02*
X375237D01*
X384183D02*
X388747D01*
X392946D02*
X397510D01*
X413758D02*
X421608D01*
X427998D02*
X432197D01*
X436031D02*
X440595D01*
X456843D02*
X461407D01*
X471813D02*
X476012D01*
X479115D02*
X484044D01*
X494816D02*
X499380D01*
X504674D02*
X509238D01*
X514167D02*
X519462D01*
X326128Y797081D02*
X331422D01*
X340368D02*
X344932D01*
X352782D02*
X357711D01*
X358259D02*
X362458D01*
X371038D02*
X375237D01*
X383818D02*
X388382D01*
X393311D02*
X397510D01*
X414123D02*
X421608D01*
X427998D02*
X432197D01*
X436396D02*
X440595D01*
X457208D02*
X461407D01*
X471813D02*
X476012D01*
X479480D02*
X484410D01*
X494451D02*
X499380D01*
X504674D02*
X509238D01*
X514532D02*
X519462D01*
X326128Y797446D02*
X331787D01*
X340003D02*
X344932D01*
X353147D02*
X357711D01*
X358259D02*
X362458D01*
X371038D02*
X375237D01*
X383453D02*
X388382D01*
X393311D02*
X397510D01*
X414123D02*
X421608D01*
X427998D02*
X432197D01*
X436396D02*
X440595D01*
X457208D02*
X461407D01*
X471448D02*
X476012D01*
X479480D02*
X484775D01*
X494085D02*
X499015D01*
X504309D02*
X508873D01*
X514898D02*
X519827D01*
X326493Y797811D02*
X332152D01*
X340003D02*
X344932D01*
X353147D02*
X362458D01*
X371038D02*
X375237D01*
X383087D02*
X388382D01*
X393311D02*
X397510D01*
X414123D02*
X421243D01*
X427998D02*
X432197D01*
X436396D02*
X440595D01*
X457208D02*
X461407D01*
X471448D02*
X476012D01*
X479846D02*
X485505D01*
X493720D02*
X499015D01*
X504309D02*
X508873D01*
X514898D02*
X520192D01*
X326858Y798176D02*
X332883D01*
X339638D02*
X344567D01*
X353512D02*
X362093D01*
X371038D02*
X375237D01*
X382357D02*
X388017D01*
X393311D02*
X397510D01*
X414123D02*
X421243D01*
X427998D02*
X432197D01*
X436396D02*
X440595D01*
X457208D02*
X461407D01*
X471083D02*
X476012D01*
X480211D02*
X485870D01*
X493355D02*
X499015D01*
X503944D02*
X508873D01*
X515263D02*
X520557D01*
X326858Y798541D02*
X333613D01*
X338907D02*
X344567D01*
X353512D02*
X362093D01*
X371038D02*
X375602D01*
X381627D02*
X388017D01*
X393311D02*
X397875D01*
X414123D02*
X421243D01*
X428363D02*
X432562D01*
X436396D02*
X440960D01*
X457208D02*
X461772D01*
X469987D02*
X475647D01*
X480211D02*
X486965D01*
X492625D02*
X498649D01*
X503944D02*
X508508D01*
X515628D02*
X520557D01*
X327223Y798906D02*
X334708D01*
X337812D02*
X344202D01*
X353877D02*
X362093D01*
X371403D02*
X387651D01*
X393676D02*
X410289D01*
X414488D02*
X420878D01*
X428363D02*
X432562D01*
X436761D02*
X453374D01*
X457573D02*
X475647D01*
X480576D02*
X488061D01*
X491895D02*
X498649D01*
X503944D02*
X508508D01*
X515993D02*
X520922D01*
X327588Y799272D02*
X344202D01*
X353877D02*
X362093D01*
X371403D02*
X387286D01*
X393676D02*
X410289D01*
X414488D02*
X420878D01*
X428363D02*
X432562D01*
X436761D02*
X453374D01*
X457573D02*
X475647D01*
X480941D02*
X498284D01*
X503579D02*
X508143D01*
X515993D02*
X521287D01*
X327954Y799637D02*
X343836D01*
X354243D02*
X362093D01*
X371403D02*
X387286D01*
X393676D02*
X410654D01*
X414488D02*
X420513D01*
X428363D02*
X432562D01*
X436761D02*
X453739D01*
X457573D02*
X475281D01*
X481306D02*
X497919D01*
X503579D02*
X508143D01*
X516358D02*
X521652D01*
X328319Y800002D02*
X343471D01*
X354608D02*
X362093D01*
X371403D02*
X386921D01*
X393676D02*
X410654D01*
X414488D02*
X420513D01*
X428363D02*
X432562D01*
X436761D02*
X453739D01*
X457573D02*
X475281D01*
X481671D02*
X497554D01*
X503214D02*
X507778D01*
X516723D02*
X521652D01*
X328684Y800367D02*
X343106D01*
X354608D02*
X362093D01*
X371403D02*
X386556D01*
X393676D02*
X410654D01*
X414488D02*
X420513D01*
X428728D02*
X432927D01*
X436761D02*
X453739D01*
X457573D02*
X474916D01*
X482036D02*
X497554D01*
X503214D02*
X507778D01*
X517088D02*
X522017D01*
X329414Y800732D02*
X342741D01*
X354973D02*
X361728D01*
X371769D02*
X386191D01*
X394041D02*
X411019D01*
X414853D02*
X420148D01*
X428728D02*
X432927D01*
X437126D02*
X454104D01*
X457938D02*
X474551D01*
X482767D02*
X497189D01*
X502848D02*
X507412D01*
X517088D02*
X522383D01*
X329779Y801097D02*
X342376D01*
X354973D02*
X361728D01*
X371769D02*
X385826D01*
X394041D02*
X411019D01*
X414853D02*
X420148D01*
X428728D02*
X432927D01*
X437126D02*
X454104D01*
X457938D02*
X474186D01*
X483132D02*
X496459D01*
X502848D02*
X507412D01*
X517453D02*
X522748D01*
X330509Y801462D02*
X342011D01*
X355338D02*
X361728D01*
X371769D02*
X385096D01*
X394041D02*
X411019D01*
X414853D02*
X419782D01*
X428728D02*
X432927D01*
X437126D02*
X454104D01*
X457938D02*
X473821D01*
X483497D02*
X496094D01*
X502848D02*
X507412D01*
X517819D02*
X522748D01*
X330875Y801827D02*
X341281D01*
X355338D02*
X361728D01*
X371769D02*
X384730D01*
X394041D02*
X411019D01*
X414853D02*
X419782D01*
X428728D02*
X433292D01*
X437126D02*
X454104D01*
X457938D02*
X473456D01*
X484227D02*
X495363D01*
X502483D02*
X507047D01*
X518184D02*
X523113D01*
X331970Y802193D02*
X340915D01*
X355703D02*
X361728D01*
X372134D02*
X383635D01*
X394406D02*
X411385D01*
X415218D02*
X419782D01*
X429093D02*
X433292D01*
X437491D02*
X454469D01*
X458303D02*
X472726D01*
X485322D02*
X494633D01*
X502483D02*
X507047D01*
X518184D02*
X523478D01*
X332700Y802558D02*
X339820D01*
X355703D02*
X361728D01*
X372134D02*
X382175D01*
X394406D02*
X411385D01*
X415218D02*
X419417D01*
X429093D02*
X433292D01*
X437491D02*
X454469D01*
X458303D02*
X471265D01*
X486053D02*
X493903D01*
X502118D02*
X506682D01*
X518549D02*
X523843D01*
X334161Y802923D02*
X338360D01*
X487878D02*
X492442D01*
G54D13*
X517080Y465652D02*
Y446348D01*
X506920*
Y465652*
X517080*
X505080D02*
Y446348D01*
X494920*
Y465652*
X505080*
X529080Y551652D02*
Y532348D01*
X518920*
Y551652*
X529080*
X518920Y446348D02*
Y465652D01*
X529080*
Y446348*
X518920*
X505080Y551652D02*
Y532348D01*
X494920*
Y551652*
X505080*
X530920Y532348D02*
Y551652D01*
X541080*
Y532348*
X530920*
X506920D02*
Y551652D01*
X517080*
Y532348*
X506920*
X541080Y465652D02*
Y446348D01*
X530920*
Y465652*
X541080*
X330586Y761759D02*
Y755409D01*
X330297Y754218*
X330297D02*
X330009Y753821D01*
X330009D02*
X329431Y753425D01*
X329431D02*
X328854D01*
X328854D02*
X328277Y753821D01*
X328277D02*
X327988Y754218D01*
X327988D02*
X327700Y755409D01*
Y756203*
X334915Y761759D02*
X334338Y761362D01*
X334338D02*
X333761Y760568D01*
X333761D02*
X333472Y759775D01*
X333472D02*
X333184Y758584D01*
Y756600*
X333472Y755409*
X333472D02*
X333761Y754615D01*
X333761D02*
X334338Y753821D01*
X334338D02*
X334915Y753425D01*
X334915D02*
X336070D01*
X336647Y753821*
X336647D02*
X337225Y754615D01*
X337225D02*
X337513Y755409D01*
X337513D02*
X337802Y756600D01*
Y758584*
X337513Y759775*
X337513D02*
X337225Y760568D01*
X337225D02*
X336647Y761362D01*
X336647D02*
X336070Y761759D01*
X334915*
X340400D02*
Y753425D01*
Y761759D02*
X342997D01*
X342997D02*
X343863Y761362D01*
X343863D02*
X344152Y760965D01*
X344152D02*
X344440Y760171D01*
X344440D02*
Y759378D01*
X344440D02*
X344152Y758584D01*
X343863Y758187*
X343863D02*
X342997Y757790D01*
X340400D02*
X342997D01*
X342997D02*
X343863Y757393D01*
X343863D02*
X344152Y756996D01*
X344152D02*
X344440Y756203D01*
X344440D02*
Y755012D01*
X344440D02*
X344152Y754218D01*
X344152D02*
X343863Y753821D01*
X343863D02*
X342997Y753425D01*
X342997D02*
X340400D01*
X353677Y761759D02*
Y753425D01*
Y761759D02*
X357718Y753425D01*
Y761759D02*
Y753425D01*
X361759Y758981D02*
X361181Y758584D01*
X361181D02*
X360604Y757790D01*
X360604D02*
X360315Y756600D01*
X360315D02*
Y755806D01*
X360315D02*
X360604Y754615D01*
X360604D02*
X361181Y753821D01*
X361181D02*
X361759Y753425D01*
X362625*
X363202Y753821*
X363202D02*
X363779Y754615D01*
X363779D02*
X364068Y755806D01*
Y756600*
X363779Y757790*
X363779D02*
X363202Y758584D01*
X362625Y758981*
X361759*
X366954Y754218D02*
X366665Y753821D01*
X366665D02*
X366954Y753425D01*
X366954D02*
X367243Y753821D01*
X367243D02*
X366954Y754218D01*
X327700Y721754D02*
Y713420D01*
Y721754D02*
X329720D01*
X330586Y721357*
X330586D02*
X331163Y720563D01*
X331163D02*
X331452Y719770D01*
X331740Y718579*
X331740D02*
Y716595D01*
X331740D02*
X331452Y715404D01*
X331163Y714610*
X331163D02*
X330586Y713816D01*
X330586D02*
X329720Y713420D01*
X327700*
X334338Y721754D02*
Y713420D01*
Y721754D02*
X338090D01*
X334338Y717785D02*
X336647D01*
X334338Y713420D02*
X338090D01*
X344729Y720563D02*
X344152Y721357D01*
X344152D02*
X343286Y721754D01*
X342131*
X342131D02*
X341265Y721357D01*
X341265D02*
X340688Y720563D01*
X340688D02*
Y719770D01*
X340688D02*
X340977Y718976D01*
X341265Y718579*
X341265D02*
X341843Y718182D01*
X341843D02*
X343575Y717388D01*
X343575D02*
X344152Y716991D01*
X344152D02*
X344440Y716595D01*
X344440D02*
X344729Y715801D01*
X344729D02*
Y714610D01*
X344729D02*
X344152Y713816D01*
X344152D02*
X343286Y713420D01*
X342131*
X342131D02*
X341265Y713816D01*
X341265D02*
X340688Y714610D01*
X347327Y721754D02*
Y713420D01*
X354254Y719770D02*
X353965Y720563D01*
X353965D02*
X353388Y721357D01*
X353388D02*
X352811Y721754D01*
X351656*
X351656D02*
X351079Y721357D01*
X351079D02*
X350502Y720563D01*
X350502D02*
X350213Y719770D01*
X350213D02*
X349925Y718579D01*
Y716595*
X350213Y715404*
X350213D02*
X350502Y714610D01*
X350502D02*
X351079Y713816D01*
X351079D02*
X351656Y713420D01*
X351656D02*
X352811D01*
X353388Y713816*
X353388D02*
X353965Y714610D01*
X353965D02*
X354254Y715404D01*
X354254D02*
Y716595D01*
X352811D02*
X354254D01*
X356852Y721754D02*
Y713420D01*
Y721754D02*
X360893Y713420D01*
Y721754D02*
Y713420D01*
X363490Y721754D02*
Y713420D01*
Y721754D02*
X367243D01*
X363490Y717785D02*
X365800D01*
X363490Y713420D02*
X367243D01*
X369840Y721754D02*
Y713420D01*
Y721754D02*
X371861D01*
X372727Y721357*
X372727D02*
X373304Y720563D01*
X373304D02*
X373593Y719770D01*
X373881Y718579*
X373881D02*
Y716595D01*
X373881D02*
X373593Y715404D01*
X373304Y714610*
X373304D02*
X372727Y713816D01*
X372727D02*
X371861Y713420D01*
X369840*
X327700Y704609D02*
Y696275D01*
Y704609D02*
X330297D01*
X330297D02*
X331163Y704212D01*
X331163D02*
X331452Y703815D01*
X331452D02*
X331740Y703021D01*
X331740D02*
Y702228D01*
X331740D02*
X331452Y701434D01*
X331163Y701037*
X331163D02*
X330297Y700640D01*
X327700D02*
X330297D01*
X330297D02*
X331163Y700243D01*
X331163D02*
X331452Y699846D01*
X331452D02*
X331740Y699053D01*
X331740D02*
Y697862D01*
X331740D02*
X331452Y697068D01*
X331452D02*
X331163Y696671D01*
X331163D02*
X330297Y696275D01*
X330297D02*
X327700D01*
X334338Y704609D02*
X336647Y700640D01*
X336647D02*
Y696275D01*
X338956Y704609D02*
X336647Y700640D01*
X327700Y679209D02*
Y670875D01*
Y679209D02*
X329720D01*
X330586Y678812*
X330586D02*
X331163Y678018D01*
X331163D02*
X331452Y677225D01*
X331740Y676034*
X331740D02*
Y674050D01*
X331740D02*
X331452Y672859D01*
X331163Y672065*
X331163D02*
X330586Y671271D01*
X330586D02*
X329720Y670875D01*
X327700*
X336647Y679209D02*
X334338Y670875D01*
X336647Y679209D02*
X338956Y670875D01*
X335204Y673653D02*
X338090D01*
X343575Y679209D02*
Y670875D01*
X341554Y679209D02*
X345595D01*
X348193D02*
Y670875D01*
Y679209D02*
X351945D01*
X348193Y675240D02*
X350502D01*
X348193Y670875D02*
X351945D01*
X492800Y761759D02*
Y753425D01*
Y761759D02*
X495397D01*
X495397D02*
X496263Y761362D01*
X496263D02*
X496552Y760965D01*
X496552D02*
X496840Y760171D01*
X496840D02*
Y759378D01*
X496840D02*
X496552Y758584D01*
X496263Y758187*
X496263D02*
X495397Y757790D01*
X492800D02*
X495397D01*
X495397D02*
X496263Y757393D01*
X496263D02*
X496552Y756996D01*
X496552D02*
X496840Y756203D01*
X496840D02*
Y755012D01*
X496840D02*
X496552Y754218D01*
X496552D02*
X496263Y753821D01*
X496263D02*
X495397Y753425D01*
X495397D02*
X492800D01*
X501170Y761759D02*
X500593Y761362D01*
X500593D02*
X500015Y760568D01*
X500015D02*
X499727Y759775D01*
X499438Y758584*
X499438D02*
Y756600D01*
X499438D02*
X499727Y755409D01*
X500015Y754615*
X500015D02*
X500593Y753821D01*
X500593D02*
X501170Y753425D01*
X502325*
X502902Y753821*
X502902D02*
X503479Y754615D01*
X503479D02*
X503768Y755409D01*
X504056Y756600*
X504056D02*
Y758584D01*
X504056D02*
X503768Y759775D01*
X503479Y760568*
X503479D02*
X502902Y761362D01*
X502902D02*
X502325Y761759D01*
X501170*
X508963D02*
X506654Y753425D01*
X508963Y761759D02*
X511272Y753425D01*
X507520Y756203D02*
X510406D01*
X513870Y761759D02*
Y753425D01*
Y761759D02*
X516468D01*
X517334Y761362*
X517334D02*
X517622Y760965D01*
X517622D02*
X517911Y760171D01*
X517911D02*
Y759378D01*
X517622Y758584*
X517622D02*
X517334Y758187D01*
X517334D02*
X516468Y757790D01*
X516468D02*
X513870D01*
X515890D02*
X517911Y753425D01*
X520509Y761759D02*
Y753425D01*
Y761759D02*
X522529D01*
X522529D02*
X523395Y761362D01*
X523395D02*
X523972Y760568D01*
X523972D02*
X524261Y759775D01*
X524550Y758584*
Y756600*
X524261Y755409*
X523972Y754615*
X523972D02*
X523395Y753821D01*
X523395D02*
X522529Y753425D01*
X522529D02*
X520509D01*
X533786Y761759D02*
Y753425D01*
Y761759D02*
X537827Y753425D01*
Y761759D02*
Y753425D01*
X542734Y761759D02*
X540425Y753425D01*
X542734Y761759D02*
X545043Y753425D01*
X541290Y756203D02*
X544177D01*
X547640Y761759D02*
Y753425D01*
Y761759D02*
X549950Y753425D01*
X552259Y761759D02*
X549950Y753425D01*
X552259Y761759D02*
Y753425D01*
X554856Y761759D02*
Y753425D01*
Y761759D02*
X558609D01*
X554856Y757790D02*
X557165D01*
X554856Y753425D02*
X558609D01*
X492800Y679209D02*
Y670875D01*
Y679209D02*
X494820D01*
X495686Y678812*
X495686D02*
X496263Y678018D01*
X496263D02*
X496552Y677225D01*
X496840Y676034*
X496840D02*
Y674050D01*
X496840D02*
X496552Y672859D01*
X496263Y672065*
X496263D02*
X495686Y671271D01*
X495686D02*
X494820Y670875D01*
X492800*
X499438Y679209D02*
Y670875D01*
Y679209D02*
X503190D01*
X499438Y675240D02*
X501747D01*
X499438Y670875D02*
X503190D01*
X509829Y678018D02*
X509252Y678812D01*
X509252D02*
X508386Y679209D01*
X507231*
X507231D02*
X506365Y678812D01*
X506365D02*
X505788Y678018D01*
X505788D02*
Y677225D01*
X505788D02*
X506077Y676431D01*
X506365Y676034*
X506365D02*
X506943Y675637D01*
X506943D02*
X508675Y674843D01*
X508675D02*
X509252Y674446D01*
X509252D02*
X509540Y674050D01*
X509540D02*
X509829Y673256D01*
X509829D02*
Y672065D01*
X509829D02*
X509252Y671271D01*
X509252D02*
X508386Y670875D01*
X507231*
X507231D02*
X506365Y671271D01*
X506365D02*
X505788Y672065D01*
X516756Y677225D02*
X516468Y678018D01*
X516468D02*
X515890Y678812D01*
X515890D02*
X515313Y679209D01*
X515313D02*
X514159D01*
X513581Y678812*
X513581D02*
X513004Y678018D01*
X513004D02*
X512715Y677225D01*
X512715D02*
X512427Y676034D01*
Y674050*
X512715Y672859*
X512715D02*
X513004Y672065D01*
X513004D02*
X513581Y671271D01*
X513581D02*
X514159Y670875D01*
X515313*
X515313D02*
X515890Y671271D01*
X515890D02*
X516468Y672065D01*
X516468D02*
X516756Y672859D01*
X891204Y758901D02*
Y750567D01*
Y758901D02*
X893802D01*
X893802D02*
X894668Y758505D01*
X894957Y758108*
X895245Y757314*
X895245D02*
Y756520D01*
X895245D02*
X894957Y755726D01*
X894957D02*
X894668Y755330D01*
X893802Y754933*
X891204*
X893225D02*
X895245Y750567D01*
X897843Y758901D02*
Y750567D01*
Y758901D02*
X901595D01*
X897843Y754933D02*
X900152D01*
X897843Y750567D02*
X901595D01*
X904193Y758901D02*
X906502Y750567D01*
X908811Y758901D02*
X906502Y750567D01*
X916604Y760489D02*
X911409Y747789D01*
X919202Y758901D02*
Y750567D01*
X925841Y757711D02*
X925263Y758505D01*
X925263D02*
X924397Y758901D01*
X924397D02*
X923243D01*
X923243D02*
X922377Y758505D01*
X921800Y757711*
Y756917*
X921800D02*
X922088Y756123D01*
X922088D02*
X922377Y755726D01*
X922377D02*
X922954Y755330D01*
X922954D02*
X924686Y754536D01*
X924686D02*
X925263Y754139D01*
X925263D02*
X925552Y753742D01*
X925552D02*
X925841Y752948D01*
X925841D02*
Y751758D01*
X925263Y750964*
X925263D02*
X924397Y750567D01*
X924397D02*
X923243D01*
X923243D02*
X922377Y750964D01*
X921800Y751758*
X932479Y757711D02*
X931902Y758505D01*
X931036Y758901*
X931036D02*
X929882D01*
X929882D02*
X929016Y758505D01*
X928438Y757711*
X928438D02*
Y756917D01*
X928438D02*
X928727Y756123D01*
X928727D02*
X929016Y755726D01*
X929016D02*
X929593Y755330D01*
X931325Y754536*
X931902Y754139*
X932191Y753742*
X932191D02*
X932479Y752948D01*
X932479D02*
Y751758D01*
X932479D02*
X931902Y750964D01*
X931036Y750567*
X931036D02*
X929882D01*
X929882D02*
X929016Y750964D01*
X928438Y751758*
X327700Y638331D02*
X328854Y632775D01*
X330009Y638331D02*
X328854Y632775D01*
X330009Y638331D02*
X331163Y632775D01*
X332318Y638331D02*
X331163Y632775D01*
X334915Y638331D02*
X336070Y632775D01*
X337225Y638331D02*
X336070Y632775D01*
X337225Y638331D02*
X338379Y632775D01*
X339534Y638331D02*
X338379Y632775D01*
X342131Y638331D02*
X343286Y632775D01*
X344440Y638331D02*
X343286Y632775D01*
X344440Y638331D02*
X345595Y632775D01*
X346750Y638331D02*
X345595Y632775D01*
X349636Y633568D02*
X349347Y633171D01*
X349347D02*
X349636Y632775D01*
X349925Y633171*
X349925D02*
X349636Y633568D01*
X355986Y637140D02*
X355409Y637934D01*
X354831Y638331*
X354831D02*
X353965D01*
X353965D02*
X353388Y637934D01*
X353388D02*
X352811Y637140D01*
X352811D02*
X352522Y635950D01*
X352522D02*
Y635156D01*
X352522D02*
X352811Y633965D01*
X352811D02*
X353388Y633171D01*
X353388D02*
X353965Y632775D01*
X353965D02*
X354831D01*
X354831D02*
X355409Y633171D01*
X355409D02*
X355986Y633965D01*
X362047Y638331D02*
Y632775D01*
Y637140D02*
X361470Y637934D01*
X360893Y638331*
X360027*
X359450Y637934*
X358872Y637140*
X358872D02*
X358584Y635950D01*
Y635156*
X358872Y633965*
X358872D02*
X359450Y633171D01*
X359450D02*
X360027Y632775D01*
X360893*
X361470Y633171*
X361470D02*
X362047Y633965D01*
X368109Y641109D02*
Y632775D01*
Y637140D02*
X367531Y637934D01*
X367531D02*
X366954Y638331D01*
X366954D02*
X366088D01*
X366088D02*
X365511Y637934D01*
X364934Y637140*
X364934D02*
X364645Y635950D01*
Y635156*
X364934Y633965*
X364934D02*
X365511Y633171D01*
X365511D02*
X366088Y632775D01*
X366088D02*
X366954D01*
X366954D02*
X367531Y633171D01*
X367531D02*
X368109Y633965D01*
X370706Y635950D02*
X374170D01*
Y636743*
X374170D02*
X373881Y637537D01*
X373881D02*
X373593Y637934D01*
X373015Y638331*
X373015D02*
X372150D01*
X371572Y637934*
X371572D02*
X370995Y637140D01*
X370995D02*
X370706Y635950D01*
X370706D02*
Y635156D01*
X370706D02*
X370995Y633965D01*
X370995D02*
X371572Y633171D01*
X371572D02*
X372150Y632775D01*
X373015*
X373015D02*
X373593Y633171D01*
X373593D02*
X374170Y633965D01*
X376768Y638331D02*
Y632775D01*
Y636743D02*
X377634Y637934D01*
X378211Y638331*
X379077*
X379654Y637934*
X379654D02*
X379943Y636743D01*
X379943D02*
Y632775D01*
X382540Y635950D02*
X386004D01*
X386004D02*
Y636743D01*
X386004D02*
X385715Y637537D01*
X385715D02*
X385427Y637934D01*
X384850Y638331*
X383984*
X383406Y637934*
X383406D02*
X382829Y637140D01*
X382829D02*
X382540Y635950D01*
X382540D02*
Y635156D01*
X382540D02*
X382829Y633965D01*
X382829D02*
X383406Y633171D01*
X383406D02*
X383984Y632775D01*
X384850*
X385427Y633171*
X385427D02*
X386004Y633965D01*
X388602Y638331D02*
Y632775D01*
Y635950D02*
X388890Y637140D01*
X388890D02*
X389468Y637934D01*
X390045Y638331*
X390911*
X396972D02*
Y631981D01*
X396972D02*
X396684Y630790D01*
X396684D02*
X396395Y630393D01*
X396395D02*
X395818Y629996D01*
X395818D02*
X394952D01*
X394952D02*
X394375Y630393D01*
X396972Y637140D02*
X396395Y637934D01*
X395818Y638331*
X394952*
X394375Y637934*
X393797Y637140*
X393797D02*
X393509Y635950D01*
Y635156*
X393797Y633965*
X393797D02*
X394375Y633171D01*
X394375D02*
X394952Y632775D01*
X395818*
X396395Y633171*
X396395D02*
X396972Y633965D01*
X399859Y638331D02*
X401590Y632775D01*
X403322Y638331D02*
X401590Y632775D01*
X401590D02*
X401013Y631187D01*
X401013D02*
X400436Y630393D01*
X400436D02*
X399859Y629996D01*
X399859D02*
X399570D01*
X406209Y633568D02*
X405920Y633171D01*
X405920D02*
X406209Y632775D01*
X406497Y633171*
X406497D02*
X406209Y633568D01*
X412559Y637140D02*
X411981Y637934D01*
X411981D02*
X411404Y638331D01*
X411404D02*
X410538D01*
X410538D02*
X409961Y637934D01*
X409384Y637140*
X409384D02*
X409095Y635950D01*
Y635156*
X409384Y633965*
X409384D02*
X409961Y633171D01*
X409961D02*
X410538Y632775D01*
X410538D02*
X411404D01*
X411404D02*
X411981Y633171D01*
X411981D02*
X412559Y633965D01*
X416600Y638331D02*
X416022Y637934D01*
X416022D02*
X415445Y637140D01*
X415445D02*
X415156Y635950D01*
X415156D02*
Y635156D01*
X415156D02*
X415445Y633965D01*
X415445D02*
X416022Y633171D01*
X416022D02*
X416600Y632775D01*
X417465*
X417465D02*
X418043Y633171D01*
X418043D02*
X418620Y633965D01*
X418620D02*
X418909Y635156D01*
Y635950*
X418620Y637140*
X418620D02*
X418043Y637934D01*
X417465Y638331*
X417465D02*
X416600D01*
X421506D02*
Y632775D01*
Y636743D02*
X422372Y637934D01*
X422372D02*
X422950Y638331D01*
X423815*
X423815D02*
X424393Y637934D01*
X424681Y636743*
X424681D02*
Y632775D01*
Y636743D02*
X425547Y637934D01*
X425547D02*
X426125Y638331D01*
X426990*
X426990D02*
X427568Y637934D01*
X427856Y636743*
X427856D02*
Y632775D01*
G54D23*
G54D29*
X487462Y450858D02*
Y437142D01*
X460538*
Y450858*
X487462*
Y562858D02*
Y549142D01*
X460538*
Y562858*
X487462*
Y514858D02*
Y501142D01*
X460538*
Y514858*
X487462*
Y530858D02*
Y517142D01*
X460538*
Y530858*
X487462*
Y546858D02*
Y533142D01*
X460538*
Y546858*
X487462*
Y498858D02*
Y485142D01*
X460538*
Y498858*
X487462*
Y482858D02*
Y469142D01*
X460538*
Y482858*
X487462*
Y466858D02*
Y453142D01*
X460538*
Y466858*
X487462*
G54D81*
X385710Y482140D02*
X384440D01*
Y527860*
X385710*
X454290D02*
X455560D01*
Y482140*
X454290*
X384440Y501190D02*
X390790D01*
Y508810*
X384440*
X514867Y436653D02*
X515648Y436369D01*
X516429Y435801*
X516429D02*
X516820Y435233D01*
Y434096*
X516820D02*
X516429Y433528D01*
X516429D02*
X515648Y432960D01*
X514867Y432676*
X513695Y432392*
X511742*
X510570Y432676*
X509789Y432960*
X509007Y433528*
X509007D02*
X508617Y434096D01*
X508617D02*
Y435233D01*
X509007Y435801*
X509007D02*
X509789Y436369D01*
X510570Y436653*
X516820Y442903D02*
Y440062D01*
X516820D02*
X513304Y439778D01*
X513304D02*
X513695Y440062D01*
X513695D02*
X514085Y440914D01*
X514085D02*
Y441767D01*
X514085D02*
X513695Y442619D01*
X512914Y443187*
X512914D02*
X511742Y443471D01*
X511742D02*
X510960Y443187D01*
X510960D02*
X509789Y442903D01*
X509007Y442335*
X509007D02*
X508617Y441483D01*
Y440630*
X508617D02*
X509007Y439778D01*
X509007D02*
X509398Y439494D01*
X510179Y439210*
X504117Y436687D02*
X504898Y436403D01*
X505679Y435835*
X505679D02*
X506070Y435267D01*
Y434130*
X506070D02*
X505679Y433562D01*
X505679D02*
X504898Y432994D01*
X504117Y432710*
X502945Y432426*
X500992*
X499820Y432710*
X499039Y432994*
X498257Y433562*
X498257D02*
X497867Y434130D01*
X497867D02*
Y435267D01*
X498257Y435835*
X498257D02*
X499039Y436403D01*
X499820Y436687*
X504898Y442653D02*
X505679Y442369D01*
X505679D02*
X506070Y441517D01*
Y440948*
X506070D02*
X505679Y440096D01*
X505679D02*
X504507Y439528D01*
X504507D02*
X502554Y439244D01*
X502554D02*
X500601D01*
X500601D02*
X499039Y439528D01*
X498257Y440096*
X498257D02*
X497867Y440948D01*
X497867D02*
Y441233D01*
X498257Y442085*
X498257D02*
X499039Y442653D01*
X500210Y442937*
X500210D02*
X500601D01*
X500601D02*
X501773Y442653D01*
X502554Y442085*
X502554D02*
X502945Y441233D01*
Y440948*
X502945D02*
X502554Y440096D01*
X502554D02*
X501773Y439528D01*
X500601Y439244*
X385954Y542734D02*
Y535703D01*
X385954D02*
X385613Y534296D01*
X385613D02*
X384931Y533359D01*
X384931D02*
X383909Y532890D01*
X383909D02*
X383227D01*
X383227D02*
X382204Y533359D01*
X382204D02*
X381522Y534296D01*
X381522D02*
X381181Y535703D01*
X381181D02*
Y542734D01*
X378113Y540859D02*
X377431Y541328D01*
X377431D02*
X376409Y542734D01*
Y532890*
X530570Y554204D02*
X522367D01*
X530570D02*
Y556761D01*
X530179Y557613*
X530179D02*
X529789Y557897D01*
X529789D02*
X529007Y558181D01*
X529007D02*
X528226D01*
X528226D02*
X527445Y557897D01*
X527445D02*
X527054Y557613D01*
X527054D02*
X526664Y556761D01*
Y554204*
Y556193D02*
X522367Y558181D01*
X529007Y560738D02*
X529398Y561306D01*
X529398D02*
X530570Y562159D01*
X522367*
X495656Y433250D02*
X489093D01*
X495656D02*
Y435295D01*
X495343Y435977*
X495343D02*
X495031Y436204D01*
X495031D02*
X494406Y436431D01*
X494406D02*
X493781D01*
X493781D02*
X493156Y436204D01*
X493156D02*
X492843Y435977D01*
X492843D02*
X492531Y435295D01*
Y433250*
Y434840D02*
X489093Y436431D01*
X494406Y438477D02*
X494718Y438931D01*
X494718D02*
X495656Y439613D01*
X495656D02*
X489093D01*
X495656Y443022D02*
X495343Y442340D01*
X495343D02*
X494406Y441886D01*
X492843Y441659*
X492843D02*
X491906D01*
X490343Y441886*
X490343D02*
X489406Y442340D01*
X489406D02*
X489093Y443022D01*
X489093D02*
Y443477D01*
X489093D02*
X489406Y444159D01*
X490343Y444613*
X490343D02*
X491906Y444840D01*
X491906D02*
X492843D01*
X492843D02*
X494406Y444613D01*
X494406D02*
X495343Y444159D01*
X495343D02*
X495656Y443477D01*
Y443022*
X498070Y554215D02*
X489867D01*
X498070D02*
Y556772D01*
X498070D02*
X497679Y557625D01*
X497679D02*
X497289Y557909D01*
X496507Y558193*
X496507D02*
X495726D01*
X495726D02*
X494945Y557909D01*
X494554Y557625*
X494554D02*
X494164Y556772D01*
X494164D02*
Y554215D01*
Y556204D02*
X489867Y558193D01*
X496507Y560750D02*
X496898Y561318D01*
X498070Y562170*
X489867*
X496507Y564727D02*
X496898Y565295D01*
X498070Y566147*
X498070D02*
X489867D01*
X506312Y512570D02*
Y504367D01*
Y512570D02*
X503755D01*
X503755D02*
X502903Y512179D01*
X502903D02*
X502619Y511789D01*
X502335Y511007*
X502335D02*
Y510226D01*
X502335D02*
X502619Y509445D01*
X502903Y509054*
X502903D02*
X503755Y508664D01*
X503755D02*
X506312D01*
X504323D02*
X502335Y504367D01*
X499778Y511007D02*
X499210Y511398D01*
X498358Y512570*
Y504367*
X495517Y510617D02*
Y511007D01*
X495517D02*
X495233Y511789D01*
X494948Y512179*
X494948D02*
X494380Y512570D01*
X494380D02*
X493244D01*
X492676Y512179*
X492676D02*
X492392Y511789D01*
X492108Y511007*
X492108D02*
Y510226D01*
X492108D02*
X492392Y509445D01*
X492960Y508273*
X495801Y504367*
X491823*
X505812Y527820D02*
Y519617D01*
Y527820D02*
X503255D01*
X503255D02*
X502403Y527429D01*
X502403D02*
X502119Y527039D01*
X501835Y526257*
X501835D02*
Y525476D01*
X501835D02*
X502119Y524695D01*
X502403Y524304*
X502403D02*
X503255Y523914D01*
X503255D02*
X505812D01*
X503823D02*
X501835Y519617D01*
X499278Y526257D02*
X498710Y526648D01*
X497858Y527820*
Y519617*
X494733Y527820D02*
X491608D01*
X493312Y524695*
X493312D02*
X492460D01*
X491892Y524304*
X491892D02*
X491608Y523914D01*
X491323Y522742*
X491323D02*
Y521960D01*
X491323D02*
X491608Y520789D01*
X492176Y520007*
X492176D02*
X493028Y519617D01*
X493880*
X493880D02*
X494733Y520007D01*
X494733D02*
X495017Y520398D01*
X495301Y521179*
X457954Y551820D02*
Y543617D01*
Y551820D02*
X455397D01*
X455397D02*
X454545Y551429D01*
X454545D02*
X454261Y551039D01*
X453977Y550257*
X453977D02*
Y549476D01*
X453977D02*
X454261Y548695D01*
X454545Y548304*
X454545D02*
X455397Y547914D01*
X455397D02*
X457954D01*
X455965D02*
X453977Y543617D01*
X451420Y550257D02*
X450852Y550648D01*
X450000Y551820*
Y543617*
X444602Y551820D02*
X447443Y546351D01*
X447443D02*
X443181D01*
X444602Y551820D02*
Y543617D01*
X503073Y497320D02*
Y489117D01*
Y497320D02*
X500517D01*
X499664Y496929*
X499664D02*
X499380Y496539D01*
X499380D02*
X499096Y495757D01*
X499096D02*
Y494976D01*
X499096D02*
X499380Y494195D01*
X499380D02*
X499664Y493804D01*
X499664D02*
X500517Y493414D01*
X503073*
X501085D02*
X499096Y489117D01*
X492562Y497320D02*
X495403Y489117D01*
X496539Y497320D02*
X492562D01*
X502323Y486570D02*
Y478367D01*
Y486570D02*
X499767D01*
X498914Y486179*
X498914D02*
X498630Y485789D01*
X498630D02*
X498346Y485007D01*
X498346D02*
Y484226D01*
X498346D02*
X498630Y483445D01*
X498630D02*
X498914Y483054D01*
X498914D02*
X499767Y482664D01*
X502323*
X500335D02*
X498346Y478367D01*
X494369Y486570D02*
X495221Y486179D01*
X495221D02*
X495505Y485398D01*
X495505D02*
Y484617D01*
X495505D02*
X495221Y483835D01*
X495221D02*
X494653Y483445D01*
X493517Y483054*
X493517D02*
X492664Y482664D01*
X492664D02*
X492096Y481882D01*
X492096D02*
X491812Y481101D01*
X491812D02*
Y479929D01*
X491812D02*
X492096Y479148D01*
X492096D02*
X492380Y478757D01*
X492380D02*
X493233Y478367D01*
X494369*
X495221Y478757*
X495221D02*
X495505Y479148D01*
X495505D02*
X495789Y479929D01*
X495789D02*
Y481101D01*
X495789D02*
X495505Y481882D01*
X495505D02*
X494937Y482664D01*
X494085Y483054*
X494085D02*
X492948Y483445D01*
X492948D02*
X492380Y483835D01*
X492380D02*
X492096Y484617D01*
X492096D02*
Y485398D01*
X492096D02*
X492380Y486179D01*
X492380D02*
X493233Y486570D01*
X494369*
X502931Y476320D02*
Y468117D01*
Y476320D02*
X500375D01*
X499522Y475929*
X499522D02*
X499238Y475539D01*
X499238D02*
X498954Y474757D01*
X498954D02*
Y473976D01*
X498954D02*
X499238Y473195D01*
X499238D02*
X499522Y472804D01*
X499522D02*
X500375Y472414D01*
X502931*
X500943D02*
X498954Y468117D01*
X492704Y473585D02*
X492988Y472414D01*
X492988D02*
X493556Y471632D01*
X493556D02*
X494409Y471242D01*
X494693*
X495545Y471632*
X495545D02*
X496113Y472414D01*
X496113D02*
X496397Y473585D01*
X496397D02*
Y473976D01*
X496397D02*
X496113Y475148D01*
X496113D02*
X495545Y475929D01*
X495545D02*
X494693Y476320D01*
X494409*
X493556Y475929*
X493556D02*
X492988Y475148D01*
X492988D02*
X492704Y473585D01*
X492704D02*
Y471632D01*
X492704D02*
X492988Y469679D01*
X492988D02*
X493556Y468507D01*
X493556D02*
X494409Y468117D01*
X494977*
X495829Y468507*
X495829D02*
X496113Y469289D01*
X528820Y432676D02*
X520617D01*
X528820D02*
Y435233D01*
X528429Y436085*
X528429D02*
X528039Y436369D01*
X527257Y436653*
X527257D02*
X526476D01*
X526476D02*
X525695Y436369D01*
X525304Y436085*
X525304D02*
X524914Y435233D01*
Y432676*
Y434664D02*
X520617Y436653D01*
X526867Y439494D02*
X527257D01*
X527257D02*
X528039Y439778D01*
X528429Y440062*
X528429D02*
X528820Y440630D01*
X528820D02*
Y441767D01*
X528429Y442335*
X528429D02*
X528039Y442619D01*
X527257Y442903*
X527257D02*
X526476D01*
X526476D02*
X525695Y442619D01*
X524523Y442051*
X520617Y439210*
Y443187*
X508570Y554426D02*
X500367D01*
X508570D02*
Y556983D01*
X508179Y557835*
X508179D02*
X507789Y558119D01*
X507007Y558403*
X507007D02*
X506226D01*
X506226D02*
X505445Y558119D01*
X505054Y557835*
X505054D02*
X504664Y556983D01*
Y554426*
Y556414D02*
X500367Y558403D01*
X508570Y561528D02*
Y564653D01*
X505445Y562948*
X505445D02*
Y563801D01*
X505054Y564369*
X505054D02*
X504664Y564653D01*
X503492Y564937*
X503492D02*
X502710D01*
X502710D02*
X501539Y564653D01*
X500757Y564085*
X500757D02*
X500367Y563233D01*
Y562380*
X500367D02*
X500757Y561528D01*
X500757D02*
X501148Y561244D01*
X501929Y560960*
X539656Y553227D02*
X533093D01*
X539656D02*
Y555272D01*
X539656D02*
X539343Y555954D01*
X539343D02*
X539031Y556181D01*
X539031D02*
X538406Y556409D01*
X537781*
X537156Y556181*
X537156D02*
X536843Y555954D01*
X536843D02*
X536531Y555272D01*
X536531D02*
Y553227D01*
Y554818D02*
X533093Y556409D01*
X539656Y560727D02*
X535281Y558454D01*
X535281D02*
Y561863D01*
X539656Y560727D02*
X533093D01*
X520570Y554284D02*
X512367D01*
X520570D02*
Y556840D01*
X520570D02*
X520179Y557693D01*
X520179D02*
X519789Y557977D01*
X519007Y558261*
X519007D02*
X518226D01*
X518226D02*
X517445Y557977D01*
X517054Y557693*
X517054D02*
X516664Y556840D01*
X516664D02*
Y554284D01*
Y556272D02*
X512367Y558261D01*
X520570Y564511D02*
Y561670D01*
X517054Y561386*
X517054D02*
X517445Y561670D01*
X517835Y562522*
X517835D02*
Y563375D01*
X517835D02*
X517445Y564227D01*
X516664Y564795*
X515492Y565079*
X515492D02*
X514710Y564795D01*
X514710D02*
X513539Y564511D01*
X512757Y563943*
X512757D02*
X512367Y563090D01*
X512367D02*
Y562238D01*
X512367D02*
X512757Y561386D01*
X512757D02*
X513148Y561102D01*
X513929Y560818*
X540820Y432818D02*
X532617D01*
X540820D02*
Y435375D01*
X540429Y436227*
X540429D02*
X540039Y436511D01*
X539257Y436795*
X539257D02*
X538476D01*
X538476D02*
X537695Y436511D01*
X537304Y436227*
X537304D02*
X536914Y435375D01*
Y432818*
Y434806D02*
X532617Y436795D01*
X539648Y442761D02*
X540429Y442477D01*
X540429D02*
X540820Y441625D01*
Y441056*
X540820D02*
X540429Y440204D01*
X540429D02*
X539257Y439636D01*
X539257D02*
X537304Y439352D01*
X537304D02*
X535351D01*
X535351D02*
X533789Y439636D01*
X533007Y440204*
X533007D02*
X532617Y441056D01*
X532617D02*
Y441340D01*
X532617D02*
X533007Y442193D01*
X533007D02*
X533789Y442761D01*
X534960Y443045*
X534960D02*
X535351D01*
X535351D02*
X536523Y442761D01*
X537304Y442193*
X537304D02*
X537695Y441340D01*
X537695D02*
Y441056D01*
X537695D02*
X537304Y440204D01*
X537304D02*
X536523Y439636D01*
X535351Y439352*
X558522Y468156D02*
Y461593D01*
X560113Y468156D02*
X556931D01*
X554886D02*
Y461593D01*
Y468156D02*
X552840D01*
X552840D02*
X552159Y467843D01*
X552159D02*
X551931Y467531D01*
X551931D02*
X551704Y466906D01*
X551704D02*
Y465968D01*
X551704D02*
X551931Y465343D01*
X551931D02*
X552159Y465031D01*
X552840Y464718*
X552840D02*
X554886D01*
X549659Y466906D02*
X549204Y467218D01*
X549204D02*
X548522Y468156D01*
X548522D02*
Y461593D01*
X545113Y468156D02*
X545795Y467843D01*
X545795D02*
X546250Y466906D01*
X546477Y465343*
X546477D02*
Y464406D01*
X546250Y462843*
X546250D02*
X545795Y461906D01*
X545113Y461593*
X545113D02*
X544659D01*
X544659D02*
X543977Y461906D01*
X543522Y462843*
X543522D02*
X543295Y464406D01*
Y465343*
X543295D02*
X543522Y466906D01*
X543522D02*
X543977Y467843D01*
X543977D02*
X544659Y468156D01*
X545113*
X556562Y483820D02*
Y475617D01*
X558551Y483820D02*
X554573D01*
X552017D02*
Y475617D01*
Y483820D02*
X549460D01*
X548608Y483429*
X548608D02*
X548323Y483039D01*
X548323D02*
X548039Y482257D01*
X548039D02*
Y481085D01*
X548039D02*
X548323Y480304D01*
X548323D02*
X548608Y479914D01*
X549460Y479523*
X552017*
X545483Y482257D02*
X544914Y482648D01*
X544914D02*
X544062Y483820D01*
X544062D02*
Y475617D01*
X541505Y482257D02*
X540937Y482648D01*
X540937D02*
X540085Y483820D01*
Y475617*
X557340Y499320D02*
Y491117D01*
X559329Y499320D02*
X555352D01*
X552795D02*
Y491117D01*
Y499320D02*
X550238D01*
X550238D02*
X549386Y498929D01*
X549386D02*
X549102Y498539D01*
X548818Y497757*
X548818D02*
Y496585D01*
X548818D02*
X549102Y495804D01*
X549102D02*
X549386Y495414D01*
X550238Y495023*
X550238D02*
X552795D01*
X546261Y497757D02*
X545693Y498148D01*
X544840Y499320*
X544840D02*
Y491117D01*
X542000Y497367D02*
Y497757D01*
X542000D02*
X541715Y498539D01*
X541715D02*
X541431Y498929D01*
X541431D02*
X540863Y499320D01*
X540863D02*
X539727D01*
X539159Y498929*
X539159D02*
X538875Y498539D01*
X538590Y497757*
X538590D02*
Y496976D01*
X538590D02*
X538875Y496195D01*
X539443Y495023*
X542284Y491117*
X538306*
X557340Y513570D02*
Y505367D01*
X559329Y513570D02*
X555352D01*
X552795D02*
Y505367D01*
Y513570D02*
X550238D01*
X550238D02*
X549386Y513179D01*
X549386D02*
X549102Y512789D01*
X548818Y512007*
X548818D02*
Y510835D01*
X548818D02*
X549102Y510054D01*
X549102D02*
X549386Y509664D01*
X550238Y509273*
X550238D02*
X552795D01*
X546261Y512007D02*
X545693Y512398D01*
X544840Y513570*
X544840D02*
Y505367D01*
X541715Y513570D02*
X538590D01*
X538590D02*
X540295Y510445D01*
X539443*
X538875Y510054*
X538875D02*
X538590Y509664D01*
X538590D02*
X538306Y508492D01*
X538306D02*
Y507710D01*
X538306D02*
X538590Y506539D01*
X538590D02*
X539159Y505757D01*
X539159D02*
X540011Y505367D01*
X540863*
X540863D02*
X541715Y505757D01*
X541715D02*
X542000Y506148D01*
X542284Y506929*
X557983Y529070D02*
Y520867D01*
X559971Y529070D02*
X555994D01*
X553437D02*
Y520867D01*
Y529070D02*
X550880D01*
X550880D02*
X550028Y528679D01*
X550028D02*
X549744Y528289D01*
X549460Y527507*
X549460D02*
Y526335D01*
X549460D02*
X549744Y525554D01*
X549744D02*
X550028Y525164D01*
X550880Y524773*
X550880D02*
X553437D01*
X546903Y527507D02*
X546335Y527898D01*
X545483Y529070*
Y520867*
X540085Y529070D02*
X542926Y523601D01*
X542926D02*
X538664D01*
X540085Y529070D02*
Y520867D01*
X558136Y543156D02*
Y536593D01*
X559727Y543156D02*
X556545D01*
X554500D02*
Y536593D01*
Y543156D02*
X552454D01*
X552454D02*
X551772Y542843D01*
X551772D02*
X551545Y542531D01*
X551318Y541906*
Y540968*
X551318D02*
X551545Y540343D01*
X551545D02*
X551772Y540031D01*
X551772D02*
X552454Y539718D01*
X552454D02*
X554500D01*
X549272Y541906D02*
X548818Y542218D01*
X548818D02*
X548136Y543156D01*
Y536593*
X543136Y543156D02*
X545409D01*
X545636Y540343*
X545636D02*
X545409Y540656D01*
X544727Y540968*
X544727D02*
X544045D01*
X544045D02*
X543363Y540656D01*
X543363D02*
X542909Y540031D01*
X542681Y539093*
X542681D02*
X542909Y538468D01*
X542909D02*
X543136Y537531D01*
X543590Y536906*
X543590D02*
X544272Y536593D01*
X544272D02*
X544954D01*
X544954D02*
X545636Y536906D01*
X545863Y537218*
X545863D02*
X546090Y537843D01*
X557409Y558156D02*
Y551593D01*
X559000Y558156D02*
X555818D01*
X553772D02*
Y551593D01*
Y558156D02*
X551727D01*
X551045Y557843*
X551045D02*
X550818Y557531D01*
X550590Y556906*
X550590D02*
Y555968D01*
X550590D02*
X550818Y555343D01*
X550818D02*
X551045Y555031D01*
X551727Y554718*
X551727D02*
X553772D01*
X548545Y556906D02*
X548090Y557218D01*
X548090D02*
X547409Y558156D01*
Y551593*
X542636Y557218D02*
X542863Y557843D01*
X542863D02*
X543545Y558156D01*
X544000*
X544681Y557843*
X544681D02*
X545136Y556906D01*
X545363Y555343*
X545363D02*
Y553781D01*
X545363D02*
X545136Y552531D01*
X544681Y551906*
X544681D02*
X544000Y551593D01*
X544000D02*
X543772D01*
X543772D02*
X543090Y551906D01*
X543090D02*
X542636Y552531D01*
X542409Y553468*
X542409D02*
Y553781D01*
X542636Y554718*
X542636D02*
X543090Y555343D01*
X543090D02*
X543772Y555656D01*
X543772D02*
X544000D01*
X544681Y555343*
X544681D02*
X545136Y554718D01*
X545136D02*
X545363Y553781D01*
X557318Y453656D02*
Y447093D01*
X558909Y453656D02*
X555727D01*
X553681D02*
Y447093D01*
Y453656D02*
X551636D01*
X550954Y453343*
X550954D02*
X550727Y453031D01*
X550500Y452406*
Y451468*
X550500D02*
X550727Y450843D01*
X550727D02*
X550954Y450531D01*
X550954D02*
X551636Y450218D01*
X551636D02*
X553681D01*
X545500Y451468D02*
X545727Y450531D01*
X546181Y449906*
X546181D02*
X546863Y449593D01*
X546863D02*
X547090D01*
X547090D02*
X547772Y449906D01*
X547772D02*
X548227Y450531D01*
X548454Y451468*
X548454D02*
Y451781D01*
X548454D02*
X548227Y452718D01*
X548227D02*
X547772Y453343D01*
X547772D02*
X547090Y453656D01*
X547090D02*
X546863D01*
X546863D02*
X546181Y453343D01*
X546181D02*
X545727Y452718D01*
X545727D02*
X545500Y451468D01*
X545500D02*
Y449906D01*
X545727Y448343*
X545727D02*
X546181Y447406D01*
X546181D02*
X546863Y447093D01*
X546863D02*
X547318D01*
X547318D02*
X548000Y447406D01*
X548227Y448031*
X380613Y444234D02*
Y436734D01*
X380613D02*
X380954Y435328D01*
X380954D02*
X381295Y434859D01*
X381977Y434390*
X381977D02*
X382659D01*
X382659D02*
X383340Y434859D01*
X383340D02*
X383681Y435328D01*
X383681D02*
X384022Y436734D01*
X384022D02*
Y437671D01*
X377545Y442359D02*
X376863Y442828D01*
X376863D02*
X375840Y444234D01*
X375840D02*
Y434390D01*
X429000Y463843D02*
Y454000D01*
Y463843D02*
X425931D01*
X425931D02*
X424909Y463375D01*
X424568Y462906*
X424227Y461968*
X424227D02*
Y460562D01*
X424227D02*
X424568Y459625D01*
X424909Y459156*
X425931Y458687*
X425931D02*
X429000D01*
X416045Y461500D02*
X416386Y462437D01*
X416386D02*
X417068Y463375D01*
X417750Y463843*
X417750D02*
X419113D01*
X419113D02*
X419795Y463375D01*
X420477Y462437*
X420477D02*
X420818Y461500D01*
X421159Y460093*
X421159D02*
Y457750D01*
X420818Y456343*
X420818D02*
X420477Y455406D01*
X419795Y454468*
X419795D02*
X419113Y454000D01*
X419113D02*
X417750D01*
X417068Y454468*
X417068D02*
X416386Y455406D01*
X416045Y456343*
X412977Y463843D02*
Y454000D01*
Y463843D02*
X409909D01*
X409909D02*
X408886Y463375D01*
X408545Y462906*
X408204Y461968*
X408204D02*
Y461031D01*
X408204D02*
X408545Y460093D01*
X408545D02*
X408886Y459625D01*
X409909Y459156*
X412977D02*
X409909D01*
X408886Y458687*
X408886D02*
X408545Y458218D01*
X408545D02*
X408204Y457281D01*
X408204D02*
Y455875D01*
X408204D02*
X408545Y454937D01*
X408545D02*
X408886Y454468D01*
X408886D02*
X409909Y454000D01*
X412977*
X405136Y461968D02*
X404454Y462437D01*
X404454D02*
X403431Y463843D01*
X403431D02*
Y454000D01*
X395931Y463843D02*
X399340D01*
X399340D02*
X399681Y459625D01*
X399681D02*
X399340Y460093D01*
X399340D02*
X398318Y460562D01*
X398318D02*
X397295D01*
X397295D02*
X396272Y460093D01*
X396272D02*
X395590Y459156D01*
X395590D02*
X395250Y457750D01*
X395590Y456812*
X395590D02*
X395931Y455406D01*
X395931D02*
X396613Y454468D01*
X396613D02*
X397636Y454000D01*
X398659*
X399681Y454468*
X399681D02*
X400022Y454937D01*
X400022D02*
X400363Y455875D01*
X388772Y463843D02*
X392181Y457281D01*
X392181D02*
X387068D01*
X388772Y463843D02*
Y454000D01*
X381954Y463843D02*
X382977Y463375D01*
X383659Y461968*
X383659D02*
X384000Y459625D01*
Y458218*
X384000D02*
X383659Y455875D01*
X382977Y454468*
X382977D02*
X381954Y454000D01*
X381954D02*
X381272D01*
X381272D02*
X380250Y454468D01*
X380250D02*
X379568Y455875D01*
X379227Y458218*
X379227D02*
Y459625D01*
X379568Y461968*
X379568D02*
X380250Y463375D01*
X381272Y463843*
X381272D02*
X381954D01*
X429000Y448593D02*
Y438750D01*
Y448593D02*
X425931D01*
X425931D02*
X424909Y448125D01*
X424568Y447656*
X424227Y446718*
X424227D02*
Y445781D01*
X424568Y444843*
X424568D02*
X424909Y444375D01*
X425931Y443906*
X425931D02*
X429000D01*
X426613D02*
X424227Y438750D01*
X421159Y442500D02*
X417068D01*
Y443437*
X417068D02*
X417409Y444375D01*
X417750Y444843*
X417750D02*
X418431Y445312D01*
X418431D02*
X419454D01*
X419454D02*
X420136Y444843D01*
X420136D02*
X420818Y443906D01*
X421159Y442500*
Y441562*
X421159D02*
X420818Y440156D01*
X420136Y439218*
X420136D02*
X419454Y438750D01*
X419454D02*
X418431D01*
X418431D02*
X417750Y439218D01*
X417750D02*
X417068Y440156D01*
X414000Y445312D02*
X411954Y438750D01*
X409909Y445312D02*
X411954Y438750D01*
X399000Y448593D02*
Y438750D01*
Y448593D02*
X395931D01*
X395931D02*
X394909Y448125D01*
X394568Y447656*
X394227Y446718*
X394227D02*
Y445781D01*
X394568Y444843*
X394568D02*
X394909Y444375D01*
X395931Y443906*
X399000D02*
X395931D01*
X395931D02*
X394909Y443437D01*
X394909D02*
X394568Y442968D01*
X394568D02*
X394227Y442031D01*
Y440625*
X394568Y439687*
X394568D02*
X394909Y439218D01*
X394909D02*
X395931Y438750D01*
X395931D02*
X399000D01*
X394172Y567659D02*
X423212D01*
X431462Y548849*
X419252*
X418592Y550499D02*
G03X419252Y548849I727J-666D01*
G01X418592Y550499D02*
X424202Y556109D01*
X424199Y556105D02*
G03X419912Y564359I-4445J2931D01*
G01X395492*
X394172Y567659*
X414533Y544559D02*
X407801Y560069D01*
X419978*
X420571Y558253D02*
G03X419978Y560069I-700J776D01*
G01X420572Y558254D02*
X415820Y553667D01*
X415821Y553668D02*
G03X417567Y544889I3850J-3796D01*
G01X417437Y544559D02*
G03X417569Y544889I20J183D01*
G01X417437Y544559D02*
X414533D01*
X410045D02*
X404105D01*
X397373Y560135*
X403280*
X410045Y544559*
X430897Y549063D02*
X419162D01*
X419162D02*
X418743Y549482D01*
X418743D02*
Y549901D01*
X418743D02*
X425030Y556188D01*
X425449Y559121*
X425449D02*
X424611Y562474D01*
X424611D02*
X422934Y564151D01*
X422934D02*
X420420Y564989D01*
X396112*
X394855Y567084*
X394855D02*
X422934D01*
X422934D02*
X430897Y549063D01*
X430059Y549482D02*
X419162D01*
X419162D02*
X425449Y555769D01*
X425868Y559121*
X425868D02*
X423773Y564151D01*
X422096Y564989*
X422096D02*
X420839Y565408D01*
X396112*
X395693Y566665*
X395693D02*
X422515D01*
X422515D02*
X430059Y549482D01*
X429221Y549901D02*
X420420D01*
X420420D02*
X425868Y555769D01*
X425868D02*
X426287Y557445D01*
X426287D02*
X422096Y566246D01*
X422096D02*
X396112D01*
X396112D02*
X396531Y565827D01*
X396531D02*
X421258D01*
X421258D02*
X422934Y564989D01*
X422934D02*
X422515Y565827D01*
X422515D02*
X421258D01*
X426706Y556188D02*
X429221Y550320D01*
X429221D02*
X421677D01*
X421677D02*
X426706Y556188D01*
X426706D02*
X428802Y550739D01*
X428802D02*
X422515D01*
X422515D02*
X426706Y555350D01*
X426706D02*
X428383Y551159D01*
X423353*
X423353D02*
X426706Y554511D01*
X426706D02*
X427964Y551578D01*
X424192*
X426706Y554092*
X426706D02*
X427544Y551997D01*
X427544D02*
X425030D01*
X426706Y553673*
X426706D02*
X427125Y552416D01*
X427125D02*
X425868D01*
X425868D02*
X426706Y553254D01*
X426706D02*
Y552416D01*
X426706D02*
X426287D01*
X426287D02*
X426706Y552835D01*
X420001Y559541D02*
X420420Y559121D01*
X420420D02*
Y558702D01*
X420420D02*
X414971Y553673D01*
X414971D02*
X413714Y550739D01*
X413714D02*
Y548644D01*
X413714D02*
X414971Y546548D01*
X414971D02*
X416229Y545291D01*
X416229D02*
X414971D01*
X414971D02*
X408685Y559541D01*
X420001*
Y559121D02*
X414971Y554511D01*
X414971D02*
X413295Y551159D01*
X413295D02*
Y549901D01*
X413295D02*
X409523Y559121D01*
X409523D02*
X419582D01*
X419582D02*
X414552Y554511D01*
X414552D02*
X413295Y550739D01*
X413295D02*
X410361Y558702D01*
X410361D02*
X418743D01*
X418743D02*
X414133Y554511D01*
X414133D02*
X413295Y551578D01*
X413295D02*
X411200Y558283D01*
X411200D02*
X417905D01*
X417905D02*
X413714Y554930D01*
X413714D02*
X413295Y552416D01*
X413295D02*
X411619Y558283D01*
X411619D02*
X417486D01*
X417486D02*
X413295Y555350D01*
X413295D02*
X413714Y553254D01*
X413714D02*
X412038Y557864D01*
X412038D02*
X417067D01*
X415810Y557445D02*
X413295Y555769D01*
X413295D02*
X412457Y557445D01*
X412457D02*
X415391D01*
X415391D02*
X413295Y556188D01*
X413295D02*
X412876Y557026D01*
Y557445*
X412876D02*
X414552D01*
X414552D02*
X413295Y556607D01*
X413295D02*
Y557026D01*
X413295D02*
X414971D01*
X402818Y559541D02*
X409104Y545291D01*
X409104D02*
X404494D01*
X404494D02*
X398207Y559541D01*
X398207D02*
X402818D01*
X402398Y559121D02*
X408266Y545710D01*
X408266D02*
X404913D01*
X404913D02*
X399046Y559121D01*
X399046D02*
X402398D01*
X402398D02*
Y558702D01*
X402398D02*
X407847Y546129D01*
X407847D02*
X405332D01*
X405332D02*
X399465Y558702D01*
X399465D02*
X401979D01*
X401979D02*
X407428Y546548D01*
X407428D02*
X405332D01*
X405332D02*
X399884Y558283D01*
X399884D02*
X401560D01*
X401560D02*
X407009Y546968D01*
X405332*
X405332D02*
X400303Y557864D01*
X400303D02*
X401560D01*
X401560D02*
X406589Y547387D01*
X406589D02*
X405332D01*
X405332D02*
X400722Y557445D01*
X400722D02*
X401560D01*
X401560D02*
X405751Y547806D01*
X405751D02*
X405332D01*
X405332D02*
X401141Y557864D01*
X492000Y467250D02*
X488875Y464125D01*
G74*
X0Y0D02*
M02*
