%
T1C.4F0S0
X03845Y044475
X03845Y046
X0372Y04775
X03775Y049275
X03775Y051725
X03705Y054
X041825Y055525
X039725Y0555
X045625Y05365
X044175Y0518
X04315Y0518
X0452Y0518
X042125Y051775
X0411Y051775
X040075Y051775
X042125Y04925
X044175Y04925
X040075Y04925
X0452Y04925
X0411Y04925
X04315Y04925
X04565Y04835
X045675Y0471
X0409Y045925
X043Y045175
X040975Y0446
X0512Y044125
X05Y044125
X04895Y0444
X04895Y046
X0459Y046175
X05Y046975
X0512Y046975
X049075Y0476
X05015Y0484
X049075Y0492
X050125Y05
X049075Y0508
X0508Y0516
X0512Y052825
X049025Y054
X04895Y055375
X05Y055625
X0512Y055625
X0524Y055625
X0536Y055625
X055575Y0555
X0556Y054
X0536Y052875
X0524Y052875
X055575Y0525
X054575Y0517
X0556Y051
X0556Y0495
X0556Y048
X05395Y047675
X0524Y046975
X0556Y0465
X0547Y04575
X0556Y045
X0536Y044125
X0524Y044125
T2C1.F0S0
X033Y04492
X03554Y04492
X033Y04746
X03554Y04746
X033Y05
X03554Y05
X033Y05254
X03554Y05254
X033Y05508
X03554Y05508
X0445Y045
T3C1.F0S0
X0474Y0436
X0474Y0452
X0474Y0468
X0474Y0484
X0474Y05
X0474Y0516
X0474Y0532
X0474Y0548
X0474Y0564
M30
