*
*
G04 PADS Layout (Build Number 2007.21.1) generated Gerber (RS-274-X) file*
G04 PC Version=2.1*
*
%IN "J5050.pcb"*%
*
%MOMM*%
*
%FSLAX44Y44*%
*
*
*
*
G04 PC Standard Apertures*
*
*
G04 Thermal Relief Aperture macro.*
%AMTER*
1,1,$1,0,0*
1,0,$1-$2,0,0*
21,0,$3,$4,0,0,45*
21,0,$3,$4,0,0,135*
%
*
*
G04 Annular Aperture macro.*
%AMANN*
1,1,$1,0,0*
1,0,$2,0,0*
%
*
*
G04 Odd Aperture macro.*
%AMODD*
1,1,$1,0,0*
1,0,$1-0.005,0,0*
%
*
*
G04 PC Custom Aperture Macros*
*
*
*
*
*
*
G04 PC Aperture Table*
*
%ADD010C,0.254*%
%ADD011C,0.2032*%
%ADD012C,0.0508*%
%ADD013C,0.127*%
%ADD023C,0.0254*%
%ADD029C,0.1524*%
%ADD081C,0.15*%
*
*
*
*
G04 PC Circuitry*
G04 Layer Name J5050.pcb - circuitry*
%LPD*%
*
*
G04 PC Custom Flashes*
G04 Layer Name J5050.pcb - flashes*
%LPD*%
*
*
G04 PC Circuitry*
G04 Layer Name J5050.pcb - circuitry*
%LPD*%
*
G54D10*
G01X315000Y655000D02*
G75*
G03X324525Y645475I9525J0D01*
G01X940475*
G03X950000Y655000I0J9525*
G01Y762950*
G03X940475Y772475I-9525J0*
G01X543600*
X534075Y782000D02*
G03X543600Y772475I9525J0D01*
G01X534075Y782000D02*
Y801050D01*
G03X524550Y810575I-9525J0*
G01X324525*
G03X315000Y801050I0J-9525*
G01Y655000*
G54D11*
X880150Y699450D02*
G03X886500Y693100I6350J0D01*
G01X937300*
G03X943650Y699450I0J6350*
G01Y759775*
G03X937300Y766125I-6350J0*
G01X886500*
G03X880150Y759775I0J-6350*
G01Y699450*
X486450Y658175D02*
G03X492800Y651825I6350J0D01*
G01X937300*
G03X943650Y658175I0J6350*
G01Y677225*
G03X937300Y683575I-6350J0*
G01X492800*
G03X486450Y677225I0J-6350*
G01Y658175*
X492800Y766125D02*
G03X486450Y759775I0J-6350D01*
G01X492800Y766125D02*
X867450D01*
X873800Y759775D02*
G03X867450Y766125I-6350J0D01*
G01X873800Y759775D02*
Y699450D01*
X867450Y693100D02*
G03X873800Y699450I0J6350D01*
G01X867450Y693100D02*
X492800D01*
X486450Y699450D02*
G03X492800Y693100I6350J0D01*
G01X486450Y699450D02*
Y759775D01*
X327700Y683575D02*
G03X321350Y677225I0J-6350D01*
G01X327700Y683575D02*
X473750D01*
X480100Y677225D02*
G03X473750Y683575I-6350J0D01*
G01X480100Y677225D02*
Y658175D01*
X473750Y651825D02*
G03X480100Y658175I0J6350D01*
G01X473750Y651825D02*
X327700D01*
X321350Y658175D02*
G03X327700Y651825I6350J0D01*
G01X321350Y658175D02*
Y677225D01*
X327700Y724850D02*
G03X321350Y718500I0J-6350D01*
G01X327700Y724850D02*
X473750D01*
X480100Y718500D02*
G03X473750Y724850I-6350J0D01*
G01X480100Y718500D02*
Y699450D01*
X473750Y693100D02*
G03X480100Y699450I0J6350D01*
G01X473750Y693100D02*
X327700D01*
X321350Y699450D02*
G03X327700Y693100I6350J0D01*
G01X321350Y699450D02*
Y718500D01*
X480100Y759775D02*
G03X473750Y766125I-6350J0D01*
G01X327700*
G03X321350Y759775I0J-6350*
G01Y740725*
G03X327700Y734375I6350J0*
G01X473750*
G03X480100Y740725I0J6350*
G01Y759775*
X398553Y758266D02*
Y745566D01*
X398553D02*
X397976Y743185D01*
X397976D02*
X397398Y742391D01*
X397398D02*
X396244Y741598D01*
X395089*
X395089D02*
X393935Y742391D01*
X393935D02*
X393357Y743185D01*
X393357D02*
X392780Y745566D01*
X392780D02*
Y747154D01*
X411253Y758266D02*
X405480D01*
X405480D02*
X404903Y751123D01*
X405480Y751916*
X405480D02*
X407212Y752710D01*
X407212D02*
X408944D01*
X408944D02*
X410676Y751916D01*
X410676D02*
X411830Y750329D01*
X411830D02*
X412407Y747948D01*
X412407D02*
X411830Y746360D01*
X411830D02*
X411253Y743979D01*
X410098Y742391*
X410098D02*
X408366Y741598D01*
X408366D02*
X406635D01*
X404903Y742391*
X404903D02*
X404326Y743185D01*
X404326D02*
X403748Y744773D01*
X421066Y758266D02*
X419335Y757473D01*
X418180Y755091*
X418180D02*
X417603Y751123D01*
Y748741*
X417603D02*
X418180Y744773D01*
X418180D02*
X419335Y742391D01*
X419335D02*
X421066Y741598D01*
X421066D02*
X422221D01*
X423953Y742391*
X423953D02*
X425107Y744773D01*
X425107D02*
X425685Y748741D01*
X425685D02*
Y751123D01*
X425107Y755091*
X425107D02*
X423953Y757473D01*
X422221Y758266*
X422221D02*
X421066D01*
X438385D02*
X432612D01*
X432612D02*
X432035Y751123D01*
X432612Y751916*
X432612D02*
X434344Y752710D01*
X434344D02*
X436076D01*
X436076D02*
X437807Y751916D01*
X437807D02*
X438962Y750329D01*
X439539Y747948*
X439539D02*
X438962Y746360D01*
X438962D02*
X438385Y743979D01*
X437230Y742391*
X437230D02*
X435498Y741598D01*
X435498D02*
X433766D01*
X433766D02*
X432035Y742391D01*
X432035D02*
X431457Y743185D01*
X431457D02*
X430880Y744773D01*
X448198Y758266D02*
X446466Y757473D01*
X446466D02*
X445312Y755091D01*
X445312D02*
X444735Y751123D01*
Y748741*
X444735D02*
X445312Y744773D01*
X446466Y742391*
X446466D02*
X448198Y741598D01*
X448198D02*
X449353D01*
X451085Y742391*
X451085D02*
X452239Y744773D01*
X452239D02*
X452816Y748741D01*
X452816D02*
Y751123D01*
X452816D02*
X452239Y755091D01*
X452239D02*
X451085Y757473D01*
X449353Y758266*
X449353D02*
X448198D01*
X422801Y713658D02*
X422223Y715245D01*
X422223D02*
X421069Y716833D01*
X419914Y717626*
X419914D02*
X417605D01*
X417605D02*
X416451Y716833D01*
X415296Y715245*
X415296D02*
X414719Y713658D01*
X414142Y711276*
X414142D02*
Y707308D01*
X414719Y704926*
X414719D02*
X415296Y703339D01*
X415296D02*
X416451Y701751D01*
X416451D02*
X417605Y700958D01*
X417605D02*
X419914D01*
X419914D02*
X421069Y701751D01*
X421069D02*
X422223Y703339D01*
X422223D02*
X422801Y704926D01*
X422801D02*
Y707308D01*
X419914D02*
X422801D01*
X427996Y717626D02*
Y700958D01*
Y717626D02*
X433192D01*
X433192D02*
X434923Y716833D01*
X434923D02*
X435501Y716039D01*
X436078Y714451*
X436078D02*
Y712864D01*
X435501Y711276*
X435501D02*
X434923Y710483D01*
X434923D02*
X433192Y709689D01*
X427996D02*
X433192D01*
X434923Y708895*
X434923D02*
X435501Y708101D01*
X435501D02*
X436078Y706514D01*
Y704133*
X435501Y702545*
X435501D02*
X434923Y701751D01*
X434923D02*
X433192Y700958D01*
X427996*
X384989Y675716D02*
X383257Y674923D01*
X383257D02*
X382103Y672541D01*
X382103D02*
X381525Y668573D01*
X381525D02*
Y666191D01*
X381525D02*
X382103Y662223D01*
X383257Y659841*
X383257D02*
X384989Y659048D01*
X386144*
X387875Y659841*
X387875D02*
X389030Y662223D01*
X389607Y666191*
X389607D02*
Y668573D01*
X389607D02*
X389030Y672541D01*
X389030D02*
X387875Y674923D01*
X387875D02*
X386144Y675716D01*
X386144D02*
X384989D01*
X394803Y672541D02*
X395957Y673335D01*
X395957D02*
X397689Y675716D01*
X397689D02*
Y659048D01*
X402884Y666191D02*
X413275D01*
X419048Y671748D02*
Y672541D01*
X419048D02*
X419625Y674129D01*
X419625D02*
X420203Y674923D01*
X421357Y675716*
X421357D02*
X423666D01*
X423666D02*
X424821Y674923D01*
X425398Y674129*
X425398D02*
X425975Y672541D01*
X425975D02*
Y670954D01*
X425975D02*
X425398Y669366D01*
X425398D02*
X424244Y666985D01*
X424244D02*
X418471Y659048D01*
X426553*
X435212Y675716D02*
X433480Y674923D01*
X432325Y672541*
X432325D02*
X431748Y668573D01*
X431748D02*
Y666191D01*
X431748D02*
X432325Y662223D01*
X432325D02*
X433480Y659841D01*
X433480D02*
X435212Y659048D01*
X436366*
X436366D02*
X438098Y659841D01*
X438098D02*
X439253Y662223D01*
X439830Y666191*
X439830D02*
Y668573D01*
X439253Y672541*
X439253D02*
X438098Y674923D01*
X438098D02*
X436366Y675716D01*
X436366D02*
X435212D01*
X445025Y672541D02*
X446180Y673335D01*
X446180D02*
X447912Y675716D01*
X447912D02*
Y659048D01*
X460034Y673335D02*
X459457Y674923D01*
X459457D02*
X457725Y675716D01*
X457725D02*
X456571D01*
X456571D02*
X454839Y674923D01*
X453684Y672541*
X453684D02*
X453107Y668573D01*
X453107D02*
Y664604D01*
X453107D02*
X453684Y661429D01*
X453684D02*
X454839Y659841D01*
X454839D02*
X456571Y659048D01*
X457148*
X457148D02*
X458880Y659841D01*
X458880D02*
X460034Y661429D01*
X460034D02*
X460612Y663810D01*
X460612D02*
Y664604D01*
X460034Y666985*
X460034D02*
X458880Y668573D01*
X457148Y669366*
X457148D02*
X456571D01*
X456571D02*
X454839Y668573D01*
X453684Y666985*
X453684D02*
X453107Y664604D01*
X638988Y737946D02*
Y721278D01*
Y737946D02*
X644184D01*
X644184D02*
X645915Y737153D01*
X645915D02*
X646493Y736359D01*
X647070Y734771*
X647070D02*
Y732390D01*
X647070D02*
X646493Y730803D01*
X645915Y730009*
X645915D02*
X644184Y729215D01*
X644184D02*
X638988D01*
X660924Y733978D02*
X660347Y735565D01*
X660347D02*
X659193Y737153D01*
X658038Y737946*
X658038D02*
X655729D01*
X655729D02*
X654574Y737153D01*
X654574D02*
X653420Y735565D01*
X653420D02*
X652843Y733978D01*
X652265Y731596*
X652265D02*
Y727628D01*
X652265D02*
X652843Y725246D01*
X652843D02*
X653420Y723659D01*
X654574Y722071*
X654574D02*
X655729Y721278D01*
X658038*
X658038D02*
X659193Y722071D01*
X659193D02*
X660347Y723659D01*
X660347D02*
X660924Y725246D01*
X666120Y737946D02*
Y721278D01*
Y737946D02*
X671315D01*
X671315D02*
X673047Y737153D01*
X673047D02*
X673624Y736359D01*
X673624D02*
X674202Y734771D01*
X674202D02*
Y733184D01*
X673624Y731596*
X673624D02*
X673047Y730803D01*
X673047D02*
X671315Y730009D01*
X666120D02*
X671315D01*
X671315D02*
X673047Y729215D01*
X673047D02*
X673624Y728421D01*
X673624D02*
X674202Y726834D01*
Y724453*
X673624Y722865*
X673624D02*
X673047Y722071D01*
X673047D02*
X671315Y721278D01*
X671315D02*
X666120D01*
X679397Y734771D02*
X680552Y735565D01*
X680552D02*
X682284Y737946D01*
X682284D02*
Y721278D01*
X694984Y737946D02*
X689211D01*
X689211D02*
X688634Y730803D01*
X689211Y731596*
X689211D02*
X690943Y732390D01*
X690943D02*
X692674D01*
X692674D02*
X694406Y731596D01*
X694406D02*
X695561Y730009D01*
X696138Y727628*
X696138D02*
X695561Y726040D01*
X695561D02*
X694984Y723659D01*
X693829Y722071*
X693829D02*
X692097Y721278D01*
X692097D02*
X690365D01*
X690365D02*
X688634Y722071D01*
X688634D02*
X688056Y722865D01*
X688056D02*
X687479Y724453D01*
X707106Y737946D02*
X701334Y726834D01*
X709993*
X707106Y737946D02*
Y721278D01*
X718652Y737946D02*
X716920Y737153D01*
X715765Y734771*
X715765D02*
X715188Y730803D01*
X715188D02*
Y728421D01*
X715188D02*
X715765Y724453D01*
X715765D02*
X716920Y722071D01*
X716920D02*
X718652Y721278D01*
X719806*
X719806D02*
X721538Y722071D01*
X721538D02*
X722693Y724453D01*
X723270Y728421*
X723270D02*
Y730803D01*
X722693Y734771*
X722693D02*
X721538Y737153D01*
X721538D02*
X719806Y737946D01*
X719806D02*
X718652D01*
X909556Y735406D02*
Y718738D01*
Y735406D02*
X914751D01*
X914751D02*
X916483Y734613D01*
X916483D02*
X917060Y733819D01*
X917060D02*
X917638Y732231D01*
X917638D02*
Y730644D01*
X917060Y729056*
X917060D02*
X916483Y728263D01*
X916483D02*
X914751Y727469D01*
X909556D02*
X914751D01*
X914751D02*
X916483Y726675D01*
X916483D02*
X917060Y725881D01*
X917060D02*
X917638Y724294D01*
Y721913*
X917060Y720325*
X917060D02*
X916483Y719531D01*
X916483D02*
X914751Y718738D01*
X914751D02*
X909556D01*
X595462Y675716D02*
Y659048D01*
X591421Y675716D02*
X599503D01*
X608162D02*
X607007Y674923D01*
X607007D02*
X605853Y673335D01*
X605853D02*
X605275Y671748D01*
X605275D02*
X604698Y669366D01*
X604698D02*
Y665398D01*
X604698D02*
X605275Y663016D01*
X605275D02*
X605853Y661429D01*
X607007Y659841*
X607007D02*
X608162Y659048D01*
X610471*
X611625Y659841*
X611625D02*
X612780Y661429D01*
X613357Y663016*
X613357D02*
X613934Y665398D01*
X613934D02*
Y669366D01*
X613934D02*
X613357Y671748D01*
X613357D02*
X612780Y673335D01*
X612780D02*
X611625Y674923D01*
X611625D02*
X610471Y675716D01*
X610471D02*
X608162D01*
X619130D02*
Y659048D01*
Y675716D02*
X624325D01*
X624325D02*
X626057Y674923D01*
X626057D02*
X626634Y674129D01*
X626634D02*
X627212Y672541D01*
X627212D02*
Y670160D01*
X627212D02*
X626634Y668573D01*
X626634D02*
X626057Y667779D01*
X626057D02*
X624325Y666985D01*
X624325D02*
X619130D01*
X653766Y673335D02*
X652612Y674923D01*
X650880Y675716*
X650880D02*
X648571D01*
X648571D02*
X646839Y674923D01*
X645684Y673335*
X645684D02*
Y671748D01*
X645684D02*
X646262Y670160D01*
X646262D02*
X646839Y669366D01*
X646839D02*
X647994Y668573D01*
X651457Y666985*
X651457D02*
X652612Y666191D01*
X652612D02*
X653189Y665398D01*
X653766Y663810*
X653766D02*
Y661429D01*
X653766D02*
X652612Y659841D01*
X652612D02*
X650880Y659048D01*
X648571*
X646839Y659841*
X646839D02*
X645684Y661429D01*
X658962Y675716D02*
Y659048D01*
X664157Y675716D02*
Y659048D01*
X664157D02*
X671084D01*
X676280Y675716D02*
Y659048D01*
X684362Y675716D02*
X676280Y664604D01*
X679166Y668573D02*
X684362Y659048D01*
X697639Y673335D02*
X696484Y674923D01*
X696484D02*
X694753Y675716D01*
X694753D02*
X692444D01*
X692444D02*
X690712Y674923D01*
X689557Y673335*
X689557D02*
Y671748D01*
X689557D02*
X690134Y670160D01*
X690134D02*
X690712Y669366D01*
X690712D02*
X691866Y668573D01*
X691866D02*
X695330Y666985D01*
X695330D02*
X696484Y666191D01*
X696484D02*
X697062Y665398D01*
X697639Y663810*
X697639D02*
Y661429D01*
X696484Y659841*
X696484D02*
X694753Y659048D01*
X692444*
X690712Y659841*
X690712D02*
X689557Y661429D01*
X711494Y671748D02*
X710916Y673335D01*
X710916D02*
X709762Y674923D01*
X708607Y675716*
X708607D02*
X706298D01*
X706298D02*
X705144Y674923D01*
X703989Y673335*
X703989D02*
X703412Y671748D01*
X702834Y669366*
X702834D02*
Y665398D01*
X702834D02*
X703412Y663016D01*
X703412D02*
X703989Y661429D01*
X705144Y659841*
X705144D02*
X706298Y659048D01*
X706298D02*
X708607D01*
X708607D02*
X709762Y659841D01*
X709762D02*
X710916Y661429D01*
X710916D02*
X711494Y663016D01*
X716689Y675716D02*
Y659048D01*
Y675716D02*
X721884D01*
X721884D02*
X723616Y674923D01*
X723616D02*
X724194Y674129D01*
X724771Y672541*
X724771D02*
Y670954D01*
X724194Y669366*
X724194D02*
X723616Y668573D01*
X723616D02*
X721884Y667779D01*
X721884D02*
X716689D01*
X720730D02*
X724771Y659048D01*
X729966Y675716D02*
Y659048D01*
Y675716D02*
X737471D01*
X729966Y667779D02*
X734584D01*
X729966Y659048D02*
X737471D01*
X742666Y675716D02*
Y659048D01*
Y675716D02*
X750171D01*
X742666Y667779D02*
X747284D01*
X742666Y659048D02*
X750171D01*
X755366Y675716D02*
Y659048D01*
Y675716D02*
X763448Y659048D01*
Y675716D02*
Y659048D01*
X781921Y675716D02*
Y659048D01*
X788848*
X794044Y675716D02*
Y659048D01*
Y675716D02*
X801548D01*
X794044Y667779D02*
X798662D01*
X794044Y659048D02*
X801548D01*
X815403Y671748D02*
X814825Y673335D01*
X814825D02*
X813671Y674923D01*
X812516Y675716*
X812516D02*
X810207D01*
X810207D02*
X809053Y674923D01*
X807898Y673335*
X807898D02*
X807321Y671748D01*
X806744Y669366*
X806744D02*
Y665398D01*
X807321Y663016*
X807321D02*
X807898Y661429D01*
X807898D02*
X809053Y659841D01*
X809053D02*
X810207Y659048D01*
X810207D02*
X812516D01*
X812516D02*
X813671Y659841D01*
X813671D02*
X814825Y661429D01*
X814825D02*
X815403Y663016D01*
X815403D02*
Y665398D01*
X812516D02*
X815403D01*
X820598Y675716D02*
Y659048D01*
Y675716D02*
X828103D01*
X820598Y667779D02*
X825216D01*
X820598Y659048D02*
X828103D01*
X833298Y675716D02*
Y659048D01*
Y675716D02*
X841380Y659048D01*
Y675716D02*
Y659048D01*
X846575Y675716D02*
Y659048D01*
Y675716D02*
X850616D01*
X850616D02*
X852348Y674923D01*
X852348D02*
X853503Y673335D01*
X853503D02*
X854080Y671748D01*
X854657Y669366*
X854657D02*
Y665398D01*
X854657D02*
X854080Y663016D01*
X854080D02*
X853503Y661429D01*
X852348Y659841*
X852348D02*
X850616Y659048D01*
X850616D02*
X846575D01*
G54D12*
X330875Y778825D02*
X335073D01*
X484227D02*
X489156D01*
X329414Y779190D02*
X336534D01*
X343289D02*
X347853D01*
X360815D02*
X365014D01*
X367022D02*
X378888D01*
X389295D02*
X407003D01*
X410107D02*
X414306D01*
X423981D02*
X428180D01*
X432379D02*
X450088D01*
X453191D02*
X457390D01*
X469257D02*
X474186D01*
X482767D02*
X490982D01*
X506500D02*
X510699D01*
X328684Y779555D02*
X337629D01*
X343289D02*
X348218D01*
X360815D02*
X365014D01*
X367022D02*
X380349D01*
X389295D02*
X407003D01*
X410107D02*
X414671D01*
X423616D02*
X428545D01*
X432379D02*
X450088D01*
X453191D02*
X457755D01*
X468892D02*
X473821D01*
X481671D02*
X492442D01*
X506500D02*
X511064D01*
X327954Y779920D02*
X338360D01*
X343654D02*
X348218D01*
X360815D02*
X365014D01*
X367387D02*
X381444D01*
X389660D02*
X407368D01*
X410472D02*
X414671D01*
X423616D02*
X428545D01*
X432744D02*
X450453D01*
X453557D02*
X457755D01*
X468892D02*
X473821D01*
X480941D02*
X493538D01*
X506865D02*
X511064D01*
X327588Y780285D02*
X339090D01*
X343654D02*
X348583D01*
X360450D02*
X365014D01*
X367387D02*
X382175D01*
X389660D02*
X407368D01*
X410472D02*
X414671D01*
X423616D02*
X428545D01*
X432744D02*
X450453D01*
X453557D02*
X457755D01*
X468892D02*
X473821D01*
X480576D02*
X494268D01*
X506865D02*
X511064D01*
X326858Y780650D02*
X339820D01*
X344019D02*
X348583D01*
X360450D02*
X364649D01*
X367387D02*
X382905D01*
X389660D02*
X407368D01*
X410472D02*
X414671D01*
X423251D02*
X428545D01*
X432744D02*
X450453D01*
X453557D02*
X457755D01*
X468527D02*
X473456D01*
X480211D02*
X494998D01*
X506865D02*
X511064D01*
X326493Y781015D02*
X340185D01*
X344019D02*
X348948D01*
X360450D02*
X364649D01*
X367387D02*
X383635D01*
X389660D02*
X407733D01*
X410472D02*
X414671D01*
X423251D02*
X428545D01*
X432744D02*
X450818D01*
X453557D02*
X457755D01*
X468527D02*
X473456D01*
X479846D02*
X495728D01*
X506865D02*
X511064D01*
X326128Y781380D02*
X340550D01*
X344384D02*
X348948D01*
X360450D02*
X364649D01*
X367387D02*
X384000D01*
X389660D02*
X407733D01*
X410472D02*
X415036D01*
X422886D02*
X428911D01*
X432744D02*
X450818D01*
X453557D02*
X458121D01*
X468527D02*
X473091D01*
X479480D02*
X496459D01*
X506865D02*
X511429D01*
X326128Y781746D02*
X340915D01*
X344749D02*
X349313D01*
X360450D02*
X364649D01*
X367752D02*
X384365D01*
X390025D02*
X407733D01*
X410837D02*
X415036D01*
X422886D02*
X428911D01*
X433110D02*
X450818D01*
X453922D02*
X458121D01*
X468162D02*
X473091D01*
X479115D02*
X496824D01*
X507230D02*
X511429D01*
X325763Y782111D02*
X341281D01*
X344749D02*
X349678D01*
X360450D02*
X364649D01*
X367752D02*
X384730D01*
X390025D02*
X407733D01*
X410837D02*
X415036D01*
X422886D02*
X428911D01*
X433110D02*
X450818D01*
X453922D02*
X458121D01*
X468162D02*
X473091D01*
X478750D02*
X496824D01*
X507230D02*
X511429D01*
X325398Y782476D02*
X341646D01*
X345114D02*
X349678D01*
X360450D02*
X364649D01*
X367752D02*
X385096D01*
X390025D02*
X408098D01*
X410837D02*
X415036D01*
X422521D02*
X428911D01*
X433110D02*
X451183D01*
X453922D02*
X458121D01*
X467796D02*
X472726D01*
X478385D02*
X496824D01*
X507230D02*
X511429D01*
X325398Y782841D02*
X331787D01*
X334891D02*
X342011D01*
X345114D02*
X350044D01*
X360085D02*
X364649D01*
X367752D02*
X385461D01*
X390025D02*
X408098D01*
X410837D02*
X415036D01*
X422521D02*
X428911D01*
X433110D02*
X451183D01*
X453922D02*
X458121D01*
X467796D02*
X472726D01*
X478385D02*
X484775D01*
X488974D02*
X496824D01*
X507230D02*
X511429D01*
X325033Y783206D02*
X331057D01*
X336351D02*
X342376D01*
X345480D02*
X350044D01*
X360085D02*
X364283D01*
X367752D02*
X372316D01*
X378341D02*
X385826D01*
X390025D02*
X394589D01*
X410837D02*
X415401D01*
X422521D02*
X429276D01*
X433110D02*
X437674D01*
X453922D02*
X458486D01*
X467431D02*
X472360D01*
X478020D02*
X483679D01*
X490434D02*
X496824D01*
X507230D02*
X511794D01*
X325033Y783571D02*
X330327D01*
X337082D02*
X342376D01*
X345480D02*
X350409D01*
X360085D02*
X364283D01*
X368117D02*
X372316D01*
X379801D02*
X386191D01*
X390390D02*
X394589D01*
X411202D02*
X415401D01*
X422156D02*
X429276D01*
X433475D02*
X437674D01*
X454287D02*
X458486D01*
X467431D02*
X472360D01*
X478020D02*
X482949D01*
X491530D02*
X497189D01*
X507595D02*
X511794D01*
X324667Y783936D02*
X329962D01*
X337447D02*
X342741D01*
X345845D02*
X350409D01*
X360085D02*
X364283D01*
X368117D02*
X372316D01*
X380532D02*
X386556D01*
X390390D02*
X394589D01*
X411202D02*
X415401D01*
X422156D02*
X429276D01*
X433475D02*
X437674D01*
X454287D02*
X458486D01*
X467431D02*
X471995D01*
X477655D02*
X482584D01*
X492625D02*
X497189D01*
X507595D02*
X511794D01*
X324667Y784301D02*
X329597D01*
X337812D02*
X343106D01*
X345845D02*
X364283D01*
X368117D02*
X372316D01*
X380897D02*
X386556D01*
X390390D02*
X394589D01*
X411202D02*
X415401D01*
X421791D02*
X429276D01*
X433475D02*
X437674D01*
X454287D02*
X458486D01*
X467066D02*
X471995D01*
X477655D02*
X482219D01*
X492990D02*
X497189D01*
X507595D02*
X511794D01*
X324302Y784667D02*
X329231D01*
X338542D02*
X343106D01*
X346210D02*
X364283D01*
X368117D02*
X372681D01*
X381627D02*
X386921D01*
X390390D02*
X394954D01*
X411202D02*
X415401D01*
X421791D02*
X429641D01*
X433475D02*
X438039D01*
X454287D02*
X458851D01*
X467066D02*
X471630D01*
X477290D02*
X482219D01*
X492990D02*
X497189D01*
X507595D02*
X512159D01*
X324302Y785032D02*
X328866D01*
X338542D02*
X343471D01*
X346210D02*
X364283D01*
X368482D02*
X372681D01*
X381992D02*
X387286D01*
X390755D02*
X394954D01*
X411567D02*
X415766D01*
X421791D02*
X429641D01*
X433840D02*
X438039D01*
X454652D02*
X458851D01*
X466701D02*
X471630D01*
X477290D02*
X481854D01*
X492990D02*
X497554D01*
X507960D02*
X512159D01*
X324302Y785397D02*
X328866D01*
X338907D02*
X343471D01*
X346575D02*
X364283D01*
X368482D02*
X372681D01*
X382357D02*
X387286D01*
X390755D02*
X394954D01*
X411567D02*
X415766D01*
X421426D02*
X429641D01*
X433840D02*
X438039D01*
X454652D02*
X458851D01*
X466701D02*
X471265D01*
X477290D02*
X481489D01*
X492990D02*
X497554D01*
X507960D02*
X512159D01*
X324302Y785762D02*
X328501D01*
X339272D02*
X343836D01*
X346575D02*
X363918D01*
X368482D02*
X372681D01*
X382357D02*
X387651D01*
X390755D02*
X394954D01*
X411567D02*
X415766D01*
X421426D02*
X429641D01*
X433840D02*
X438039D01*
X454652D02*
X458851D01*
X466336D02*
X471265D01*
X477290D02*
X481489D01*
X493355D02*
X497554D01*
X507960D02*
X512159D01*
X324302Y786127D02*
X328501D01*
X339272D02*
X343471D01*
X346940D02*
X363918D01*
X368482D02*
X372681D01*
X382722D02*
X387651D01*
X390755D02*
X394954D01*
X411567D02*
X415766D01*
X421060D02*
X429641D01*
X433840D02*
X438039D01*
X454652D02*
X458851D01*
X466336D02*
X470900D01*
X477290D02*
X481489D01*
X493355D02*
X497554D01*
X507960D02*
X512159D01*
X323937Y786492D02*
X328501D01*
X339638D02*
X340915D01*
X347305D02*
X363918D01*
X368482D02*
X373046D01*
X383087D02*
X388017D01*
X390755D02*
X395319D01*
X411567D02*
X415766D01*
X421060D02*
X430006D01*
X433840D02*
X438404D01*
X454652D02*
X459216D01*
X465971D02*
X470900D01*
X476925D02*
X481489D01*
X493355D02*
X497554D01*
X507960D02*
X512524D01*
X323937Y786857D02*
X328136D01*
X347305D02*
X363918D01*
X368848D02*
X373046D01*
X383087D02*
X388017D01*
X391120D02*
X395319D01*
X411932D02*
X416131D01*
X421060D02*
X430006D01*
X434205D02*
X438404D01*
X455017D02*
X459216D01*
X465971D02*
X470535D01*
X476925D02*
X481123D01*
X493355D02*
X497919D01*
X508325D02*
X512524D01*
X323937Y787222D02*
X328136D01*
X347670D02*
X363918D01*
X368848D02*
X373046D01*
X383453D02*
X388017D01*
X391120D02*
X395319D01*
X411932D02*
X416131D01*
X420695D02*
X430006D01*
X434205D02*
X438404D01*
X455017D02*
X459216D01*
X465606D02*
X470535D01*
X476925D02*
X481123D01*
X493720D02*
X497919D01*
X508325D02*
X512524D01*
X323937Y787588D02*
X328136D01*
X347670D02*
X363918D01*
X368848D02*
X373046D01*
X383818D02*
X388382D01*
X391120D02*
X395319D01*
X411932D02*
X416131D01*
X420695D02*
X425259D01*
X426172D02*
X430006D01*
X434205D02*
X438404D01*
X455017D02*
X459216D01*
X465241D02*
X470170D01*
X476925D02*
X481123D01*
X493720D02*
X497919D01*
X508325D02*
X512524D01*
X323937Y787953D02*
X328136D01*
X348035D02*
X363918D01*
X368848D02*
X373046D01*
X383818D02*
X388382D01*
X391120D02*
X395319D01*
X411932D02*
X416131D01*
X420695D02*
X425259D01*
X426172D02*
X430006D01*
X434205D02*
X438404D01*
X455017D02*
X459216D01*
X464875D02*
X469805D01*
X476925D02*
X481123D01*
X487148D02*
X497919D01*
X508325D02*
X512889D01*
X323937Y788318D02*
X328136D01*
X348035D02*
X352965D01*
X359354D02*
X363553D01*
X368848D02*
X373412D01*
X384183D02*
X388382D01*
X391120D02*
X395684D01*
X411932D02*
X416131D01*
X420330D02*
X424894D01*
X426172D02*
X430371D01*
X434205D02*
X438769D01*
X455017D02*
X459581D01*
X464510D02*
X469439D01*
X476925D02*
X481123D01*
X487148D02*
X497919D01*
X508325D02*
X512889D01*
X323937Y788683D02*
X328136D01*
X348401D02*
X352965D01*
X359354D02*
X363553D01*
X369213D02*
X373412D01*
X384183D02*
X388747D01*
X391485D02*
X395684D01*
X412297D02*
X416496D01*
X420330D02*
X424894D01*
X426172D02*
X430371D01*
X434570D02*
X438769D01*
X455382D02*
X459581D01*
X463780D02*
X469074D01*
X476925D02*
X481123D01*
X487513D02*
X498284D01*
X508325D02*
X513254D01*
X323937Y789048D02*
X328136D01*
X348401D02*
X353330D01*
X359354D02*
X363553D01*
X369213D02*
X373412D01*
X384183D02*
X388747D01*
X391485D02*
X395684D01*
X412297D02*
X416496D01*
X419965D02*
X424894D01*
X426172D02*
X430371D01*
X434570D02*
X438769D01*
X455382D02*
X468709D01*
X476925D02*
X481123D01*
X487513D02*
X498284D01*
X507960D02*
X513620D01*
X323937Y789413D02*
X328136D01*
X348766D02*
X353330D01*
X359354D02*
X363553D01*
X369213D02*
X373412D01*
X384548D02*
X388747D01*
X391485D02*
X395684D01*
X412297D02*
X416496D01*
X419965D02*
X424529D01*
X426537D02*
X430371D01*
X434570D02*
X438769D01*
X455382D02*
X470535D01*
X476925D02*
X481123D01*
X487513D02*
X498284D01*
X507960D02*
X513985D01*
X323937Y789778D02*
X328136D01*
X348766D02*
X353695D01*
X359354D02*
X363553D01*
X369213D02*
X373777D01*
X384548D02*
X388747D01*
X391485D02*
X408098D01*
X412297D02*
X416496D01*
X419965D02*
X424529D01*
X426537D02*
X430736D01*
X434570D02*
X451183D01*
X455382D02*
X471630D01*
X476925D02*
X481123D01*
X487513D02*
X498284D01*
X507595D02*
X513985D01*
X323937Y790143D02*
X328136D01*
X349131D02*
X353695D01*
X359354D02*
X363553D01*
X369578D02*
X373777D01*
X384548D02*
X388747D01*
X391850D02*
X408098D01*
X412663D02*
X416496D01*
X419600D02*
X424164D01*
X426537D02*
X430736D01*
X434935D02*
X451183D01*
X455747D02*
X472360D01*
X476925D02*
X481123D01*
X487878D02*
X498284D01*
X507595D02*
X514350D01*
X323937Y790509D02*
X328136D01*
X349131D02*
X354060D01*
X358989D02*
X363188D01*
X369578D02*
X373777D01*
X384548D02*
X389112D01*
X391850D02*
X408464D01*
X412663D02*
X416861D01*
X419600D02*
X424164D01*
X426537D02*
X430736D01*
X434935D02*
X451548D01*
X455747D02*
X473091D01*
X476925D02*
X481123D01*
X487878D02*
X498649D01*
X507595D02*
X514715D01*
X323937Y790874D02*
X328501D01*
X349496D02*
X354425D01*
X358989D02*
X363188D01*
X369578D02*
X373777D01*
X384913D02*
X389112D01*
X391850D02*
X408464D01*
X412663D02*
X416861D01*
X419235D02*
X424164D01*
X426537D02*
X430736D01*
X434935D02*
X451548D01*
X455747D02*
X473456D01*
X476925D02*
X481489D01*
X487878D02*
X498649D01*
X507230D02*
X515080D01*
X323937Y791239D02*
X328501D01*
X349861D02*
X354425D01*
X358989D02*
X363188D01*
X369578D02*
X373777D01*
X384913D02*
X389112D01*
X391850D02*
X408464D01*
X412663D02*
X416861D01*
X419235D02*
X423799D01*
X426902D02*
X430736D01*
X434935D02*
X451548D01*
X455747D02*
X473821D01*
X477290D02*
X481489D01*
X488243D02*
X498649D01*
X507230D02*
X515080D01*
X324302Y791604D02*
X328501D01*
X349861D02*
X354790D01*
X358989D02*
X363188D01*
X369578D02*
X374142D01*
X384913D02*
X389112D01*
X391850D02*
X408829D01*
X412663D02*
X416861D01*
X419235D02*
X423799D01*
X426902D02*
X431101D01*
X434935D02*
X451913D01*
X455747D02*
X474186D01*
X477290D02*
X481489D01*
X488243D02*
X498649D01*
X506865D02*
X515445D01*
X324302Y791969D02*
X328501D01*
X350226D02*
X354790D01*
X358989D02*
X363188D01*
X369943D02*
X374142D01*
X384913D02*
X389112D01*
X392216D02*
X408829D01*
X413028D02*
X416861D01*
X418870D02*
X423434D01*
X426902D02*
X431101D01*
X435300D02*
X451913D01*
X456112D02*
X474551D01*
X477290D02*
X481489D01*
X506865D02*
X515810D01*
X324302Y792334D02*
X328501D01*
X350226D02*
X355155D01*
X358989D02*
X363188D01*
X369943D02*
X374142D01*
X384913D02*
X389112D01*
X392216D02*
X408829D01*
X413028D02*
X417227D01*
X418870D02*
X423434D01*
X426902D02*
X431101D01*
X435300D02*
X451913D01*
X456112D02*
X474916D01*
X477290D02*
X481489D01*
X506500D02*
X516175D01*
X324302Y792699D02*
X328866D01*
X350591D02*
X355155D01*
X358624D02*
X363188D01*
X369943D02*
X374142D01*
X384913D02*
X389112D01*
X392216D02*
X408829D01*
X413028D02*
X417227D01*
X418870D02*
X423434D01*
X426902D02*
X431101D01*
X435300D02*
X451913D01*
X456112D02*
X460311D01*
X467431D02*
X474916D01*
X477290D02*
X481854D01*
X506500D02*
X516175D01*
X324302Y793064D02*
X328866D01*
X350591D02*
X355520D01*
X358624D02*
X362823D01*
X369943D02*
X374142D01*
X384913D02*
X389112D01*
X392216D02*
X409194D01*
X413028D02*
X417227D01*
X418505D02*
X423069D01*
X427268D02*
X431101D01*
X435300D02*
X452279D01*
X456112D02*
X460311D01*
X469257D02*
X475281D01*
X477655D02*
X481854D01*
X506500D02*
X511064D01*
X511611D02*
X516541D01*
X324667Y793430D02*
X328866D01*
X350956D02*
X355520D01*
X358624D02*
X362823D01*
X369943D02*
X374507D01*
X384913D02*
X389112D01*
X392216D02*
X409194D01*
X413028D02*
X417227D01*
X418505D02*
X423069D01*
X427268D02*
X431466D01*
X435300D02*
X452279D01*
X456112D02*
X460676D01*
X469987D02*
X475281D01*
X477655D02*
X481854D01*
X506135D02*
X510699D01*
X511977D02*
X516906D01*
X324667Y793795D02*
X329231D01*
X350956D02*
X355886D01*
X358624D02*
X362823D01*
X370308D02*
X374507D01*
X384913D02*
X389112D01*
X392581D02*
X396780D01*
X413393D02*
X417227D01*
X418139D02*
X423069D01*
X427268D02*
X431466D01*
X435665D02*
X439864D01*
X456478D02*
X460676D01*
X470352D02*
X475647D01*
X477655D02*
X482219D01*
X506135D02*
X510699D01*
X511977D02*
X517271D01*
X324667Y794160D02*
X329231D01*
X351322D02*
X355886D01*
X358624D02*
X362823D01*
X370308D02*
X374507D01*
X384913D02*
X389112D01*
X392581D02*
X396780D01*
X413393D02*
X417592D01*
X418139D02*
X422703D01*
X427268D02*
X431466D01*
X435665D02*
X439864D01*
X456478D02*
X460676D01*
X470717D02*
X475647D01*
X478020D02*
X482219D01*
X505769D02*
X510333D01*
X512342D02*
X517271D01*
X325033Y794525D02*
X329597D01*
X351322D02*
X356251D01*
X358624D02*
X362823D01*
X370308D02*
X374507D01*
X384913D02*
X389112D01*
X392581D02*
X396780D01*
X413393D02*
X417592D01*
X418139D02*
X422703D01*
X427268D02*
X431466D01*
X435665D02*
X439864D01*
X456478D02*
X460676D01*
X471083D02*
X475647D01*
X478020D02*
X482584D01*
X505769D02*
X510333D01*
X512707D02*
X517636D01*
X325033Y794890D02*
X329597D01*
X351687D02*
X356251D01*
X358624D02*
X362823D01*
X370308D02*
X374872D01*
X384913D02*
X389112D01*
X392581D02*
X397145D01*
X413393D02*
X422338D01*
X427633D02*
X431832D01*
X435665D02*
X440229D01*
X456478D02*
X461042D01*
X471448D02*
X476012D01*
X478385D02*
X482584D01*
X505404D02*
X510333D01*
X512707D02*
X518001D01*
X325033Y795255D02*
X329962D01*
X341098D02*
X342741D01*
X351687D02*
X356616D01*
X358259D02*
X362823D01*
X370308D02*
X374872D01*
X384548D02*
X389112D01*
X392581D02*
X397145D01*
X413393D02*
X422338D01*
X427633D02*
X431832D01*
X435665D02*
X440229D01*
X456478D02*
X461042D01*
X471448D02*
X476012D01*
X478385D02*
X482949D01*
X495546D02*
X496824D01*
X505404D02*
X509968D01*
X513072D02*
X518366D01*
X325398Y795620D02*
X329962D01*
X341098D02*
X345297D01*
X352052D02*
X356981D01*
X358259D02*
X362458D01*
X370673D02*
X374872D01*
X384548D02*
X388747D01*
X392946D02*
X397145D01*
X413758D02*
X422338D01*
X427633D02*
X431832D01*
X436031D02*
X440229D01*
X456843D02*
X461042D01*
X471813D02*
X476012D01*
X478385D02*
X482949D01*
X495181D02*
X499745D01*
X505039D02*
X509968D01*
X513437D02*
X518366D01*
X325398Y795985D02*
X330327D01*
X340733D02*
X345297D01*
X352417D02*
X356981D01*
X358259D02*
X362458D01*
X370673D02*
X374872D01*
X384548D02*
X388747D01*
X392946D02*
X397145D01*
X413758D02*
X421973D01*
X427633D02*
X431832D01*
X436031D02*
X440229D01*
X456843D02*
X461042D01*
X471813D02*
X476012D01*
X478750D02*
X483314D01*
X495181D02*
X499745D01*
X505039D02*
X509603D01*
X513802D02*
X518731D01*
X325763Y796351D02*
X330692D01*
X340733D02*
X345297D01*
X352417D02*
X357346D01*
X358259D02*
X362458D01*
X370673D02*
X374872D01*
X384183D02*
X388747D01*
X392946D02*
X397145D01*
X413758D02*
X421973D01*
X427633D02*
X431832D01*
X436031D02*
X440229D01*
X456843D02*
X461042D01*
X471813D02*
X476012D01*
X478750D02*
X483679D01*
X495181D02*
X499380D01*
X505039D02*
X509603D01*
X513802D02*
X519096D01*
X325763Y796716D02*
X331057D01*
X340733D02*
X344932D01*
X352782D02*
X357346D01*
X358259D02*
X362458D01*
X370673D02*
X375237D01*
X384183D02*
X388747D01*
X392946D02*
X397510D01*
X413758D02*
X421608D01*
X427998D02*
X432197D01*
X436031D02*
X440595D01*
X456843D02*
X461407D01*
X471813D02*
X476012D01*
X479115D02*
X484044D01*
X494816D02*
X499380D01*
X504674D02*
X509238D01*
X514167D02*
X519462D01*
X326128Y797081D02*
X331422D01*
X340368D02*
X344932D01*
X352782D02*
X357711D01*
X358259D02*
X362458D01*
X371038D02*
X375237D01*
X383818D02*
X388382D01*
X393311D02*
X397510D01*
X414123D02*
X421608D01*
X427998D02*
X432197D01*
X436396D02*
X440595D01*
X457208D02*
X461407D01*
X471813D02*
X476012D01*
X479480D02*
X484410D01*
X494451D02*
X499380D01*
X504674D02*
X509238D01*
X514532D02*
X519462D01*
X326128Y797446D02*
X331787D01*
X340003D02*
X344932D01*
X353147D02*
X357711D01*
X358259D02*
X362458D01*
X371038D02*
X375237D01*
X383453D02*
X388382D01*
X393311D02*
X397510D01*
X414123D02*
X421608D01*
X427998D02*
X432197D01*
X436396D02*
X440595D01*
X457208D02*
X461407D01*
X471448D02*
X476012D01*
X479480D02*
X484775D01*
X494085D02*
X499015D01*
X504309D02*
X508873D01*
X514898D02*
X519827D01*
X326493Y797811D02*
X332152D01*
X340003D02*
X344932D01*
X353147D02*
X362458D01*
X371038D02*
X375237D01*
X383087D02*
X388382D01*
X393311D02*
X397510D01*
X414123D02*
X421243D01*
X427998D02*
X432197D01*
X436396D02*
X440595D01*
X457208D02*
X461407D01*
X471448D02*
X476012D01*
X479846D02*
X485505D01*
X493720D02*
X499015D01*
X504309D02*
X508873D01*
X514898D02*
X520192D01*
X326858Y798176D02*
X332883D01*
X339638D02*
X344567D01*
X353512D02*
X362093D01*
X371038D02*
X375237D01*
X382357D02*
X388017D01*
X393311D02*
X397510D01*
X414123D02*
X421243D01*
X427998D02*
X432197D01*
X436396D02*
X440595D01*
X457208D02*
X461407D01*
X471083D02*
X476012D01*
X480211D02*
X485870D01*
X493355D02*
X499015D01*
X503944D02*
X508873D01*
X515263D02*
X520557D01*
X326858Y798541D02*
X333613D01*
X338907D02*
X344567D01*
X353512D02*
X362093D01*
X371038D02*
X375602D01*
X381627D02*
X388017D01*
X393311D02*
X397875D01*
X414123D02*
X421243D01*
X428363D02*
X432562D01*
X436396D02*
X440960D01*
X457208D02*
X461772D01*
X469987D02*
X475647D01*
X480211D02*
X486965D01*
X492625D02*
X498649D01*
X503944D02*
X508508D01*
X515628D02*
X520557D01*
X327223Y798906D02*
X334708D01*
X337812D02*
X344202D01*
X353877D02*
X362093D01*
X371403D02*
X387651D01*
X393676D02*
X410289D01*
X414488D02*
X420878D01*
X428363D02*
X432562D01*
X436761D02*
X453374D01*
X457573D02*
X475647D01*
X480576D02*
X488061D01*
X491895D02*
X498649D01*
X503944D02*
X508508D01*
X515993D02*
X520922D01*
X327588Y799272D02*
X344202D01*
X353877D02*
X362093D01*
X371403D02*
X387286D01*
X393676D02*
X410289D01*
X414488D02*
X420878D01*
X428363D02*
X432562D01*
X436761D02*
X453374D01*
X457573D02*
X475647D01*
X480941D02*
X498284D01*
X503579D02*
X508143D01*
X515993D02*
X521287D01*
X327954Y799637D02*
X343836D01*
X354243D02*
X362093D01*
X371403D02*
X387286D01*
X393676D02*
X410654D01*
X414488D02*
X420513D01*
X428363D02*
X432562D01*
X436761D02*
X453739D01*
X457573D02*
X475281D01*
X481306D02*
X497919D01*
X503579D02*
X508143D01*
X516358D02*
X521652D01*
X328319Y800002D02*
X343471D01*
X354608D02*
X362093D01*
X371403D02*
X386921D01*
X393676D02*
X410654D01*
X414488D02*
X420513D01*
X428363D02*
X432562D01*
X436761D02*
X453739D01*
X457573D02*
X475281D01*
X481671D02*
X497554D01*
X503214D02*
X507778D01*
X516723D02*
X521652D01*
X328684Y800367D02*
X343106D01*
X354608D02*
X362093D01*
X371403D02*
X386556D01*
X393676D02*
X410654D01*
X414488D02*
X420513D01*
X428728D02*
X432927D01*
X436761D02*
X453739D01*
X457573D02*
X474916D01*
X482036D02*
X497554D01*
X503214D02*
X507778D01*
X517088D02*
X522017D01*
X329414Y800732D02*
X342741D01*
X354973D02*
X361728D01*
X371769D02*
X386191D01*
X394041D02*
X411019D01*
X414853D02*
X420148D01*
X428728D02*
X432927D01*
X437126D02*
X454104D01*
X457938D02*
X474551D01*
X482767D02*
X497189D01*
X502848D02*
X507412D01*
X517088D02*
X522383D01*
X329779Y801097D02*
X342376D01*
X354973D02*
X361728D01*
X371769D02*
X385826D01*
X394041D02*
X411019D01*
X414853D02*
X420148D01*
X428728D02*
X432927D01*
X437126D02*
X454104D01*
X457938D02*
X474186D01*
X483132D02*
X496459D01*
X502848D02*
X507412D01*
X517453D02*
X522748D01*
X330509Y801462D02*
X342011D01*
X355338D02*
X361728D01*
X371769D02*
X385096D01*
X394041D02*
X411019D01*
X414853D02*
X419782D01*
X428728D02*
X432927D01*
X437126D02*
X454104D01*
X457938D02*
X473821D01*
X483497D02*
X496094D01*
X502848D02*
X507412D01*
X517819D02*
X522748D01*
X330875Y801827D02*
X341281D01*
X355338D02*
X361728D01*
X371769D02*
X384730D01*
X394041D02*
X411019D01*
X414853D02*
X419782D01*
X428728D02*
X433292D01*
X437126D02*
X454104D01*
X457938D02*
X473456D01*
X484227D02*
X495363D01*
X502483D02*
X507047D01*
X518184D02*
X523113D01*
X331970Y802193D02*
X340915D01*
X355703D02*
X361728D01*
X372134D02*
X383635D01*
X394406D02*
X411385D01*
X415218D02*
X419782D01*
X429093D02*
X433292D01*
X437491D02*
X454469D01*
X458303D02*
X472726D01*
X485322D02*
X494633D01*
X502483D02*
X507047D01*
X518184D02*
X523478D01*
X332700Y802558D02*
X339820D01*
X355703D02*
X361728D01*
X372134D02*
X382175D01*
X394406D02*
X411385D01*
X415218D02*
X419417D01*
X429093D02*
X433292D01*
X437491D02*
X454469D01*
X458303D02*
X471265D01*
X486053D02*
X493903D01*
X502118D02*
X506682D01*
X518549D02*
X523843D01*
X334161Y802923D02*
X338360D01*
X487878D02*
X492442D01*
G54D13*
X405830Y495348D02*
Y514652D01*
X395670*
Y495348*
X405830*
X416080D02*
Y514652D01*
X405920*
Y495348*
X416080*
X426330D02*
Y514652D01*
X416170*
Y495348*
X426330*
X436580D02*
Y514652D01*
X426420*
Y495348*
X436580*
X446830D02*
Y514652D01*
X436670*
Y495348*
X446830*
X457080D02*
Y514652D01*
X446920*
Y495348*
X457080*
X372420Y514652D02*
Y495348D01*
X382580*
Y514652*
X372420*
X330586Y761759D02*
Y755409D01*
X330297Y754218*
X330297D02*
X330009Y753821D01*
X330009D02*
X329431Y753425D01*
X329431D02*
X328854D01*
X328854D02*
X328277Y753821D01*
X328277D02*
X327988Y754218D01*
X327988D02*
X327700Y755409D01*
Y756203*
X334915Y761759D02*
X334338Y761362D01*
X334338D02*
X333761Y760568D01*
X333761D02*
X333472Y759775D01*
X333472D02*
X333184Y758584D01*
Y756600*
X333472Y755409*
X333472D02*
X333761Y754615D01*
X333761D02*
X334338Y753821D01*
X334338D02*
X334915Y753425D01*
X334915D02*
X336070D01*
X336647Y753821*
X336647D02*
X337225Y754615D01*
X337225D02*
X337513Y755409D01*
X337513D02*
X337802Y756600D01*
Y758584*
X337513Y759775*
X337513D02*
X337225Y760568D01*
X337225D02*
X336647Y761362D01*
X336647D02*
X336070Y761759D01*
X334915*
X340400D02*
Y753425D01*
Y761759D02*
X342997D01*
X342997D02*
X343863Y761362D01*
X343863D02*
X344152Y760965D01*
X344152D02*
X344440Y760171D01*
X344440D02*
Y759378D01*
X344440D02*
X344152Y758584D01*
X343863Y758187*
X343863D02*
X342997Y757790D01*
X340400D02*
X342997D01*
X342997D02*
X343863Y757393D01*
X343863D02*
X344152Y756996D01*
X344152D02*
X344440Y756203D01*
X344440D02*
Y755012D01*
X344440D02*
X344152Y754218D01*
X344152D02*
X343863Y753821D01*
X343863D02*
X342997Y753425D01*
X342997D02*
X340400D01*
X353677Y761759D02*
Y753425D01*
Y761759D02*
X357718Y753425D01*
Y761759D02*
Y753425D01*
X361759Y758981D02*
X361181Y758584D01*
X361181D02*
X360604Y757790D01*
X360604D02*
X360315Y756600D01*
X360315D02*
Y755806D01*
X360315D02*
X360604Y754615D01*
X360604D02*
X361181Y753821D01*
X361181D02*
X361759Y753425D01*
X362625*
X363202Y753821*
X363202D02*
X363779Y754615D01*
X363779D02*
X364068Y755806D01*
Y756600*
X363779Y757790*
X363779D02*
X363202Y758584D01*
X362625Y758981*
X361759*
X366954Y754218D02*
X366665Y753821D01*
X366665D02*
X366954Y753425D01*
X366954D02*
X367243Y753821D01*
X367243D02*
X366954Y754218D01*
X327700Y721754D02*
Y713420D01*
Y721754D02*
X329720D01*
X330586Y721357*
X330586D02*
X331163Y720563D01*
X331163D02*
X331452Y719770D01*
X331740Y718579*
X331740D02*
Y716595D01*
X331740D02*
X331452Y715404D01*
X331163Y714610*
X331163D02*
X330586Y713816D01*
X330586D02*
X329720Y713420D01*
X327700*
X334338Y721754D02*
Y713420D01*
Y721754D02*
X338090D01*
X334338Y717785D02*
X336647D01*
X334338Y713420D02*
X338090D01*
X344729Y720563D02*
X344152Y721357D01*
X344152D02*
X343286Y721754D01*
X342131*
X342131D02*
X341265Y721357D01*
X341265D02*
X340688Y720563D01*
X340688D02*
Y719770D01*
X340688D02*
X340977Y718976D01*
X341265Y718579*
X341265D02*
X341843Y718182D01*
X341843D02*
X343575Y717388D01*
X343575D02*
X344152Y716991D01*
X344152D02*
X344440Y716595D01*
X344440D02*
X344729Y715801D01*
X344729D02*
Y714610D01*
X344729D02*
X344152Y713816D01*
X344152D02*
X343286Y713420D01*
X342131*
X342131D02*
X341265Y713816D01*
X341265D02*
X340688Y714610D01*
X347327Y721754D02*
Y713420D01*
X354254Y719770D02*
X353965Y720563D01*
X353965D02*
X353388Y721357D01*
X353388D02*
X352811Y721754D01*
X351656*
X351656D02*
X351079Y721357D01*
X351079D02*
X350502Y720563D01*
X350502D02*
X350213Y719770D01*
X350213D02*
X349925Y718579D01*
Y716595*
X350213Y715404*
X350213D02*
X350502Y714610D01*
X350502D02*
X351079Y713816D01*
X351079D02*
X351656Y713420D01*
X351656D02*
X352811D01*
X353388Y713816*
X353388D02*
X353965Y714610D01*
X353965D02*
X354254Y715404D01*
X354254D02*
Y716595D01*
X352811D02*
X354254D01*
X356852Y721754D02*
Y713420D01*
Y721754D02*
X360893Y713420D01*
Y721754D02*
Y713420D01*
X363490Y721754D02*
Y713420D01*
Y721754D02*
X367243D01*
X363490Y717785D02*
X365800D01*
X363490Y713420D02*
X367243D01*
X369840Y721754D02*
Y713420D01*
Y721754D02*
X371861D01*
X372727Y721357*
X372727D02*
X373304Y720563D01*
X373304D02*
X373593Y719770D01*
X373881Y718579*
X373881D02*
Y716595D01*
X373881D02*
X373593Y715404D01*
X373304Y714610*
X373304D02*
X372727Y713816D01*
X372727D02*
X371861Y713420D01*
X369840*
X327700Y704609D02*
Y696275D01*
Y704609D02*
X330297D01*
X330297D02*
X331163Y704212D01*
X331163D02*
X331452Y703815D01*
X331452D02*
X331740Y703021D01*
X331740D02*
Y702228D01*
X331740D02*
X331452Y701434D01*
X331163Y701037*
X331163D02*
X330297Y700640D01*
X327700D02*
X330297D01*
X330297D02*
X331163Y700243D01*
X331163D02*
X331452Y699846D01*
X331452D02*
X331740Y699053D01*
X331740D02*
Y697862D01*
X331740D02*
X331452Y697068D01*
X331452D02*
X331163Y696671D01*
X331163D02*
X330297Y696275D01*
X330297D02*
X327700D01*
X334338Y704609D02*
X336647Y700640D01*
X336647D02*
Y696275D01*
X338956Y704609D02*
X336647Y700640D01*
X327700Y679209D02*
Y670875D01*
Y679209D02*
X329720D01*
X330586Y678812*
X330586D02*
X331163Y678018D01*
X331163D02*
X331452Y677225D01*
X331740Y676034*
X331740D02*
Y674050D01*
X331740D02*
X331452Y672859D01*
X331163Y672065*
X331163D02*
X330586Y671271D01*
X330586D02*
X329720Y670875D01*
X327700*
X336647Y679209D02*
X334338Y670875D01*
X336647Y679209D02*
X338956Y670875D01*
X335204Y673653D02*
X338090D01*
X343575Y679209D02*
Y670875D01*
X341554Y679209D02*
X345595D01*
X348193D02*
Y670875D01*
Y679209D02*
X351945D01*
X348193Y675240D02*
X350502D01*
X348193Y670875D02*
X351945D01*
X492800Y761759D02*
Y753425D01*
Y761759D02*
X495397D01*
X495397D02*
X496263Y761362D01*
X496263D02*
X496552Y760965D01*
X496552D02*
X496840Y760171D01*
X496840D02*
Y759378D01*
X496840D02*
X496552Y758584D01*
X496263Y758187*
X496263D02*
X495397Y757790D01*
X492800D02*
X495397D01*
X495397D02*
X496263Y757393D01*
X496263D02*
X496552Y756996D01*
X496552D02*
X496840Y756203D01*
X496840D02*
Y755012D01*
X496840D02*
X496552Y754218D01*
X496552D02*
X496263Y753821D01*
X496263D02*
X495397Y753425D01*
X495397D02*
X492800D01*
X501170Y761759D02*
X500593Y761362D01*
X500593D02*
X500015Y760568D01*
X500015D02*
X499727Y759775D01*
X499438Y758584*
X499438D02*
Y756600D01*
X499438D02*
X499727Y755409D01*
X500015Y754615*
X500015D02*
X500593Y753821D01*
X500593D02*
X501170Y753425D01*
X502325*
X502902Y753821*
X502902D02*
X503479Y754615D01*
X503479D02*
X503768Y755409D01*
X504056Y756600*
X504056D02*
Y758584D01*
X504056D02*
X503768Y759775D01*
X503479Y760568*
X503479D02*
X502902Y761362D01*
X502902D02*
X502325Y761759D01*
X501170*
X508963D02*
X506654Y753425D01*
X508963Y761759D02*
X511272Y753425D01*
X507520Y756203D02*
X510406D01*
X513870Y761759D02*
Y753425D01*
Y761759D02*
X516468D01*
X517334Y761362*
X517334D02*
X517622Y760965D01*
X517622D02*
X517911Y760171D01*
X517911D02*
Y759378D01*
X517622Y758584*
X517622D02*
X517334Y758187D01*
X517334D02*
X516468Y757790D01*
X516468D02*
X513870D01*
X515890D02*
X517911Y753425D01*
X520509Y761759D02*
Y753425D01*
Y761759D02*
X522529D01*
X522529D02*
X523395Y761362D01*
X523395D02*
X523972Y760568D01*
X523972D02*
X524261Y759775D01*
X524550Y758584*
Y756600*
X524261Y755409*
X523972Y754615*
X523972D02*
X523395Y753821D01*
X523395D02*
X522529Y753425D01*
X522529D02*
X520509D01*
X533786Y761759D02*
Y753425D01*
Y761759D02*
X537827Y753425D01*
Y761759D02*
Y753425D01*
X542734Y761759D02*
X540425Y753425D01*
X542734Y761759D02*
X545043Y753425D01*
X541290Y756203D02*
X544177D01*
X547640Y761759D02*
Y753425D01*
Y761759D02*
X549950Y753425D01*
X552259Y761759D02*
X549950Y753425D01*
X552259Y761759D02*
Y753425D01*
X554856Y761759D02*
Y753425D01*
Y761759D02*
X558609D01*
X554856Y757790D02*
X557165D01*
X554856Y753425D02*
X558609D01*
X492800Y679209D02*
Y670875D01*
Y679209D02*
X494820D01*
X495686Y678812*
X495686D02*
X496263Y678018D01*
X496263D02*
X496552Y677225D01*
X496840Y676034*
X496840D02*
Y674050D01*
X496840D02*
X496552Y672859D01*
X496263Y672065*
X496263D02*
X495686Y671271D01*
X495686D02*
X494820Y670875D01*
X492800*
X499438Y679209D02*
Y670875D01*
Y679209D02*
X503190D01*
X499438Y675240D02*
X501747D01*
X499438Y670875D02*
X503190D01*
X509829Y678018D02*
X509252Y678812D01*
X509252D02*
X508386Y679209D01*
X507231*
X507231D02*
X506365Y678812D01*
X506365D02*
X505788Y678018D01*
X505788D02*
Y677225D01*
X505788D02*
X506077Y676431D01*
X506365Y676034*
X506365D02*
X506943Y675637D01*
X506943D02*
X508675Y674843D01*
X508675D02*
X509252Y674446D01*
X509252D02*
X509540Y674050D01*
X509540D02*
X509829Y673256D01*
X509829D02*
Y672065D01*
X509829D02*
X509252Y671271D01*
X509252D02*
X508386Y670875D01*
X507231*
X507231D02*
X506365Y671271D01*
X506365D02*
X505788Y672065D01*
X516756Y677225D02*
X516468Y678018D01*
X516468D02*
X515890Y678812D01*
X515890D02*
X515313Y679209D01*
X515313D02*
X514159D01*
X513581Y678812*
X513581D02*
X513004Y678018D01*
X513004D02*
X512715Y677225D01*
X512715D02*
X512427Y676034D01*
Y674050*
X512715Y672859*
X512715D02*
X513004Y672065D01*
X513004D02*
X513581Y671271D01*
X513581D02*
X514159Y670875D01*
X515313*
X515313D02*
X515890Y671271D01*
X515890D02*
X516468Y672065D01*
X516468D02*
X516756Y672859D01*
X891204Y758901D02*
Y750567D01*
Y758901D02*
X893802D01*
X893802D02*
X894668Y758505D01*
X894957Y758108*
X895245Y757314*
X895245D02*
Y756520D01*
X895245D02*
X894957Y755726D01*
X894957D02*
X894668Y755330D01*
X893802Y754933*
X891204*
X893225D02*
X895245Y750567D01*
X897843Y758901D02*
Y750567D01*
Y758901D02*
X901595D01*
X897843Y754933D02*
X900152D01*
X897843Y750567D02*
X901595D01*
X904193Y758901D02*
X906502Y750567D01*
X908811Y758901D02*
X906502Y750567D01*
X916604Y760489D02*
X911409Y747789D01*
X919202Y758901D02*
Y750567D01*
X925841Y757711D02*
X925263Y758505D01*
X925263D02*
X924397Y758901D01*
X924397D02*
X923243D01*
X923243D02*
X922377Y758505D01*
X921800Y757711*
Y756917*
X921800D02*
X922088Y756123D01*
X922088D02*
X922377Y755726D01*
X922377D02*
X922954Y755330D01*
X922954D02*
X924686Y754536D01*
X924686D02*
X925263Y754139D01*
X925263D02*
X925552Y753742D01*
X925552D02*
X925841Y752948D01*
X925841D02*
Y751758D01*
X925263Y750964*
X925263D02*
X924397Y750567D01*
X924397D02*
X923243D01*
X923243D02*
X922377Y750964D01*
X921800Y751758*
X932479Y757711D02*
X931902Y758505D01*
X931036Y758901*
X931036D02*
X929882D01*
X929882D02*
X929016Y758505D01*
X928438Y757711*
X928438D02*
Y756917D01*
X928438D02*
X928727Y756123D01*
X928727D02*
X929016Y755726D01*
X929016D02*
X929593Y755330D01*
X931325Y754536*
X931902Y754139*
X932191Y753742*
X932191D02*
X932479Y752948D01*
X932479D02*
Y751758D01*
X932479D02*
X931902Y750964D01*
X931036Y750567*
X931036D02*
X929882D01*
X929882D02*
X929016Y750964D01*
X928438Y751758*
X327700Y638331D02*
X328854Y632775D01*
X330009Y638331D02*
X328854Y632775D01*
X330009Y638331D02*
X331163Y632775D01*
X332318Y638331D02*
X331163Y632775D01*
X334915Y638331D02*
X336070Y632775D01*
X337225Y638331D02*
X336070Y632775D01*
X337225Y638331D02*
X338379Y632775D01*
X339534Y638331D02*
X338379Y632775D01*
X342131Y638331D02*
X343286Y632775D01*
X344440Y638331D02*
X343286Y632775D01*
X344440Y638331D02*
X345595Y632775D01*
X346750Y638331D02*
X345595Y632775D01*
X349636Y633568D02*
X349347Y633171D01*
X349347D02*
X349636Y632775D01*
X349925Y633171*
X349925D02*
X349636Y633568D01*
X355986Y637140D02*
X355409Y637934D01*
X354831Y638331*
X354831D02*
X353965D01*
X353965D02*
X353388Y637934D01*
X353388D02*
X352811Y637140D01*
X352811D02*
X352522Y635950D01*
X352522D02*
Y635156D01*
X352522D02*
X352811Y633965D01*
X352811D02*
X353388Y633171D01*
X353388D02*
X353965Y632775D01*
X353965D02*
X354831D01*
X354831D02*
X355409Y633171D01*
X355409D02*
X355986Y633965D01*
X362047Y638331D02*
Y632775D01*
Y637140D02*
X361470Y637934D01*
X360893Y638331*
X360027*
X359450Y637934*
X358872Y637140*
X358872D02*
X358584Y635950D01*
Y635156*
X358872Y633965*
X358872D02*
X359450Y633171D01*
X359450D02*
X360027Y632775D01*
X360893*
X361470Y633171*
X361470D02*
X362047Y633965D01*
X368109Y641109D02*
Y632775D01*
Y637140D02*
X367531Y637934D01*
X367531D02*
X366954Y638331D01*
X366954D02*
X366088D01*
X366088D02*
X365511Y637934D01*
X364934Y637140*
X364934D02*
X364645Y635950D01*
Y635156*
X364934Y633965*
X364934D02*
X365511Y633171D01*
X365511D02*
X366088Y632775D01*
X366088D02*
X366954D01*
X366954D02*
X367531Y633171D01*
X367531D02*
X368109Y633965D01*
X370706Y635950D02*
X374170D01*
Y636743*
X374170D02*
X373881Y637537D01*
X373881D02*
X373593Y637934D01*
X373015Y638331*
X373015D02*
X372150D01*
X371572Y637934*
X371572D02*
X370995Y637140D01*
X370995D02*
X370706Y635950D01*
X370706D02*
Y635156D01*
X370706D02*
X370995Y633965D01*
X370995D02*
X371572Y633171D01*
X371572D02*
X372150Y632775D01*
X373015*
X373015D02*
X373593Y633171D01*
X373593D02*
X374170Y633965D01*
X376768Y638331D02*
Y632775D01*
Y636743D02*
X377634Y637934D01*
X378211Y638331*
X379077*
X379654Y637934*
X379654D02*
X379943Y636743D01*
X379943D02*
Y632775D01*
X382540Y635950D02*
X386004D01*
X386004D02*
Y636743D01*
X386004D02*
X385715Y637537D01*
X385715D02*
X385427Y637934D01*
X384850Y638331*
X383984*
X383406Y637934*
X383406D02*
X382829Y637140D01*
X382829D02*
X382540Y635950D01*
X382540D02*
Y635156D01*
X382540D02*
X382829Y633965D01*
X382829D02*
X383406Y633171D01*
X383406D02*
X383984Y632775D01*
X384850*
X385427Y633171*
X385427D02*
X386004Y633965D01*
X388602Y638331D02*
Y632775D01*
Y635950D02*
X388890Y637140D01*
X388890D02*
X389468Y637934D01*
X390045Y638331*
X390911*
X396972D02*
Y631981D01*
X396972D02*
X396684Y630790D01*
X396684D02*
X396395Y630393D01*
X396395D02*
X395818Y629996D01*
X395818D02*
X394952D01*
X394952D02*
X394375Y630393D01*
X396972Y637140D02*
X396395Y637934D01*
X395818Y638331*
X394952*
X394375Y637934*
X393797Y637140*
X393797D02*
X393509Y635950D01*
Y635156*
X393797Y633965*
X393797D02*
X394375Y633171D01*
X394375D02*
X394952Y632775D01*
X395818*
X396395Y633171*
X396395D02*
X396972Y633965D01*
X399859Y638331D02*
X401590Y632775D01*
X403322Y638331D02*
X401590Y632775D01*
X401590D02*
X401013Y631187D01*
X401013D02*
X400436Y630393D01*
X400436D02*
X399859Y629996D01*
X399859D02*
X399570D01*
X406209Y633568D02*
X405920Y633171D01*
X405920D02*
X406209Y632775D01*
X406497Y633171*
X406497D02*
X406209Y633568D01*
X412559Y637140D02*
X411981Y637934D01*
X411981D02*
X411404Y638331D01*
X411404D02*
X410538D01*
X410538D02*
X409961Y637934D01*
X409384Y637140*
X409384D02*
X409095Y635950D01*
Y635156*
X409384Y633965*
X409384D02*
X409961Y633171D01*
X409961D02*
X410538Y632775D01*
X410538D02*
X411404D01*
X411404D02*
X411981Y633171D01*
X411981D02*
X412559Y633965D01*
X416600Y638331D02*
X416022Y637934D01*
X416022D02*
X415445Y637140D01*
X415445D02*
X415156Y635950D01*
X415156D02*
Y635156D01*
X415156D02*
X415445Y633965D01*
X415445D02*
X416022Y633171D01*
X416022D02*
X416600Y632775D01*
X417465*
X417465D02*
X418043Y633171D01*
X418043D02*
X418620Y633965D01*
X418620D02*
X418909Y635156D01*
Y635950*
X418620Y637140*
X418620D02*
X418043Y637934D01*
X417465Y638331*
X417465D02*
X416600D01*
X421506D02*
Y632775D01*
Y636743D02*
X422372Y637934D01*
X422372D02*
X422950Y638331D01*
X423815*
X423815D02*
X424393Y637934D01*
X424681Y636743*
X424681D02*
Y632775D01*
Y636743D02*
X425547Y637934D01*
X425547D02*
X426125Y638331D01*
X426990*
X426990D02*
X427568Y637934D01*
X427856Y636743*
X427856D02*
Y632775D01*
G54D23*
G54D29*
X445962Y470642D02*
Y484358D01*
X419038*
Y470642*
X445962*
X374038Y484358D02*
Y470642D01*
X400962*
Y484358*
X374038*
X373142Y534038D02*
X386858D01*
Y560962*
X373142*
Y534038*
X381858Y465962D02*
X368142D01*
Y439038*
X381858*
Y465962*
X432300Y437300D02*
X457700D01*
Y462700*
X432300*
Y437300*
G54D81*
X390500Y468000D02*
Y437000D01*
X429500*
Y468000*
X390500*
X452323Y483867D02*
X452039Y484648D01*
X452039D02*
X451471Y485429D01*
X451471D02*
X450903Y485820D01*
X449767*
X449198Y485429*
X449198D02*
X448630Y484648D01*
X448630D02*
X448346Y483867D01*
X448346D02*
X448062Y482695D01*
X448062D02*
Y480742D01*
X448062D02*
X448346Y479570D01*
X448346D02*
X448630Y478789D01*
X448630D02*
X449198Y478007D01*
X449198D02*
X449767Y477617D01*
X450903*
X451471Y478007*
X451471D02*
X452039Y478789D01*
X452039D02*
X452323Y479570D01*
X454880Y484257D02*
X455448Y484648D01*
X455448D02*
X456301Y485820D01*
Y477617*
X387153Y492617D02*
X386869Y493398D01*
X386301Y494179*
X386301D02*
X385732Y494570D01*
X385732D02*
X384596D01*
X384596D02*
X384028Y494179D01*
X384028D02*
X383460Y493398D01*
X383176Y492617*
X382892Y491445*
Y489492*
X383176Y488320*
X383460Y487539*
X384028Y486757*
X384028D02*
X384596Y486367D01*
X384596D02*
X385732D01*
X385732D02*
X386301Y486757D01*
X386301D02*
X386869Y487539D01*
X387153Y488320*
X392551Y494570D02*
X389710Y489101D01*
X389710D02*
X393971D01*
X392551Y494570D02*
Y486367D01*
X385045Y529367D02*
X384761Y530148D01*
X384193Y530929*
X384193D02*
X383625Y531320D01*
X382488*
X382488D02*
X381920Y530929D01*
X381920D02*
X381352Y530148D01*
X381068Y529367*
X380784Y528195*
Y526242*
X381068Y525070*
X381352Y524289*
X381920Y523507*
X381920D02*
X382488Y523117D01*
X382488D02*
X383625D01*
X384193Y523507*
X384193D02*
X384761Y524289D01*
X385045Y525070*
X388170Y531320D02*
X391295D01*
X389590Y528195*
X389590D02*
X390443D01*
X391011Y527804*
X391011D02*
X391295Y527414D01*
X391579Y526242*
X391579D02*
Y525460D01*
X391579D02*
X391295Y524289D01*
X390727Y523507*
X390727D02*
X389875Y523117D01*
X389022*
X389022D02*
X388170Y523507D01*
X388170D02*
X387886Y523898D01*
X387602Y524679*
X383906Y439636D02*
X383281Y439409D01*
X382656Y438954*
X382656D02*
X382343Y438500D01*
X382343D02*
Y437590D01*
X382343D02*
X382656Y437136D01*
X383281Y436681*
X383281D02*
X383906Y436454D01*
X383906D02*
X384843Y436227D01*
X384843D02*
X386406D01*
X387343Y436454*
X387343D02*
X387968Y436681D01*
X387968D02*
X388593Y437136D01*
X388593D02*
X388906Y437590D01*
X388906D02*
Y438500D01*
X388593Y438954*
X388593D02*
X387968Y439409D01*
X387968D02*
X387343Y439636D01*
X383906Y441909D02*
X383593D01*
X383593D02*
X382968Y442136D01*
X382968D02*
X382656Y442363D01*
X382656D02*
X382343Y442818D01*
X382343D02*
Y443727D01*
X382343D02*
X382656Y444181D01*
X382656D02*
X382968Y444409D01*
X382968D02*
X383593Y444636D01*
X383593D02*
X384218D01*
X384218D02*
X384843Y444409D01*
X384843D02*
X385781Y443954D01*
X385781D02*
X388906Y441681D01*
X388906D02*
Y444863D01*
X450227Y472156D02*
Y465593D01*
X448636Y472156D02*
X451818D01*
X453863D02*
Y465593D01*
Y472156D02*
X455909D01*
X456590Y471843*
X456590D02*
X456818Y471531D01*
X457045Y470906*
Y469968*
X457045D02*
X456818Y469343D01*
X456818D02*
X456590Y469031D01*
X456590D02*
X455909Y468718D01*
X455909D02*
X453863D01*
X459090Y470906D02*
X459545Y471218D01*
X459545D02*
X460227Y472156D01*
Y465593*
X465454Y472156D02*
X463181Y465593D01*
X462272Y472156D02*
X465454D01*
X404926Y479570D02*
Y473710D01*
X404926D02*
X405210Y472539D01*
X405778Y471757*
X405778D02*
X406630Y471367D01*
X406630D02*
X407198D01*
X407198D02*
X408051Y471757D01*
X408051D02*
X408619Y472539D01*
X408903Y473710*
X408903D02*
Y479570D01*
X411744Y477617D02*
Y478007D01*
X411744D02*
X412028Y478789D01*
X412312Y479179*
X412312D02*
X412880Y479570D01*
X412880D02*
X414017D01*
X414585Y479179*
X414585D02*
X414869Y478789D01*
X415153Y478007*
X415153D02*
Y477226D01*
X415153D02*
X414869Y476445D01*
X414301Y475273*
X411460Y471367*
X415437*
X495352Y505484D02*
Y497984D01*
X495011Y496578*
X494670Y496109*
X493988Y495640*
X493988D02*
X493306D01*
X493306D02*
X492625Y496109D01*
X492284Y496578*
X491943Y497984*
Y498921*
X498761Y503140D02*
Y503609D01*
X499102Y504546*
X499102D02*
X499443Y505015D01*
X499443D02*
X500125Y505484D01*
X501488*
X501488D02*
X502170Y505015D01*
X502170D02*
X502511Y504546D01*
X502511D02*
X502852Y503609D01*
Y502671*
X502852D02*
X502511Y501734D01*
X501829Y500328*
X501829D02*
X498420Y495640D01*
X498420D02*
X503193D01*
X396429Y515295D02*
X404632D01*
X396429D02*
Y517852D01*
X396429D02*
X396820Y518704D01*
X396820D02*
X397210Y518988D01*
X397210D02*
X397992Y519272D01*
X397992D02*
X398773D01*
X398773D02*
X399554Y518988D01*
X399554D02*
X399945Y518704D01*
X399945D02*
X400335Y517852D01*
X400335D02*
Y515295D01*
Y517284D02*
X404632Y519272D01*
X397992Y521829D02*
X397601Y522397D01*
X397601D02*
X396429Y523250D01*
X396429D02*
X404632D01*
X396429Y529500D02*
Y526659D01*
X396429D02*
X399945Y526375D01*
X399554Y526659*
X399554D02*
X399164Y527511D01*
Y528363*
X399164D02*
X399554Y529215D01*
X399554D02*
X400335Y529784D01*
X400335D02*
X401507Y530068D01*
X401507D02*
X402289Y529784D01*
X403460Y529500*
X403460D02*
X404242Y528931D01*
X404242D02*
X404632Y528079D01*
X404632D02*
Y527227D01*
X404632D02*
X404242Y526375D01*
X403851Y526090*
X403851D02*
X403070Y525806D01*
X406179Y515829D02*
X414382D01*
X406179D02*
Y518386D01*
X406179D02*
X406570Y519238D01*
X406570D02*
X406960Y519522D01*
X406960D02*
X407742Y519806D01*
X407742D02*
X408523D01*
X408523D02*
X409304Y519522D01*
X409304D02*
X409695Y519238D01*
X409695D02*
X410085Y518386D01*
X410085D02*
Y515829D01*
Y517818D02*
X414382Y519806D01*
X407742Y522363D02*
X407351Y522931D01*
X407351D02*
X406179Y523784D01*
X406179D02*
X414382D01*
X407351Y529750D02*
X406570Y529465D01*
X406570D02*
X406179Y528613D01*
X406179D02*
Y528045D01*
X406179D02*
X406570Y527193D01*
X407742Y526625*
X409695Y526340*
X409695D02*
X411648D01*
X411648D02*
X413210Y526625D01*
X413210D02*
X413992Y527193D01*
X414382Y528045*
X414382D02*
Y528329D01*
X414382D02*
X413992Y529181D01*
X413992D02*
X413210Y529750D01*
X413210D02*
X412039Y530034D01*
X411648*
X410476Y529750*
X410476D02*
X409695Y529181D01*
X409695D02*
X409304Y528329D01*
X409304D02*
Y528045D01*
X409304D02*
X409695Y527193D01*
X410476Y526625*
X410476D02*
X411648Y526340D01*
X416429Y515687D02*
X424632D01*
X416429D02*
Y518244D01*
X416429D02*
X416820Y519096D01*
X416820D02*
X417210Y519380D01*
X417210D02*
X417992Y519664D01*
X417992D02*
X418773D01*
X418773D02*
X419554Y519380D01*
X419554D02*
X419945Y519096D01*
X419945D02*
X420335Y518244D01*
X420335D02*
Y515687D01*
Y517676D02*
X424632Y519664D01*
X417992Y522221D02*
X417601Y522789D01*
X417601D02*
X416429Y523642D01*
X416429D02*
X424632D01*
X416429Y530176D02*
X424632Y527335D01*
X416429Y526198D02*
Y530176D01*
X426929Y515437D02*
X435132D01*
X426929D02*
Y517994D01*
X426929D02*
X427320Y518846D01*
X427320D02*
X427710Y519130D01*
X427710D02*
X428492Y519414D01*
X428492D02*
X429273D01*
X429273D02*
X430054Y519130D01*
X430054D02*
X430445Y518846D01*
X430445D02*
X430835Y517994D01*
X430835D02*
Y515437D01*
Y517426D02*
X435132Y519414D01*
X428492Y521971D02*
X428101Y522539D01*
X428101D02*
X426929Y523392D01*
X426929D02*
X435132D01*
X426929Y527369D02*
X427320Y526517D01*
X428101Y526233*
X428101D02*
X428882D01*
X428882D02*
X429664Y526517D01*
X430054Y527085*
X430054D02*
X430445Y528221D01*
X430445D02*
X430835Y529073D01*
X430835D02*
X431617Y529642D01*
X432398Y529926*
X433570*
X434351Y529642*
X434351D02*
X434742Y529358D01*
X435132Y528505*
X435132D02*
Y527369D01*
X435132D02*
X434742Y526517D01*
X434351Y526233*
X434351D02*
X433570Y525948D01*
X433570D02*
X432398D01*
X432398D02*
X431617Y526233D01*
X430835Y526801*
X430835D02*
X430445Y527653D01*
X430054Y528789*
X430054D02*
X429664Y529358D01*
X428882Y529642*
X428882D02*
X428101D01*
X428101D02*
X427320Y529358D01*
X426929Y528505*
X426929D02*
Y527369D01*
X436929Y515579D02*
X445132D01*
X436929D02*
Y518136D01*
X436929D02*
X437320Y518988D01*
X437320D02*
X437710Y519272D01*
X437710D02*
X438492Y519556D01*
X438492D02*
X439273D01*
X439273D02*
X440054Y519272D01*
X440054D02*
X440445Y518988D01*
X440445D02*
X440835Y518136D01*
X440835D02*
Y515579D01*
Y517568D02*
X445132Y519556D01*
X438492Y522113D02*
X438101Y522681D01*
X438101D02*
X436929Y523534D01*
X436929D02*
X445132D01*
X439664Y529784D02*
X440835Y529500D01*
X440835D02*
X441617Y528931D01*
X441617D02*
X442007Y528079D01*
X442007D02*
Y527795D01*
X442007D02*
X441617Y526943D01*
X440835Y526375*
X440835D02*
X439664Y526090D01*
X439664D02*
X439273D01*
X439273D02*
X438101Y526375D01*
X438101D02*
X437320Y526943D01*
X436929Y527795*
X436929D02*
Y528079D01*
X436929D02*
X437320Y528931D01*
X437320D02*
X438101Y529500D01*
X438101D02*
X439664Y529784D01*
X441617*
X443570Y529500*
X444742Y528931*
X444742D02*
X445132Y528079D01*
X445132D02*
Y527511D01*
X445132D02*
X444742Y526659D01*
X443960Y526375*
X447929Y515909D02*
X456132D01*
X447929D02*
Y518465D01*
X447929D02*
X448320Y519318D01*
X448710Y519602*
X448710D02*
X449492Y519886D01*
X450273*
X451054Y519602*
X451054D02*
X451445Y519318D01*
X451835Y518465*
X451835D02*
Y515909D01*
Y517897D02*
X456132Y519886D01*
X449882Y522727D02*
X449492D01*
X448710Y523011*
X448710D02*
X448320Y523295D01*
X447929Y523863*
X447929D02*
Y525000D01*
X447929D02*
X448320Y525568D01*
X448710Y525852*
X448710D02*
X449492Y526136D01*
X450273*
X451054Y525852*
X451054D02*
X452226Y525284D01*
X452226D02*
X456132Y522443D01*
X456132D02*
Y526420D01*
X447929Y530681D02*
X448320Y529829D01*
X448320D02*
X449492Y529261D01*
X451445Y528977*
X452617*
X454570Y529261*
X455742Y529829*
X455742D02*
X456132Y530681D01*
X456132D02*
Y531250D01*
X456132D02*
X455742Y532102D01*
X454570Y532670*
X452617Y532954*
X452617D02*
X451445D01*
X451445D02*
X449492Y532670D01*
X448320Y532102*
X447929Y531250*
X447929D02*
Y530681D01*
X384929Y500687D02*
X393132D01*
X384929D02*
Y503244D01*
X384929D02*
X385320Y504096D01*
X385320D02*
X385710Y504380D01*
X385710D02*
X386492Y504664D01*
X386492D02*
X387273D01*
X387273D02*
X388054Y504380D01*
X388054D02*
X388445Y504096D01*
X388445D02*
X388835Y503244D01*
X388835D02*
Y500687D01*
Y502676D02*
X393132Y504664D01*
X386882Y507505D02*
X386492D01*
X386492D02*
X385710Y507789D01*
X385710D02*
X385320Y508073D01*
X385320D02*
X384929Y508642D01*
X384929D02*
Y509778D01*
X384929D02*
X385320Y510346D01*
X385320D02*
X385710Y510630D01*
X385710D02*
X386492Y510914D01*
X386492D02*
X387273D01*
X387273D02*
X388054Y510630D01*
X388054D02*
X389226Y510062D01*
X389226D02*
X393132Y507221D01*
X393132D02*
Y511198D01*
X386492Y513755D02*
X386101Y514323D01*
X386101D02*
X384929Y515176D01*
X384929D02*
X393132D01*
X501971Y478757D02*
X502539Y479148D01*
X502539D02*
X503392Y480320D01*
Y472117*
X545261Y452000D02*
X544977Y452781D01*
X544409Y453562*
X544409D02*
X543840Y453953D01*
X543840D02*
X542704D01*
X542704D02*
X542136Y453562D01*
X542136D02*
X541568Y452781D01*
X541284Y452000*
X541000Y450828*
Y448875*
X541284Y447703*
X541568Y446921*
X541568D02*
X542136Y446140D01*
X542136D02*
X542704Y445750D01*
X542704D02*
X543840D01*
X543840D02*
X544409Y446140D01*
X544409D02*
X544977Y446921D01*
X544977D02*
X545261Y447703D01*
Y448875*
X543840D02*
X545261D01*
X547818Y453953D02*
Y445750D01*
Y453953D02*
X551795Y445750D01*
Y453953D02*
Y445750D01*
X554352Y453953D02*
Y445750D01*
Y453953D02*
X556340D01*
X556340D02*
X557193Y453562D01*
X557193D02*
X557761Y452781D01*
X558045Y452000*
X558329Y450828*
X558329D02*
Y448875D01*
X558329D02*
X558045Y447703D01*
X557761Y446921*
X557761D02*
X557193Y446140D01*
X557193D02*
X556340Y445750D01*
X556340D02*
X554352D01*
X540500Y468953D02*
X542772Y460750D01*
X545045Y468953D02*
X542772Y460750D01*
X547602Y468953D02*
Y460750D01*
Y468953D02*
X549590D01*
X549590D02*
X550443Y468562D01*
X550443D02*
X551011Y467781D01*
X551295Y467000*
X551579Y465828*
X551579D02*
Y463875D01*
X551579D02*
X551295Y462703D01*
X551011Y461921*
X551011D02*
X550443Y461140D01*
X550443D02*
X549590Y460750D01*
X549590D02*
X547602D01*
X554136Y468953D02*
Y460750D01*
Y468953D02*
X556125D01*
X556977Y468562*
X556977D02*
X557545Y467781D01*
X557829Y467000*
X557829D02*
X558113Y465828D01*
X558113D02*
Y463875D01*
X558113D02*
X557829Y462703D01*
X557829D02*
X557545Y461921D01*
X557545D02*
X556977Y461140D01*
X556977D02*
X556125Y460750D01*
X554136*
X547931Y482625D02*
X547477Y483250D01*
X546795Y483562*
X546795D02*
X545886D01*
X545886D02*
X545204Y483250D01*
X545204D02*
X544750Y482625D01*
Y482000*
X544977Y481375*
X545204Y481062*
X545204D02*
X545659Y480750D01*
X547022Y480125*
X547022D02*
X547477Y479812D01*
X547477D02*
X547704Y479500D01*
X547704D02*
X547931Y478875D01*
X547931D02*
Y477937D01*
X547931D02*
X547477Y477312D01*
X547477D02*
X546795Y477000D01*
X545886*
X545204Y477312*
X545204D02*
X544750Y477937D01*
X553386Y482000D02*
X553159Y482625D01*
X552704Y483250*
X552704D02*
X552250Y483562D01*
X552250D02*
X551340D01*
X551340D02*
X550886Y483250D01*
X550431Y482625*
X550431D02*
X550204Y482000D01*
X550204D02*
X549977Y481062D01*
X549977D02*
Y479500D01*
X550204Y478562*
X550204D02*
X550431Y477937D01*
X550431D02*
X550886Y477312D01*
X550886D02*
X551340Y477000D01*
X551340D02*
X552250D01*
X552704Y477312*
X552704D02*
X553159Y477937D01*
X553159D02*
X553386Y478562D01*
X555431Y483562D02*
Y477000D01*
X555431D02*
X558159D01*
X548181Y497125D02*
X547727Y497750D01*
X547045Y498062*
X547045D02*
X546136D01*
X546136D02*
X545454Y497750D01*
X545454D02*
X545000Y497125D01*
Y496500*
X545227Y495875*
X545454Y495562*
X545454D02*
X545909Y495250D01*
X547272Y494625*
X547272D02*
X547727Y494312D01*
X547727D02*
X547954Y494000D01*
X547954D02*
X548181Y493375D01*
X548181D02*
Y492437D01*
X548181D02*
X547727Y491812D01*
X547727D02*
X547045Y491500D01*
X546136*
X545454Y491812*
X545454D02*
X545000Y492437D01*
X550227Y498062D02*
Y491500D01*
Y498062D02*
X551818D01*
X551818D02*
X552500Y497750D01*
X552954Y497125*
X552954D02*
X553181Y496500D01*
X553181D02*
X553409Y495562D01*
X553409D02*
Y494000D01*
X553181Y493062*
X553181D02*
X552954Y492437D01*
X552954D02*
X552500Y491812D01*
X552500D02*
X551818Y491500D01*
X550227*
X557272Y498062D02*
X555454Y491500D01*
X557272Y498062D02*
X559090Y491500D01*
X556136Y493687D02*
X558409D01*
X544500Y513312D02*
Y506750D01*
Y513312D02*
X547681Y506750D01*
Y513312D02*
Y506750D01*
X553136Y511750D02*
X552909Y512375D01*
X552454Y513000*
X552454D02*
X552000Y513312D01*
X552000D02*
X551090D01*
X551090D02*
X550636Y513000D01*
X550181Y512375*
X550181D02*
X549954Y511750D01*
X549954D02*
X549727Y510812D01*
X549727D02*
Y509250D01*
X549954Y508312*
X549954D02*
X550181Y507687D01*
X550181D02*
X550636Y507062D01*
X550636D02*
X551090Y506750D01*
X551090D02*
X552000D01*
X552454Y507062*
X552454D02*
X552909Y507687D01*
X552909D02*
X553136Y508312D01*
X556545Y513312D02*
X555863Y513000D01*
X555863D02*
X555409Y512062D01*
X555409D02*
X555181Y510500D01*
X555181D02*
Y509562D01*
X555181D02*
X555409Y508000D01*
X555863Y507062*
X555863D02*
X556545Y506750D01*
X557000*
X557681Y507062*
X557681D02*
X558136Y508000D01*
X558363Y509562*
X558363D02*
Y510500D01*
X558363D02*
X558136Y512062D01*
X558136D02*
X557681Y513000D01*
X557681D02*
X557000Y513312D01*
X557000D02*
X556545D01*
X545250Y528562D02*
Y522000D01*
Y528562D02*
X548431Y522000D01*
Y528562D02*
Y522000D01*
X553886Y527000D02*
X553659Y527625D01*
X553204Y528250*
X553204D02*
X552750Y528562D01*
X552750D02*
X551840D01*
X551840D02*
X551386Y528250D01*
X550931Y527625*
X550931D02*
X550704Y527000D01*
X550704D02*
X550477Y526062D01*
X550477D02*
Y524500D01*
X550704Y523562*
X550704D02*
X550931Y522937D01*
X550931D02*
X551386Y522312D01*
X551386D02*
X551840Y522000D01*
X551840D02*
X552750D01*
X553204Y522312*
X553204D02*
X553659Y522937D01*
X553659D02*
X553886Y523562D01*
X555931Y527312D02*
X556386Y527625D01*
X557068Y528562*
X557068D02*
Y522000D01*
X534750Y543953D02*
X538727Y535750D01*
Y543953D02*
X534750Y535750D01*
X545261Y542781D02*
X544693Y543562D01*
X544693D02*
X543840Y543953D01*
X543840D02*
X542704D01*
X542704D02*
X541852Y543562D01*
X541852D02*
X541284Y542781D01*
Y542000*
X541568Y541218*
X541568D02*
X541852Y540828D01*
X542420Y540437*
X542420D02*
X544125Y539656D01*
X544693Y539265*
X544693D02*
X544977Y538875D01*
X545261Y538093*
X545261D02*
Y536921D01*
X545261D02*
X544693Y536140D01*
X544693D02*
X543840Y535750D01*
X543840D02*
X542704D01*
X542704D02*
X541852Y536140D01*
X541852D02*
X541284Y536921D01*
X547818Y543953D02*
Y535750D01*
Y543953D02*
X549806D01*
X549806D02*
X550659Y543562D01*
X550659D02*
X551227Y542781D01*
X551511Y542000*
X551795Y540828*
Y538875*
X551511Y537703*
X551227Y536921*
X551227D02*
X550659Y536140D01*
X550659D02*
X549806Y535750D01*
X549806D02*
X547818D01*
X554352Y543953D02*
Y535750D01*
Y543953D02*
X558329Y535750D01*
Y543953D02*
Y535750D01*
X545500Y558703D02*
Y550500D01*
X548056Y558703D02*
Y550500D01*
Y558703D02*
X552034Y550500D01*
Y558703D02*
Y550500D01*
X556579Y558703D02*
Y550500D01*
X554590Y558703D02*
X558568D01*
X423000Y566453D02*
Y558250D01*
Y566453D02*
X425556D01*
X425556D02*
X426409Y566062D01*
X426409D02*
X426693Y565671D01*
X426693D02*
X426977Y564890D01*
X426977D02*
Y563718D01*
X426977D02*
X426693Y562937D01*
X426693D02*
X426409Y562546D01*
X426409D02*
X425556Y562156D01*
X425556D02*
X423000D01*
X433795Y564500D02*
X433511Y565281D01*
X432943Y566062*
X432943D02*
X432375Y566453D01*
X431238*
X431238D02*
X430670Y566062D01*
X430670D02*
X430102Y565281D01*
X429818Y564500*
X429534Y563328*
Y561375*
X429818Y560203*
X430102Y559421*
X430102D02*
X430670Y558640D01*
X430670D02*
X431238Y558250D01*
X431238D02*
X432375D01*
X432943Y558640*
X432943D02*
X433511Y559421D01*
X433511D02*
X433795Y560203D01*
X436352Y566453D02*
Y558250D01*
Y566453D02*
X438909D01*
X439761Y566062*
X439761D02*
X440045Y565671D01*
X440045D02*
X440329Y564890D01*
X440329D02*
Y564109D01*
X440329D02*
X440045Y563328D01*
X439761Y562937*
X439761D02*
X438909Y562546D01*
X436352D02*
X438909D01*
X438909D02*
X439761Y562156D01*
X440045Y561765*
X440045D02*
X440329Y560984D01*
X440329D02*
Y559812D01*
X440329D02*
X440045Y559031D01*
X439761Y558640*
X439761D02*
X438909Y558250D01*
X436352*
X442886Y564890D02*
X443454Y565281D01*
X443454D02*
X444306Y566453D01*
X444306D02*
Y558250D01*
X450556Y566453D02*
X447715D01*
X447715D02*
X447431Y562937D01*
X447431D02*
X447715Y563328D01*
X447715D02*
X448568Y563718D01*
X448568D02*
X449420D01*
X449420D02*
X450272Y563328D01*
X450272D02*
X450840Y562546D01*
X450840D02*
X451125Y561375D01*
X450840Y560593*
X450840D02*
X450556Y559421D01*
X450556D02*
X449988Y558640D01*
X449988D02*
X449136Y558250D01*
X448284*
X447431Y558640*
X447431D02*
X447147Y559031D01*
X447147D02*
X446863Y559812D01*
X456522Y566453D02*
X453681Y560984D01*
X453681D02*
X457943D01*
X456522Y566453D02*
Y558250D01*
X462204Y566453D02*
X461352Y566062D01*
X461352D02*
X460784Y564890D01*
X460784D02*
X460500Y562937D01*
X460500D02*
Y561765D01*
X460500D02*
X460784Y559812D01*
X460784D02*
X461352Y558640D01*
X461352D02*
X462204Y558250D01*
X462204D02*
X462772D01*
X462772D02*
X463625Y558640D01*
X463625D02*
X464193Y559812D01*
X464193D02*
X464477Y561765D01*
X464477D02*
Y562937D01*
X464477D02*
X464193Y564890D01*
X464193D02*
X463625Y566062D01*
X463625D02*
X462772Y566453D01*
X462772D02*
X462204D01*
X432000Y553953D02*
Y545750D01*
Y553953D02*
X434556D01*
X434556D02*
X435409Y553562D01*
X435409D02*
X435693Y553171D01*
X435693D02*
X435977Y552390D01*
X435977D02*
Y551609D01*
X435693Y550828*
X435409Y550437*
X435409D02*
X434556Y550046D01*
X434556D02*
X432000D01*
X433988D02*
X435977Y545750D01*
X438534Y548875D02*
X441943D01*
Y549656*
X441659Y550437*
X441659D02*
X441375Y550828D01*
X440806Y551218*
X440806D02*
X439954D01*
X439954D02*
X439386Y550828D01*
X438818Y550046*
X438818D02*
X438534Y548875D01*
Y548093*
X438534D02*
X438818Y546921D01*
X438818D02*
X439386Y546140D01*
X439386D02*
X439954Y545750D01*
X439954D02*
X440806D01*
X440806D02*
X441375Y546140D01*
X441375D02*
X441943Y546921D01*
X444500Y551218D02*
X446204Y545750D01*
X447909Y551218D02*
X446204Y545750D01*
X457000Y553953D02*
Y545750D01*
Y553953D02*
X459556D01*
X459556D02*
X460409Y553562D01*
X460409D02*
X460693Y553171D01*
X460693D02*
X460977Y552390D01*
X460977D02*
Y551609D01*
X460693Y550828*
X460409Y550437*
X460409D02*
X459556Y550046D01*
X457000D02*
X459556D01*
X459556D02*
X460409Y549656D01*
X460693Y549265*
X460693D02*
X460977Y548484D01*
Y547312*
X460977D02*
X460693Y546531D01*
X460409Y546140*
X460409D02*
X459556Y545750D01*
X459556D02*
X457000D01*
X427078Y554909D02*
X398038D01*
X389788Y536099*
X401998*
G03X402658Y537749I-67J983*
G01X397048Y543359*
X401338Y551609D02*
G03X397050Y543355I158J-5322D01*
G01X401338Y551609D02*
X425758D01*
X427078Y554909*
X406717Y531809D02*
X413449Y547319D01*
X401272*
G03X400678Y545503I107J-1039*
G01Y545504D02*
X405430Y540917D01*
X403682Y532139D02*
G03X405428Y540918I-2103J4982D01*
G01X403681Y532139D02*
G03X403813Y531809I111J-146D01*
G01X406717*
X411205D02*
X417145D01*
X423877Y547385*
X417970*
X411205Y531809*
X390352Y536313D02*
X402087D01*
X402087D02*
X402506Y536732D01*
X402506D02*
Y537151D01*
X402506D02*
X396219Y543438D01*
X396219D02*
X395800Y546371D01*
X395800D02*
X396638Y549724D01*
X396638D02*
X398315Y551401D01*
X400829Y552239*
X400829D02*
X425137D01*
X425137D02*
X426394Y554334D01*
X426394D02*
X398315D01*
X398315D02*
X390352Y536313D01*
X391190Y536732D02*
X402087D01*
X402087D02*
X395800Y543019D01*
X395800D02*
X395381Y546371D01*
X395381D02*
X397477Y551401D01*
X399153Y552239*
X400410Y552658*
X400410D02*
X425137D01*
X425137D02*
X425556Y553915D01*
X425556D02*
X398734D01*
X398734D02*
X391190Y536732D01*
X392028Y537151D02*
X400829D01*
X400829D02*
X395381Y543019D01*
X395381D02*
X394962Y544695D01*
X394962D02*
X399153Y553496D01*
X399153D02*
X425137D01*
X425137D02*
X424718Y553077D01*
X424718D02*
X399991D01*
X399991D02*
X398315Y552239D01*
X398734Y553077*
X398734D02*
X399991D01*
X394543Y543438D02*
X392028Y537570D01*
X392028D02*
X399572D01*
X399572D02*
X394543Y543438D01*
X392447Y537989*
X392447D02*
X398734D01*
X398734D02*
X394543Y542600D01*
X392866Y538409*
X392866D02*
X397896D01*
X394543Y541761*
X394543D02*
X393286Y538828D01*
X397057*
X397057D02*
X394543Y541342D01*
X394543D02*
X393705Y539247D01*
X396219*
X396219D02*
X394543Y540923D01*
X394543D02*
X394124Y539666D01*
X395381*
X395381D02*
X394543Y540504D01*
X394543D02*
Y539666D01*
X394962*
X394543Y540085*
X401248Y546791D02*
X400829Y546371D01*
X400829D02*
Y545952D01*
X400829D02*
X406278Y540923D01*
X406278D02*
X407535Y537989D01*
X407535D02*
Y535894D01*
X406278Y533798*
X406278D02*
X405020Y532541D01*
X405020D02*
X406278D01*
X406278D02*
X412564Y546791D01*
X412564D02*
X401248D01*
Y546371D02*
X406278Y541761D01*
X406278D02*
X407954Y538409D01*
X407954D02*
Y537151D01*
X407954D02*
X411726Y546371D01*
X411726D02*
X401668D01*
X401668D02*
X406697Y541761D01*
X406697D02*
X407954Y537989D01*
X407954D02*
X410888Y545952D01*
X410888D02*
X402506D01*
X402506D02*
X407116Y541761D01*
X407116D02*
X407954Y538828D01*
X407954D02*
X410050Y545533D01*
X410050D02*
X403344D01*
X403344D02*
X407535Y542180D01*
X407535D02*
X407954Y539666D01*
X407954D02*
X409630Y545533D01*
X409630D02*
X403763D01*
X403763D02*
X407954Y542600D01*
X407954D02*
X407535Y540504D01*
X407535D02*
X409211Y545114D01*
X409211D02*
X404182D01*
X405439Y544695D02*
X407954Y543019D01*
X407954D02*
X408792Y544695D01*
X408792D02*
X405859D01*
X405859D02*
X407954Y543438D01*
X407954D02*
X408373Y544276D01*
X408373D02*
Y544695D01*
X408373D02*
X406697D01*
X406697D02*
X407954Y543857D01*
X407954D02*
Y544276D01*
X407954D02*
X406278D01*
X418432Y546791D02*
X412145Y532541D01*
X412145D02*
X416755D01*
X416755D02*
X423042Y546791D01*
X418432*
X418851Y546371D02*
X412983Y532960D01*
X412983D02*
X416336D01*
X416336D02*
X422203Y546371D01*
X422203D02*
X418851D01*
X418851D02*
Y545952D01*
X418851D02*
X413402Y533379D01*
X413402D02*
X415917D01*
X415917D02*
X421784Y545952D01*
X421784D02*
X419270D01*
X419270D02*
X413821Y533798D01*
X413821D02*
X415917D01*
X415917D02*
X421365Y545533D01*
X421365D02*
X419689D01*
X419689D02*
X414241Y534218D01*
X415917*
X420946Y545114*
X420946D02*
X419689D01*
X419689D02*
X414660Y534637D01*
X415917*
X420527Y544695*
X420527D02*
X419689D01*
X419689D02*
X415498Y535056D01*
X415917*
X420108Y545114*
G74*
X0Y0D02*
M02*
